<?xml version="1.0" encoding="utf-8"?>

<!DOCTYPE svg PUBLIC "-//W3C//DTD SVG 1.1//EN" "http://www.w3.org/Graphics/SVG/1.1/DTD/svg11.dtd">
<svg version="1.1" id="Layer_1" xmlns="http://www.w3.org/2000/svg" xmlns:xlink="http://www.w3.org/1999/xlink" x="0px" y="0px"
	 viewBox="0 0 1643.847 1643.847" enable-background="new 0 0 1643.847 1643.847" xml:space="preserve">
<g>
	<path d="M1247.38,121.008c-127.556-36.574-308.09-84.866-412.14-33.753c108.127-94.987,181.419-68.414,240.806-32.264
		c-13.816-54.323,82.618-31.08,126.976,17.468c7.927-56.565,98.699,115.749,230.344-20.918
		C1433.366,51.542,1374.935,157.582,1247.38,121.008z"/>
	<path d="M121.008,396.468c-36.574,127.556-84.866,308.09-33.753,412.139C-7.732,700.48,18.841,627.188,54.991,567.801
		c-54.323,13.815-31.08-82.618,17.468-126.976c-56.565-7.927,115.749-98.699-20.918-230.344
		C51.542,210.481,157.582,268.912,121.008,396.468z"/>
	<path d="M396.468,1522.839c127.556,36.574,308.09,84.866,412.139,33.753c-108.127,94.987-181.419,68.414-240.806,32.264
		c13.815,54.323-82.618,31.08-126.976-17.468c-7.927,56.565-98.699-115.749-230.344,20.918
		C210.481,1592.306,268.912,1486.265,396.468,1522.839z"/>
	<path d="M1522.839,1247.38c36.574-127.556,84.866-308.09,33.753-412.14c94.987,108.127,68.414,181.419,32.264,240.806
		c54.323-13.816,31.08,82.618-17.468,126.976c56.565,7.927-115.749,98.699,20.918,230.344
		C1592.306,1433.366,1486.265,1374.935,1522.839,1247.38z"/>
	<path d="M1522.839,396.468c36.574,127.556,84.866,308.09,33.753,412.139c94.987-108.127,68.414-181.419,32.264-240.806
		c54.323,13.815,31.08-82.618-17.468-126.976c56.565-7.927-115.749-98.699,20.918-230.344
		C1592.306,210.481,1486.265,268.912,1522.839,396.468z"/>
	<path d="M396.468,121.008c127.556-36.574,308.09-84.866,412.139-33.753C700.48-7.732,627.188,18.841,567.801,54.991
		c13.815-54.323-82.618-31.08-126.976,17.468c-7.927-56.565-98.699,115.749-230.344-20.918
		C210.481,51.542,268.912,157.582,396.468,121.008z"/>
	<path d="M121.008,1247.38c-36.574-127.556-84.866-308.09-33.753-412.14c-94.987,108.127-68.414,181.419-32.264,240.806
		c-54.323-13.816-31.08,82.618,17.468,126.976c-56.565,7.927,115.749,98.699-20.918,230.344
		C51.542,1433.366,157.582,1374.935,121.008,1247.38z"/>
	<path d="M1247.38,1522.839c-127.556,36.574-308.09,84.866-412.14,33.753c108.127,94.987,181.419,68.414,240.806,32.264
		c-13.816,54.323,82.618,31.08,126.976-17.468c7.927,56.565,98.699-115.749,230.344,20.918
		C1433.366,1592.306,1374.935,1486.265,1247.38,1522.839z"/>
	<path d="M821.924,124.583c107.232-64.673,255.097-18.464,255.097-18.464c-45.117-7.228-155.456-4.143-155.456-4.143
		s33.161,0,72.545,26.704c-54.503-11.491-112.413-29.215-172.186-1.516c-59.773-27.699-117.683-9.976-172.186,1.516
		c39.384-26.704,72.545-26.704,72.545-26.704s-110.339-3.085-155.456,4.143C566.826,106.119,714.692,59.91,821.924,124.583z"/>
	<path d="M1519.264,821.924c64.673,107.232,18.464,255.097,18.464,255.097c7.228-45.117,4.143-155.456,4.143-155.456
		s0,33.161-26.704,72.545c11.491-54.503,29.215-112.413,1.516-172.186c27.699-59.773,9.976-117.683-1.516-172.186
		c26.704,39.384,26.704,72.545,26.704,72.545s3.085-110.339-4.143-155.456C1537.729,566.826,1583.938,714.692,1519.264,821.924z"/>
	<path d="M821.924,1519.264c-107.232,64.673-255.097,18.464-255.097,18.464c45.117,7.228,155.456,4.143,155.456,4.143
		s-33.161,0-72.545-26.704c54.503,11.491,112.413,29.215,172.186,1.516c59.774,27.699,117.683,9.976,172.186-1.516
		c-39.384,26.704-72.545,26.704-72.545,26.704s110.339,3.085,155.456-4.143C1077.021,1537.729,929.155,1583.938,821.924,1519.264z"
		/>
	<path d="M124.583,821.924c-64.673-107.232-18.464-255.097-18.464-255.097c-7.228,45.117-4.143,155.456-4.143,155.456
		s0-33.161,26.704-72.545c-11.491,54.503-29.215,112.413-1.516,172.186c-27.699,59.774-9.976,117.683,1.516,172.186
		c-26.704-39.384-26.704-72.545-26.704-72.545s-3.085,110.339,4.143,155.456C106.119,1077.021,59.91,929.155,124.583,821.924z"/>
	<path d="M1302.948,193.164c47.67,29.018,10.36,58.036-62.185,18.658c0,0-78.182-50.39-134.144-106.351
		c0,0,270.948,149.884,347.635-42.887C1458.398,182.804,1396.219,207.679,1302.948,193.164z"/>
	<path d="M193.164,340.899c29.018-47.67,58.036-10.36,18.658,62.185c0,0-50.39,78.182-106.351,134.144
		c0,0,149.884-270.948-42.887-347.635C182.804,185.449,207.679,247.628,193.164,340.899z"/>
	<path d="M340.899,1450.683c-47.67-29.018-10.36-58.036,62.185-18.658c0,0,78.182,50.39,134.144,106.351
		c0,0-270.948-149.884-347.635,42.887C185.449,1461.043,247.628,1436.168,340.899,1450.683z"/>
	<path d="M1450.683,1302.948c-29.018,47.67-58.036,10.36-18.658-62.185c0,0,50.39-78.182,106.351-134.144
		c0,0-149.884,270.948,42.887,347.635C1461.043,1458.398,1436.168,1396.219,1450.683,1302.948z"/>
	<path d="M1450.683,340.899c-29.018-47.67-58.036-10.36-18.658,62.185c0,0,50.39,78.182,106.351,134.144
		c0,0-149.884-270.948,42.887-347.635C1461.043,185.449,1436.168,247.628,1450.683,340.899z"/>
	<path d="M340.899,193.164c-47.67,29.018-10.36,58.036,62.185,18.658c0,0,78.182-50.39,134.144-106.351
		c0,0-270.948,149.884-347.635-42.887C185.449,182.804,247.628,207.679,340.899,193.164z"/>
	<path d="M193.164,1302.948c29.018,47.67,58.036,10.36,18.658-62.185c0,0-50.39-78.182-106.351-134.144
		c0,0,149.884,270.948-42.887,347.635C182.804,1458.398,207.679,1396.219,193.164,1302.948z"/>
	<path d="M1302.948,1450.683c47.67-29.018,10.36-58.036-62.185-18.658c0,0-78.182,50.39-134.144,106.351
		c0,0,270.948-149.884,347.635,42.887C1458.398,1461.043,1396.219,1436.168,1302.948,1450.683z"/>
	<path d="M821.924,56.244c14.134-4.557,28.284-11.356,42.393-21.128c-13.244,11.22-27.536,20.29-42.393,27.578
		c-14.857-7.288-29.149-16.358-42.393-27.578C793.64,44.888,807.79,51.687,821.924,56.244z"/>
	<path d="M1587.603,821.924c4.557,14.134,11.356,28.284,21.128,42.393c-11.22-13.244-20.29-27.536-27.578-42.393
		c7.288-14.857,16.358-29.149,27.578-42.393C1598.959,793.64,1592.16,807.79,1587.603,821.924z"/>
	<path d="M821.924,1587.603c-14.134,4.557-28.283,11.356-42.393,21.128c13.244-11.22,27.536-20.29,42.393-27.578
		c14.857,7.288,29.149,16.358,42.393,27.578C850.207,1598.959,836.057,1592.16,821.924,1587.603z"/>
	<path d="M56.244,821.924c-4.557-14.134-11.356-28.283-21.128-42.393c11.22,13.244,20.29,27.536,27.578,42.393
		c-7.288,14.857-16.358,29.149-27.578,42.393C44.888,850.207,51.687,836.057,56.244,821.924z"/>
	<path d="M941.491,161.17c-60.457,28.462-46.151-40.03-106.25-29.843C835.241,131.327,902.25,105.657,941.491,161.17z"/>
	<path d="M161.17,702.356c28.462,60.457-40.03,46.151-29.843,106.25C131.327,808.606,105.657,741.597,161.17,702.356z"/>
	<path d="M702.356,1482.677c60.457-28.462,46.151,40.03,106.25,29.843C808.606,1512.52,741.597,1538.19,702.356,1482.677z"/>
	<path d="M1482.677,941.491c-28.462-60.457,40.03-46.151,29.843-106.25C1512.52,835.241,1538.19,902.25,1482.677,941.491z"/>
	<path d="M1482.677,702.356c-28.462,60.457,40.03,46.151,29.843,106.25C1512.52,808.606,1538.19,741.597,1482.677,702.356z"/>
	<path d="M702.356,161.17c60.457,28.462,46.151-40.03,106.25-29.843C808.606,131.327,741.597,105.657,702.356,161.17z"/>
	<path d="M161.17,941.491c28.462-60.457-40.03-46.151-29.843-106.25C131.327,835.241,105.657,902.25,161.17,941.491z"/>
	<path d="M941.491,1482.677c-60.457-28.462-46.151,40.03-106.25,29.843C835.241,1512.52,902.25,1538.19,941.491,1482.677z"/>
	<path d="M1498.866,81.301c-13.715,10.856-36.312,22.834-29.061-5.255c15.417-49.204,70.79-17.017,86.015,5.255
		C1522.611,42.819,1498.866,104.239,1498.866,81.301z"/>
	<path d="M81.301,144.981c10.856,13.715,22.834,36.312-5.255,29.061c-49.204-15.417-17.017-70.79,5.255-86.015
		C42.819,121.236,104.239,144.981,81.301,144.981z"/>
	<path d="M144.981,1562.547c13.715-10.856,36.312-22.834,29.061,5.255c-15.417,49.204-70.79,17.017-86.015-5.255
		C121.236,1601.028,144.981,1539.608,144.981,1562.547z"/>
	<path d="M1562.547,1498.866c-10.856-13.715-22.834-36.312,5.255-29.061c49.204,15.417,17.017,70.79-5.255,86.015
		C1601.028,1522.611,1539.608,1498.866,1562.547,1498.866z"/>
	<path d="M1562.547,144.981c-10.856,13.715-22.834,36.312,5.255,29.061c49.204-15.417,17.017-70.79-5.255-86.015
		C1601.028,121.236,1539.608,144.981,1562.547,144.981z"/>
	<path d="M144.981,81.301c13.715,10.856,36.312,22.834,29.061-5.255c-15.417-49.204-70.79-17.017-86.015,5.255
		C121.236,42.819,144.981,104.239,144.981,81.301z"/>
	<path d="M81.301,1498.866c10.856-13.715,22.834-36.312-5.255-29.061c-49.204,15.417-17.017,70.79,5.255,86.015
		C42.819,1522.611,104.239,1498.866,81.301,1498.866z"/>
	<path d="M1498.866,1562.547c-13.715-10.856-36.312-22.834-29.061,5.255c15.417,49.204,70.79,17.017,86.015-5.255
		C1522.611,1601.028,1498.866,1539.608,1498.866,1562.547z"/>
	<path d="M1575.264,68.583c-5.981,0.999-12.506,4.678-19.444,12.717c6.078-8.891,18.553-19.361,32.33-25.604
		c-6.243,13.777-16.713,26.253-25.604,32.33C1570.586,81.089,1574.265,74.565,1575.264,68.583z"/>
	<path d="M1575.264,1575.264c-0.999-5.981-4.678-12.506-12.717-19.444c8.891,6.078,19.361,18.553,25.604,32.33
		c-13.777-6.243-26.253-16.713-32.33-25.604C1562.758,1570.586,1569.282,1574.265,1575.264,1575.264z"/>
	<path d="M68.583,1575.264c5.981-0.999,12.506-4.678,19.444-12.717c-6.078,8.891-18.553,19.361-32.33,25.604
		c6.243-13.777,16.713-26.253,25.604-32.33C73.262,1562.758,69.582,1569.282,68.583,1575.264z"/>
	<path d="M68.583,68.583c0.999,5.981,4.678,12.506,12.717,19.444c-8.891-6.078-19.361-18.553-25.604-32.33
		c13.777,6.243,26.253,16.713,32.33,25.604C81.089,73.262,74.565,69.582,68.583,68.583z"/>
	<path d="M1463.083,180.765c-2.856-65.909,92.738-99.464,92.738-99.464c-29.556,11.968-70.064,44.531-78.977,83.826
		c-0.148,0.771-0.282,1.531-0.402,2.28c0.749-0.12,1.509-0.254,2.28-0.402c39.294-8.913,71.857-49.421,83.826-78.977
		C1562.547,88.027,1528.991,183.621,1463.083,180.765z"/>
	<path d="M1463.083,1463.083c65.909-2.856,99.464,92.738,99.464,92.738c-11.968-29.556-44.531-70.064-83.826-78.977
		c-0.771-0.148-1.531-0.282-2.28-0.402c0.12,0.749,0.254,1.509,0.402,2.28c8.913,39.294,49.421,71.857,78.977,83.826
		C1555.82,1562.547,1460.226,1528.991,1463.083,1463.083z"/>
	<path d="M180.765,1463.083c2.856,65.909-92.738,99.464-92.738,99.464c29.556-11.968,70.064-44.531,78.977-83.826
		c0.148-0.771,0.282-1.531,0.402-2.28c-0.749,0.12-1.509,0.254-2.28,0.402c-39.294,8.913-71.857,49.421-83.826,78.977
		C81.301,1555.82,114.856,1460.226,180.765,1463.083z"/>
	<path d="M180.765,180.765c-65.909,2.856-99.464-92.738-99.464-92.738c11.968,29.556,44.531,70.064,83.826,78.977
		c0.771,0.148,1.531,0.282,2.28,0.402c-0.12-0.749-0.254-1.509-0.402-2.28c-8.913-39.294-49.421-71.857-78.977-83.826
		C88.027,81.301,183.621,114.856,180.765,180.765z"/>
	<path d="M1560.514,83.333c-1.59-0.732-3.157-1.41-4.694-2.032c0,0,1.782,0.626,4.853,1.874c1.248,3.07,1.874,4.853,1.874,4.853
		C1561.924,86.49,1561.246,84.923,1560.514,83.333z"/>
	<path d="M1560.514,1560.514c0.732-1.59,1.41-3.157,2.032-4.694c0,0-0.626,1.782-1.874,4.853c-3.07,1.248-4.853,1.874-4.853,1.874
		C1557.357,1561.924,1558.924,1561.246,1560.514,1560.514z"/>
	<path d="M83.333,1560.514c1.59,0.732,3.157,1.41,4.694,2.032c0,0-1.782-0.626-4.853-1.874c-1.248-3.07-1.874-4.853-1.874-4.853
		C81.923,1557.357,82.601,1558.924,83.333,1560.514z"/>
	<path d="M83.333,83.333c-0.732,1.59-1.41,3.157-2.032,4.694c0,0,0.626-1.782,1.874-4.853c3.07-1.248,4.853-1.874,4.853-1.874
		C86.49,81.923,84.923,82.601,83.333,83.333z"/>
</g>
</svg>
