<?xml version="1.0" encoding="utf-8"?>

<!DOCTYPE svg PUBLIC "-//W3C//DTD SVG 1.1//EN" "http://www.w3.org/Graphics/SVG/1.1/DTD/svg11.dtd">
<svg version="1.1" id="Layer_1" xmlns="http://www.w3.org/2000/svg" xmlns:xlink="http://www.w3.org/1999/xlink" x="0px" y="0px"
	 viewBox="0 0 1656.511 1656.511" enable-background="new 0 0 1656.511 1656.511" xml:space="preserve">
<g>
	<path d="M1527.719,128.792c-44.814,18.774-93.242,45.104-135.109,11.18c-20.727-16.833-12.436-48.111,2.952-65.447
		c15.325-17.335,44.343-19.031,58.475-3.957c20.79,22.297-7.286,19.031-7.914,32.724c-0.502,9.924,13.064,20.601,24.747,9.924
		c17.335-15.89,18.717-38.69,1.005-60.485c-17.335-21.292-56.025-31.718-89.188-18.843c-33.226,12.939-57.973,34.231-59.48,71.351
		c-1.507,37.936,1.193,54.455,37.685,76.313c35.425,21.266,70.851,19.476,103.696,10.371
		c-9.105,32.846-10.894,68.271,10.371,103.696c21.857,36.492,38.376,39.193,76.313,37.685c37.12-1.507,58.412-26.254,71.351-59.48
		c12.876-33.163,2.449-71.853-18.843-89.189c-21.795-17.712-44.594-16.33-60.485,1.005c-10.677,11.682,0,25.249,9.924,24.747
		c13.693-0.628,10.427-28.704,32.724-7.914c15.074,14.132,13.378,43.15-3.957,58.475c-17.335,15.388-48.614,23.679-65.447,2.952
		C1482.615,222.034,1508.945,173.605,1527.719,128.792z"/>
	<path d="M128.792,1527.719c44.814-18.774,93.242-45.104,135.109-11.18c20.727,16.833,12.436,48.111-2.952,65.447
		c-15.325,17.335-44.343,19.031-58.475,3.957c-20.79-22.297,7.286-19.031,7.914-32.724c0.502-9.924-13.064-20.601-24.747-9.924
		c-17.335,15.891-18.717,38.69-1.005,60.485c17.335,21.292,56.025,31.718,89.189,18.843c33.226-12.939,57.973-34.231,59.48-71.351
		c1.507-37.936-1.193-54.455-37.685-76.313c-35.425-21.266-70.851-19.476-103.696-10.371c9.105-32.846,10.895-68.271-10.371-103.696
		c-21.857-36.492-38.376-39.193-76.313-37.685c-37.12,1.507-58.413,26.254-71.351,59.48c-12.876,33.163-2.449,71.853,18.843,89.188
		c21.795,17.712,44.595,16.33,60.485-1.005c10.678-11.682,0-25.249-9.924-24.747c-13.693,0.628-10.426,28.704-32.724,7.914
		c-15.074-14.132-13.378-43.15,3.957-58.475c17.335-15.388,48.614-23.679,65.447-2.952
		C173.895,1434.477,147.565,1482.905,128.792,1527.719z"/>
	<path d="M131.992,131.992c35.706,25.186,94.719,52.636,168.391,41.646c61.113-9.107,173.415-103.32,237.857-101.059
		C681.883,77.54,754.49,184.943,898.951,198.384c74.491,6.972,118.897-43.087,168.453-44.594
		c49.556-1.444,133.783,78.322,218.009,27.761c36.492-21.857,39.13-38.376,37.623-76.313c-1.507-37.12-26.254-58.413-59.48-71.351
		c-33.163-12.876-71.79-2.449-89.126,18.843c-17.775,21.795-16.393,44.595,0.942,60.485c11.745,10.678,25.312,0,24.809-9.924
		c-0.691-13.693-28.766-10.426-7.914-32.724c14.069-15.074,43.087-13.378,58.412,3.957c15.388,17.335,23.742,48.614,3.015,65.447
		c-59.982,48.551-133.28-26.317-190.248-25.814c-57.03,0.503-87.555,58.978-160.539,56.528
		c-132.527-4.522-218.01-122.917-370.635-123.859c-72.356-0.502-181.392,100.683-235.847,110.983
		c-103.094,19.478-168.767-33.29-192.395-53.779c20.489,23.628,73.257,89.301,53.779,192.395
		C147.509,350.881,46.324,459.917,46.826,532.273c0.942,152.625,119.337,238.108,123.859,370.635
		c2.45,72.984-56.025,103.509-56.528,160.539c-0.503,56.968,74.365,130.266,25.814,190.248
		c-16.833,20.727-48.111,12.373-65.447-3.015c-17.335-15.325-19.031-44.343-3.957-58.412c22.297-20.852,19.031,7.223,32.724,7.914
		c9.924,0.503,20.601-13.064,9.924-24.809c-15.89-17.335-38.69-18.717-60.485-0.942c-21.292,17.335-31.718,55.963-18.843,89.126
		c12.939,33.226,34.231,57.973,71.351,59.48c37.936,1.507,54.455-1.13,76.313-37.623c50.561-84.227-29.206-168.453-27.761-218.009
		c1.507-49.556,51.566-93.962,44.594-168.453C184.943,754.49,77.54,681.883,72.578,538.24
		c-2.261-64.442,91.952-176.744,101.059-237.857C184.628,226.711,157.178,167.698,131.992,131.992z"/>
	<path d="M1524.519,1524.519c-35.706-25.186-94.719-52.636-168.391-41.646c-61.113,9.107-173.415,103.32-237.857,101.059
		c-143.644-4.962-216.251-112.365-360.711-125.806c-74.491-6.972-118.897,43.087-168.453,44.594
		c-49.556,1.444-133.783-78.322-218.009-27.761c-36.492,21.857-39.13,38.376-37.623,76.313c1.507,37.12,26.254,58.412,59.48,71.351
		c33.163,12.876,71.79,2.449,89.126-18.843c17.775-21.795,16.393-44.594-0.942-60.485c-11.745-10.677-25.312,0-24.809,9.924
		c0.691,13.693,28.766,10.427,7.914,32.724c-14.069,15.074-43.087,13.378-58.412-3.957c-15.388-17.335-23.742-48.614-3.015-65.447
		c59.982-48.551,133.28,26.317,190.248,25.814c57.03-0.503,87.556-58.978,160.539-56.528
		c132.527,4.522,218.01,122.917,370.635,123.859c72.356,0.502,181.392-100.683,235.847-110.984
		c103.094-19.478,168.767,33.29,192.395,53.779c-20.489-23.628-73.257-89.301-53.779-192.395
		c10.301-54.455,111.486-163.491,110.984-235.847c-0.942-152.625-119.337-238.108-123.859-370.635
		c-2.45-72.984,56.025-103.509,56.528-160.539c0.503-56.968-74.365-130.266-25.814-190.248
		c16.833-20.727,48.111-12.373,65.447,3.015c17.335,15.325,19.031,44.343,3.957,58.412c-22.297,20.852-19.031-7.223-32.724-7.914
		c-9.924-0.502-20.601,13.064-9.924,24.809c15.891,17.335,38.69,18.717,60.485,0.942c21.292-17.335,31.718-55.963,18.843-89.126
		c-12.939-33.226-34.231-57.973-71.351-59.48c-37.936-1.507-54.455,1.13-76.313,37.623
		c-50.561,84.227,29.206,168.453,27.761,218.009c-1.507,49.556-51.566,93.962-44.594,168.453
		c13.441,144.46,120.844,217.067,125.806,360.711c2.261,64.442-91.952,176.744-101.059,237.857
		C1471.883,1429.8,1499.333,1488.813,1524.519,1524.519z"/>
	<path id="path6890_1_" d="M470.451,111.897c-25.626,15.388-27.51,27.008-26.442,53.576c1.005,26.129,18.403,41.077,41.768,50.122
		c23.302,9.044,50.436,1.758,62.62-13.19c12.436-15.325,11.494-31.342-0.691-42.459c-8.228-7.537-17.775,0-17.398,6.909
		c0.44,9.61,20.162,7.349,5.527,22.988c-9.861,10.615-30.274,9.421-41.014-2.764c-10.803-12.185-16.644-34.168-2.135-45.976
		c42.145-34.042,130.831,68.901,238.046,69.592c50.812,0.377,127.376-70.66,165.627-77.946
		c90.131-17.021,139.498,44.594,141.948,43.15c2.449-1.382-56.026-67.457-144.712-54.267
		c-42.898,6.407-121.786,72.544-167.072,70.974C625.651,189.151,529.617,76.409,470.451,111.897z"/>
	<path id="path6890_3_" d="M1186.06,1544.614c25.626-15.388,27.51-27.008,26.443-53.576c-1.005-26.129-18.403-41.077-41.768-50.122
		c-23.302-9.044-50.436-1.758-62.62,13.19c-12.436,15.325-11.494,31.342,0.691,42.459c8.228,7.537,17.775,0,17.398-6.909
		c-0.44-9.61-20.162-7.349-5.527-22.988c9.861-10.615,30.274-9.421,41.014,2.764c10.803,12.185,16.644,34.168,2.135,45.976
		c-42.145,34.042-130.831-68.901-238.045-69.592c-50.812-0.377-127.376,70.66-165.627,77.946
		c-90.131,17.021-139.498-44.594-141.948-43.15c-2.45,1.382,56.026,67.457,144.712,54.267
		c42.898-6.407,121.786-72.544,167.072-70.974C1030.859,1467.359,1126.894,1580.101,1186.06,1544.614z"/>
	<path id="path6890_2_" d="M1544.614,1186.06c-15.388,25.626-27.008,27.51-53.576,26.443c-26.129-1.005-41.077-18.403-50.122-41.768
		c-9.044-23.302-1.758-50.436,13.19-62.62c15.325-12.436,31.342-11.494,42.459,0.691c7.537,8.228,0,17.775-6.909,17.398
		c-9.61-0.44-7.349-20.162-22.988-5.527c-10.615,9.861-9.421,30.274,2.764,41.014c12.185,10.803,34.168,16.644,45.976,2.135
		c34.042-42.145-68.901-130.831-69.592-238.045c-0.377-50.812,70.66-127.376,77.946-165.627
		c17.021-90.131-44.594-139.498-43.15-141.948c1.382-2.45,67.457,56.026,54.267,144.712
		c-6.407,42.898-72.544,121.786-70.974,167.072C1467.359,1030.859,1580.101,1126.894,1544.614,1186.06z"/>
	<path id="path6890_4_" d="M111.897,470.451c15.388-25.626,27.008-27.51,53.576-26.442c26.129,1.005,41.077,18.403,50.122,41.768
		c9.044,23.302,1.758,50.436-13.19,62.62c-15.325,12.436-31.342,11.494-42.459-0.691c-7.537-8.228,0-17.775,6.909-17.398
		c9.61,0.44,7.349,20.162,22.988,5.527c10.615-9.861,9.421-30.274-2.764-41.014c-12.185-10.803-34.168-16.644-45.976-2.135
		c-34.042,42.145,68.901,130.831,69.592,238.046c0.377,50.812-70.66,127.376-77.946,165.627
		c-17.021,90.131,44.594,139.498,43.15,141.948c-1.382,2.449-67.457-56.026-54.267-144.712
		c6.407-42.898,72.544-121.786,70.974-167.072C189.151,625.651,76.409,529.617,111.897,470.451z"/>
</g>
</svg>
