<?xml version="1.0" encoding="utf-8"?>

<!DOCTYPE svg PUBLIC "-//W3C//DTD SVG 1.1//EN" "http://www.w3.org/Graphics/SVG/1.1/DTD/svg11.dtd">
<svg version="1.1" id="Layer_1" xmlns="http://www.w3.org/2000/svg" xmlns:xlink="http://www.w3.org/1999/xlink" x="0px" y="0px"
	 viewBox="0 0 1659.583 1659.583" enable-background="new 0 0 1659.583 1659.583" xml:space="preserve">
<g fill="darkblue">
	<path id="path3272" stroke="darkblue" stroke-width="1.113" stroke-linecap="round" stroke-linejoin="round" d="M1462.227,83.222
		c-8.828-4.984-21.473-7.353-21.664-21.8c-0.205-15.534,18.336-11.001,14.715,2.044C1452.37,73.942,1456.655,77.245,1462.227,83.222
		L1462.227,83.222z"/>
	<path id="path3272_6_" stroke="darkblue" stroke-width="1.113" stroke-linecap="round" stroke-linejoin="round" d="M83.222,197.356
		c-4.984,8.828-7.353,21.473-21.8,21.664c-15.534,0.205-11.001-18.336,2.044-14.715C73.942,207.213,77.245,202.928,83.222,197.356
		L83.222,197.356z"/>
	<path id="path3272_4_" stroke="darkblue" stroke-width="1.113" stroke-linecap="round" stroke-linejoin="round" d="
		M197.356,1576.361c8.828,4.984,21.473,7.353,21.664,21.8c0.205,15.534-18.336,11.001-14.715-2.044
		C207.213,1585.641,202.928,1582.338,197.356,1576.361L197.356,1576.361z"/>
	<path id="path3272_2_" stroke="darkblue" stroke-width="1.113" stroke-linecap="round" stroke-linejoin="round" d="
		M1576.361,1462.227c4.984-8.828,7.353-21.473,21.8-21.664c15.534-0.205,11.001,18.336-2.044,14.715
		C1585.641,1452.37,1582.338,1456.655,1576.361,1462.227L1576.361,1462.227z"/>
	<path id="path3272_1_" stroke="darkblue" stroke-width="1.113" stroke-linecap="round" stroke-linejoin="round" d="
		M1576.361,197.356c4.984,8.828,7.353,21.473,21.8,21.664c15.534,0.205,11.001-18.336-2.044-14.715
		C1585.641,207.213,1582.338,202.928,1576.361,197.356L1576.361,197.356z"/>
	<path id="path3272_7_" stroke="darkblue" stroke-width="1.113" stroke-linecap="round" stroke-linejoin="round" d="M197.356,83.222
		c8.828-4.984,21.473-7.353,21.664-21.8c0.205-15.534-18.336-11.001-14.715,2.044C207.213,73.942,202.928,77.245,197.356,83.222
		L197.356,83.222z"/>
	<path id="path3272_5_" stroke="darkblue" stroke-width="1.113" stroke-linecap="round" stroke-linejoin="round" d="M83.222,1462.227
		c-4.984-8.828-7.353-21.473-21.8-21.664c-15.534-0.205-11.001,18.336,2.044,14.715C73.942,1452.37,77.245,1456.655,83.222,1462.227
		L83.222,1462.227z"/>
	<path id="path3272_3_" stroke="darkblue" stroke-width="1.113" stroke-linecap="round" stroke-linejoin="round" d="
		M1462.227,1576.361c-8.828,4.984-21.473,7.353-21.664,21.8c-0.205,15.534,18.336,11.001,14.715-2.044
		C1452.37,1585.641,1456.655,1582.338,1462.227,1576.361L1462.227,1576.361z"/>
	<path id="path4042" stroke="darkblue" stroke-width="1.113" stroke-linecap="round" stroke-linejoin="round" d="M1437.154,66.595
		c-10.274-5.798-24.992-8.554-25.214-25.361c-0.239-18.072,21.341-12.798,17.127,2.378
		C1425.681,55.798,1430.669,59.641,1437.154,66.595L1437.154,66.595z"/>
	<path id="path4042_6_" stroke="darkblue" stroke-width="1.113" stroke-linecap="round" stroke-linejoin="round" d="M66.595,222.429
		c-5.798,10.274-8.554,24.992-25.361,25.214c-18.072,0.239-12.798-21.341,2.378-17.127
		C55.798,233.902,59.641,228.914,66.595,222.429L66.595,222.429z"/>
	<path id="path4042_4_" stroke="darkblue" stroke-width="1.113" stroke-linecap="round" stroke-linejoin="round" d="
		M222.429,1592.988c10.274,5.798,24.992,8.554,25.214,25.361c0.239,18.072-21.341,12.798-17.127-2.378
		C233.902,1603.785,228.914,1599.942,222.429,1592.988L222.429,1592.988z"/>
	<path id="path4042_2_" stroke="darkblue" stroke-width="1.113" stroke-linecap="round" stroke-linejoin="round" d="
		M1592.988,1437.154c5.798-10.274,8.554-24.992,25.361-25.214c18.072-0.239,12.798,21.341-2.378,17.127
		C1603.785,1425.681,1599.942,1430.669,1592.988,1437.154L1592.988,1437.154z"/>
	<path id="path4042_1_" stroke="darkblue" stroke-width="1.113" stroke-linecap="round" stroke-linejoin="round" d="
		M1592.988,222.429c5.798,10.274,8.554,24.992,25.361,25.214c18.072,0.239,12.798-21.341-2.378-17.127
		C1603.785,233.902,1599.942,228.914,1592.988,222.429L1592.988,222.429z"/>
	<path id="path4042_7_" stroke="darkblue" stroke-width="1.113" stroke-linecap="round" stroke-linejoin="round" d="M222.429,66.595
		c10.274-5.798,24.992-8.554,25.214-25.361c0.239-18.072-21.341-12.798-17.127,2.378C233.902,55.798,228.914,59.641,222.429,66.595
		L222.429,66.595z"/>
	<path id="path4042_5_" stroke="darkblue" stroke-width="1.113" stroke-linecap="round" stroke-linejoin="round" d="M66.595,1437.154
		c-5.798-10.274-8.554-24.992-25.361-25.214c-18.072-0.239-12.798,21.341,2.378,17.127
		C55.798,1425.681,59.641,1430.669,66.595,1437.154L66.595,1437.154z"/>
	<path id="path4042_3_" stroke="darkblue" stroke-width="1.113" stroke-linecap="round" stroke-linejoin="round" d="
		M1437.154,1592.988c-10.274,5.798-24.992,8.554-25.214,25.361c-0.239,18.072,21.341,12.798,17.127-2.378
		C1425.681,1603.785,1430.669,1599.942,1437.154,1592.988L1437.154,1592.988z"/>
	<path id="path4046" fill="none" stroke="darkblue" stroke-width="1.113" stroke-linecap="round" stroke-linejoin="round" d="
		M1557.149,136.588c1.447-1.544,16.656-5.504,15.782,10.175c-0.724,12.987-25.106,12.299-27.411-0.473
		c-1.047-5.801-0.243-12.693,5.475-18.101c10.01-9.468,26.965-6.214,33.902,4.587c9.229,14.368,1.385,36.385-13.118,46.579
		c-19.112,13.434-45.845,3.55-58.166-7c-5.33-4.26-10.304-8.056-14.95-11.436c-3.38-4.645-7.176-9.619-11.436-14.95
		c-10.549-12.321-20.433-39.053-7-58.166c10.194-14.503,32.211-22.347,46.579-13.118c10.801,6.937,14.055,23.892,4.587,33.902
		c-5.409,5.718-12.3,6.522-18.101,5.475c-12.771-2.305-13.46-26.687-0.473-27.411c15.679-0.874,11.719,14.335,10.175,15.782"/>
	<path fill="none" stroke="darkblue" stroke-width="1.113" stroke-linecap="round" stroke-linejoin="round" d="M1522.995,1557.149
		c1.544,1.447,5.505,16.656-10.175,15.782c-12.987-0.724-12.299-25.106,0.473-27.411c5.801-1.047,12.693-0.243,18.101,5.475
		c9.468,10.01,6.214,26.965-4.587,33.902c-14.368,9.229-36.385,1.385-46.579-13.118c-13.434-19.112-3.55-45.845,7-58.166
		c4.26-5.33,8.056-10.304,11.436-14.95c4.645-3.38,9.619-7.176,14.95-11.436c12.321-10.549,39.053-20.433,58.166-7
		c14.503,10.194,22.347,32.211,13.118,46.579c-6.937,10.801-23.892,14.055-33.902,4.587c-5.718-5.409-6.522-12.3-5.475-18.101
		c2.305-12.771,26.687-13.46,27.411-0.473c0.874,15.679-14.335,11.719-15.782,10.175"/>
	<path fill="none" stroke="darkblue" stroke-width="1.113" stroke-linecap="round" stroke-linejoin="round" d="M102.434,1522.995
		c-1.447,1.544-16.657,5.505-15.782-10.175c0.724-12.987,25.106-12.299,27.411,0.473c1.046,5.801,0.243,12.693-5.475,18.101
		c-10.01,9.468-26.965,6.214-33.902-4.587c-9.229-14.368-1.385-36.385,13.118-46.579c19.112-13.434,45.845-3.55,58.166,7
		c5.33,4.26,10.304,8.056,14.95,11.436c3.38,4.645,7.176,9.619,11.436,14.95c10.549,12.321,20.433,39.053,7,58.166
		c-10.194,14.503-32.212,22.347-46.579,13.118c-10.801-6.937-14.055-23.892-4.587-33.902c5.409-5.718,12.3-6.522,18.101-5.475
		c12.771,2.305,13.46,26.687,0.473,27.411c-15.679,0.874-11.719-14.335-10.175-15.782"/>
	<path fill="none" stroke="darkblue" stroke-width="1.113" stroke-linecap="round" stroke-linejoin="round" d="M136.588,102.434
		c-1.544-1.447-5.504-16.657,10.175-15.782c12.987,0.724,12.299,25.106-0.473,27.411c-5.801,1.046-12.693,0.243-18.101-5.475
		c-9.468-10.01-6.214-26.965,4.587-33.902c14.368-9.229,36.385-1.385,46.579,13.118c13.434,19.112,3.55,45.845-7,58.166
		c-4.26,5.33-8.056,10.304-11.436,14.95c-4.645,3.38-9.619,7.176-14.95,11.436c-12.321,10.549-39.053,20.433-58.166,7
		c-14.503-10.194-22.347-32.212-13.118-46.579c6.937-10.801,23.892-14.055,33.902-4.587c5.718,5.409,6.522,12.3,5.475,18.101
		c-2.305,12.771-26.687,13.46-27.411,0.473c-0.874-15.679,14.335-11.719,15.782-10.175"/>
	<path id="path4051" fill="none" stroke="darkblue" stroke-width="1.113" stroke-linecap="round" stroke-linejoin="round" d="
		M1458.156,125.489c-22.183,0.062-39.554,6.526-53.908,11.369c-6.205,2.114-53.14,7.85-71.47-16.687
		c-15.193-20.347-19.86-44.859,0.315-61.504c12.966-10.698,35.492-7.354,43.889,8.648c4.797,9.14,2.887,18.044-0.853,24.809
		c-8.232,14.894-38.697,5.431-34.12-11.013c5.526-19.853,22.68-8.496,23.82-5.964"/>
	<path id="path4051_6_" fill="none" stroke="darkblue" stroke-width="1.113" stroke-linecap="round" stroke-linejoin="round" d="
		M125.489,201.427c0.062,22.183,6.526,39.554,11.369,53.908c2.114,6.205,7.85,53.14-16.687,71.47
		c-20.347,15.193-44.859,19.86-61.504-0.315c-10.698-12.966-7.354-35.492,8.648-43.889c9.14-4.797,18.044-2.887,24.809,0.853
		c14.894,8.232,5.431,38.697-11.013,34.12c-19.853-5.526-8.496-22.68-5.964-23.82"/>
	<path id="path4051_4_" fill="none" stroke="darkblue" stroke-width="1.113" stroke-linecap="round" stroke-linejoin="round" d="
		M201.427,1534.094c22.183-0.062,39.554-6.526,53.908-11.369c6.205-2.114,53.14-7.85,71.47,16.687
		c15.193,20.347,19.86,44.859-0.315,61.504c-12.966,10.698-35.492,7.354-43.889-8.648c-4.797-9.14-2.887-18.044,0.853-24.809
		c8.232-14.894,38.697-5.431,34.12,11.013c-5.526,19.853-22.68,8.496-23.82,5.964"/>
	<path id="path4051_2_" fill="none" stroke="darkblue" stroke-width="1.113" stroke-linecap="round" stroke-linejoin="round" d="
		M1534.094,1458.156c-0.062-22.183-6.526-39.554-11.369-53.908c-2.114-6.205-7.85-53.14,16.687-71.47
		c20.347-15.193,44.859-19.86,61.504,0.315c10.698,12.966,7.354,35.492-8.648,43.889c-9.14,4.797-18.044,2.887-24.809-0.853
		c-14.894-8.232-5.431-38.697,11.013-34.12c19.853,5.526,8.496,22.68,5.964,23.82"/>
	<path id="path4051_1_" fill="none" stroke="darkblue" stroke-width="1.113" stroke-linecap="round" stroke-linejoin="round" d="
		M1534.094,201.427c-0.062,22.183-6.526,39.554-11.369,53.908c-2.114,6.205-7.85,53.14,16.687,71.47
		c20.347,15.193,44.859,19.86,61.504-0.315c10.698-12.966,7.354-35.492-8.648-43.889c-9.14-4.797-18.044-2.887-24.809,0.853
		c-14.894,8.232-5.431,38.697,11.013,34.12c19.853-5.526,8.496-22.68,5.964-23.82"/>
	<path id="path4051_7_" fill="none" stroke="darkblue" stroke-width="1.113" stroke-linecap="round" stroke-linejoin="round" d="
		M201.427,125.489c22.183,0.062,39.554,6.526,53.908,11.369c6.205,2.114,53.14,7.85,71.47-16.687
		c15.193-20.347,19.86-44.859-0.315-61.504c-12.966-10.698-35.492-7.354-43.889,8.648c-4.797,9.14-2.887,18.044,0.853,24.809
		c8.232,14.894,38.697,5.431,34.12-11.013c-5.526-19.853-22.68-8.496-23.82-5.964"/>
	<path id="path4051_5_" fill="none" stroke="darkblue" stroke-width="1.113" stroke-linecap="round" stroke-linejoin="round" d="
		M125.489,1458.156c0.062-22.183,6.526-39.554,11.369-53.908c2.114-6.205,7.85-53.14-16.687-71.47
		c-20.347-15.193-44.859-19.86-61.504,0.315c-10.698,12.966-7.354,35.492,8.648,43.889c9.14,4.797,18.044,2.887,24.809-0.853
		c14.894-8.232,5.431-38.697-11.013-34.12c-19.853,5.526-8.496,22.68-5.964,23.82"/>
	<path id="path4051_3_" fill="none" stroke="darkblue" stroke-width="1.113" stroke-linecap="round" stroke-linejoin="round" d="
		M1458.156,1534.094c-22.183-0.062-39.554-6.526-53.908-11.369c-6.205-2.114-53.14-7.85-71.47,16.687
		c-15.193,20.347-19.86,44.859,0.315,61.504c12.966,10.698,35.492,7.354,43.889-8.648c4.797-9.14,2.887-18.044-0.853-24.809
		c-8.232-14.894-38.697-5.431-34.12,11.013c5.526,19.853,22.68,8.496,23.82,5.964"/>
	<path id="path4053" fill="none" stroke="darkblue" stroke-width="1.113" stroke-linecap="round" stroke-linejoin="round" d="
		M1472.467,126.988c-6.368-0.568-12.357-0.721-18.09,0.614c-13.358,4.348-21.324,8.179-28.676,17.29
		c-11.614,14.391-7.436,38.914,8.432,46.995c11.929,6.075,28.871,0.064,32.866-13.751c2.282-7.891-0.632-14.527-4.632-19.203
		c-8.806-10.296-31.065,1.946-24.864,14.034c7.486,14.593,19.056,3,19.541,0.845"/>
	<path id="path4053_6_" fill="none" stroke="darkblue" stroke-width="1.113" stroke-linecap="round" stroke-linejoin="round" d="
		M126.988,187.116c-0.568,6.368-0.721,12.357,0.614,18.09c4.348,13.358,8.179,21.324,17.29,28.676
		c14.391,11.614,38.914,7.436,46.995-8.432c6.075-11.929,0.064-28.871-13.751-32.866c-7.891-2.282-14.527,0.632-19.203,4.632
		c-10.296,8.806,1.946,31.065,14.034,24.864c14.593-7.486,3-19.056,0.845-19.541"/>
	<path id="path4053_4_" fill="none" stroke="darkblue" stroke-width="1.113" stroke-linecap="round" stroke-linejoin="round" d="
		M187.116,1532.595c6.368,0.568,12.357,0.721,18.09-0.614c13.358-4.348,21.324-8.179,28.676-17.29
		c11.614-14.391,7.436-38.914-8.432-46.995c-11.929-6.075-28.871-0.064-32.866,13.75c-2.282,7.891,0.632,14.527,4.632,19.203
		c8.806,10.296,31.065-1.946,24.864-14.034c-7.486-14.594-19.056-3-19.541-0.845"/>
	<path id="path4053_2_" fill="none" stroke="darkblue" stroke-width="1.113" stroke-linecap="round" stroke-linejoin="round" d="
		M1532.595,1472.467c0.568-6.368,0.721-12.357-0.614-18.09c-4.348-13.358-8.179-21.324-17.29-28.676
		c-14.391-11.614-38.914-7.436-46.995,8.432c-6.075,11.929-0.064,28.871,13.75,32.866c7.891,2.282,14.527-0.632,19.203-4.632
		c10.296-8.806-1.946-31.065-14.034-24.864c-14.594,7.486-3,19.056-0.845,19.541"/>
	<path id="path4053_1_" fill="none" stroke="darkblue" stroke-width="1.113" stroke-linecap="round" stroke-linejoin="round" d="
		M1532.595,187.116c0.568,6.368,0.721,12.357-0.614,18.09c-4.348,13.358-8.179,21.324-17.29,28.676
		c-14.391,11.614-38.914,7.436-46.995-8.432c-6.075-11.929-0.064-28.871,13.75-32.866c7.891-2.282,14.527,0.632,19.203,4.632
		c10.296,8.806-1.946,31.065-14.034,24.864c-14.594-7.486-3-19.056-0.845-19.541"/>
	<path id="path4053_7_" fill="none" stroke="darkblue" stroke-width="1.113" stroke-linecap="round" stroke-linejoin="round" d="
		M187.116,126.988c6.368-0.568,12.357-0.721,18.09,0.614c13.358,4.348,21.324,8.179,28.676,17.29
		c11.614,14.391,7.436,38.914-8.432,46.995c-11.929,6.075-28.871,0.064-32.866-13.751c-2.282-7.891,0.632-14.527,4.632-19.203
		c8.806-10.296,31.065,1.946,24.864,14.034c-7.486,14.593-19.056,3-19.541,0.845"/>
	<path id="path4053_5_" fill="none" stroke="darkblue" stroke-width="1.113" stroke-linecap="round" stroke-linejoin="round" d="
		M126.988,1472.467c-0.568-6.368-0.721-12.357,0.614-18.09c4.348-13.358,8.179-21.324,17.29-28.676
		c14.391-11.614,38.914-7.436,46.995,8.432c6.075,11.929,0.064,28.871-13.751,32.866c-7.891,2.282-14.527-0.632-19.203-4.632
		c-10.296-8.806,1.946-31.065,14.034-24.864c14.593,7.486,3,19.056,0.845,19.541"/>
	<path id="path4053_3_" fill="none" stroke="darkblue" stroke-width="1.113" stroke-linecap="round" stroke-linejoin="round" d="
		M1472.467,1532.595c-6.368,0.568-12.357,0.721-18.09-0.614c-13.358-4.348-21.324-8.179-28.676-17.29
		c-11.614-14.391-7.436-38.914,8.432-46.995c11.929-6.075,28.871-0.064,32.866,13.75c2.282,7.891-0.632,14.527-4.632,19.203
		c-8.806,10.296-31.065-1.946-24.864-14.034c7.486-14.594,19.056-3,19.541-0.845"/>
	<path id="path4059" fill="none" stroke="darkblue" stroke-width="1.113" stroke-linecap="round" stroke-linejoin="round" d="
		M1099.897,163.282c-36.345,3.542-67.267-1.405-76.931-14.992c-15.198-21.369,6.191-58.595,46.759-26.072
		c9.699,7.776,30.872,27.176,44.93,23.626c13.198-3.332,20.396-20.704,14.872-32.547c-4.153-8.903-16.725-13.135-25.342-7.007
		c-4.922,3.5-6.256,8.636-6.067,13.138c0.416,9.912,18.915,12.975,20.827,3.214c2.309-11.784-9.69-10.369-10.954-9.351"/>
	<path id="path4059_6_" fill="none" stroke="darkblue" stroke-width="1.113" stroke-linecap="round" stroke-linejoin="round" d="
		M163.282,559.686c3.542,36.345-1.405,67.267-14.992,76.931c-21.369,15.198-58.595-6.191-26.072-46.76
		c7.776-9.699,27.176-30.872,23.626-44.93c-3.332-13.198-20.704-20.396-32.547-14.872c-8.903,4.153-13.135,16.725-7.007,25.342
		c3.5,4.922,8.636,6.256,13.138,6.067c9.912-0.416,12.975-18.915,3.214-20.827c-11.784-2.309-10.369,9.69-9.351,10.954"/>
	<path id="path4059_4_" fill="none" stroke="darkblue" stroke-width="1.113" stroke-linecap="round" stroke-linejoin="round" d="
		M559.686,1496.301c36.345-3.542,67.267,1.405,76.931,14.992c15.198,21.369-6.191,58.595-46.76,26.072
		c-9.699-7.776-30.872-27.176-44.93-23.626c-13.198,3.332-20.396,20.704-14.872,32.547c4.153,8.903,16.725,13.135,25.342,7.007
		c4.922-3.5,6.256-8.636,6.067-13.138c-0.416-9.912-18.915-12.975-20.827-3.214c-2.309,11.784,9.69,10.369,10.954,9.351"/>
	<path id="path4059_2_" fill="none" stroke="darkblue" stroke-width="1.113" stroke-linecap="round" stroke-linejoin="round" d="
		M1496.301,1099.897c-3.542-36.345,1.405-67.267,14.992-76.931c21.369-15.198,58.595,6.191,26.072,46.759
		c-7.776,9.699-27.176,30.872-23.626,44.93c3.332,13.198,20.704,20.396,32.547,14.872c8.903-4.153,13.135-16.725,7.007-25.342
		c-3.5-4.922-8.636-6.256-13.138-6.067c-9.912,0.416-12.975,18.915-3.214,20.827c11.784,2.309,10.369-9.69,9.351-10.954"/>
	<path id="path4059_1_" fill="none" stroke="darkblue" stroke-width="1.113" stroke-linecap="round" stroke-linejoin="round" d="
		M1496.301,559.686c-3.542,36.345,1.405,67.267,14.992,76.931c21.369,15.198,58.595-6.191,26.072-46.76
		c-7.776-9.699-27.176-30.872-23.626-44.93c3.332-13.198,20.704-20.396,32.547-14.872c8.903,4.153,13.135,16.725,7.007,25.342
		c-3.5,4.922-8.636,6.256-13.138,6.067c-9.912-0.416-12.975-18.915-3.214-20.827c11.784-2.309,10.369,9.69,9.351,10.954"/>
	<path id="path4059_7_" fill="none" stroke="darkblue" stroke-width="1.113" stroke-linecap="round" stroke-linejoin="round" d="
		M559.686,163.282c36.345,3.542,67.267-1.405,76.931-14.992c15.198-21.369-6.191-58.595-46.76-26.072
		c-9.699,7.776-30.872,27.176-44.93,23.626c-13.198-3.332-20.396-20.704-14.872-32.547c4.153-8.903,16.725-13.135,25.342-7.007
		c4.922,3.5,6.256,8.636,6.067,13.138c-0.416,9.912-18.915,12.975-20.827,3.214c-2.309-11.784,9.69-10.369,10.954-9.351"/>
	<path id="path4059_5_" fill="none" stroke="darkblue" stroke-width="1.113" stroke-linecap="round" stroke-linejoin="round" d="
		M163.282,1099.897c3.542-36.345-1.405-67.267-14.992-76.931c-21.369-15.198-58.595,6.191-26.072,46.759
		c7.776,9.699,27.176,30.872,23.626,44.93c-3.332,13.198-20.704,20.396-32.547,14.872c-8.903-4.153-13.135-16.725-7.007-25.342
		c3.5-4.922,8.636-6.256,13.138-6.067c9.912,0.416,12.975,18.915,3.214,20.827c-11.784,2.309-10.369-9.69-9.351-10.954"/>
	<path id="path4059_3_" fill="none" stroke="darkblue" stroke-width="1.113" stroke-linecap="round" stroke-linejoin="round" d="
		M1099.897,1496.301c-36.345-3.542-67.267,1.405-76.931,14.992c-15.198,21.369,6.191,58.595,46.759,26.072
		c9.699-7.776,30.872-27.176,44.93-23.626c13.198,3.332,20.396,20.704,14.872,32.547c-4.153,8.903-16.725,13.135-25.342,7.007
		c-4.922-3.5-6.256-8.636-6.067-13.138c0.416-9.912,18.915-12.975,20.827-3.214c2.309,11.784-9.69,10.369-10.954,9.351"/>
	<path id="path4061" fill="none" stroke="darkblue" stroke-width="1.113" stroke-linecap="round" stroke-linejoin="round" d="
		M1011.488,145.763c-51.139-3.332-86.117-5.023-108.106-20.534c-7.163-5.053-7.022-16.243-1.817-20.927
		c3.859-3.473,12.366-2.525,15.291,2.97c1.671,3.139,1.006,6.196-0.297,8.519c-2.869,5.115-13.483,1.865-11.888-3.782
		c1.925-6.818,7.902-2.917,8.299-2.048"/>
	<path id="path4061_6_" fill="none" stroke="darkblue" stroke-width="1.113" stroke-linecap="round" stroke-linejoin="round" d="
		M145.763,648.095c-3.332,51.139-5.023,86.117-20.534,108.106c-5.053,7.163-16.243,7.022-20.927,1.817
		c-3.473-3.859-2.525-12.365,2.97-15.291c3.139-1.671,6.196-1.006,8.519,0.297c5.115,2.869,1.865,13.483-3.782,11.888
		c-6.818-1.925-2.917-7.902-2.048-8.299"/>
	<path id="path4061_4_" fill="none" stroke="darkblue" stroke-width="1.113" stroke-linecap="round" stroke-linejoin="round" d="
		M648.095,1513.82c51.139,3.332,86.117,5.023,108.106,20.534c7.163,5.053,7.022,16.243,1.817,20.927
		c-3.859,3.473-12.365,2.525-15.291-2.97c-1.671-3.139-1.006-6.196,0.297-8.519c2.869-5.115,13.483-1.865,11.888,3.782
		c-1.925,6.818-7.902,2.917-8.299,2.048"/>
	<path id="path4061_2_" fill="none" stroke="darkblue" stroke-width="1.113" stroke-linecap="round" stroke-linejoin="round" d="
		M1513.82,1011.488c3.332-51.139,5.023-86.117,20.534-108.106c5.053-7.163,16.243-7.022,20.927-1.817
		c3.473,3.859,2.525,12.366-2.97,15.291c-3.139,1.671-6.196,1.006-8.519-0.297c-5.115-2.869-1.865-13.483,3.782-11.888
		c6.818,1.925,2.917,7.902,2.048,8.299"/>
	<path id="path4061_1_" fill="none" stroke="darkblue" stroke-width="1.113" stroke-linecap="round" stroke-linejoin="round" d="
		M1513.82,648.095c3.332,51.139,5.023,86.117,20.534,108.106c5.053,7.163,16.243,7.022,20.927,1.817
		c3.473-3.859,2.525-12.365-2.97-15.291c-3.139-1.671-6.196-1.006-8.519,0.297c-5.115,2.869-1.865,13.483,3.782,11.888
		c6.818-1.925,2.917-7.902,2.048-8.299"/>
	<path id="path4061_7_" fill="none" stroke="darkblue" stroke-width="1.113" stroke-linecap="round" stroke-linejoin="round" d="
		M648.095,145.763c51.139-3.332,86.117-5.023,108.106-20.534c7.163-5.053,7.022-16.243,1.817-20.927
		c-3.859-3.473-12.365-2.525-15.291,2.97c-1.671,3.139-1.006,6.196,0.297,8.519c2.869,5.115,13.483,1.865,11.888-3.782
		c-1.925-6.818-7.902-2.917-8.299-2.048"/>
	<path id="path4061_5_" fill="none" stroke="darkblue" stroke-width="1.113" stroke-linecap="round" stroke-linejoin="round" d="
		M145.763,1011.488c-3.332-51.139-5.023-86.117-20.534-108.106c-5.053-7.163-16.243-7.022-20.927-1.817
		c-3.473,3.859-2.525,12.366,2.97,15.291c3.139,1.671,6.196,1.006,8.519-0.297c5.115-2.869,1.865-13.483-3.782-11.888
		c-6.818,1.925-2.917,7.902-2.048,8.299"/>
	<path id="path4061_3_" fill="none" stroke="darkblue" stroke-width="1.113" stroke-linecap="round" stroke-linejoin="round" d="
		M1011.488,1513.82c-51.139,3.332-86.117,5.023-108.106,20.534c-7.163,5.053-7.022,16.243-1.817,20.927
		c3.859,3.473,12.366,2.525,15.291-2.97c1.671-3.139,1.006-6.196-0.297-8.519c-2.869-5.115-13.483-1.865-11.888,3.782
		c1.925,6.818,7.902,2.917,8.299,2.048"/>
	<path id="path4093" fill="none" stroke="darkblue" stroke-width="1.113" stroke-linecap="round" d="M1506.193,789.215
		c-0.44-104.406,20.063-265.513,30.519-291.026c75.437-213.818,41.213-323.108-13.899-361.419
		c-38.311-55.112-147.602-89.336-361.419-13.899c-25.513,10.456-186.62,30.959-291.026,30.519"/>
	<path fill="none" stroke="darkblue" stroke-width="1.113" stroke-linecap="round" d="M870.367,1506.193
		c104.406-0.44,265.513,20.063,291.026,30.519c213.818,75.437,323.108,41.213,361.419-13.899
		c55.112-38.311,89.336-147.602,13.899-361.419c-10.456-25.513-30.959-186.62-30.519-291.026"/>
	<path fill="none" stroke="darkblue" stroke-width="1.113" stroke-linecap="round" d="M153.39,870.367
		c0.44,104.406-20.063,265.513-30.519,291.026c-75.437,213.818-41.213,323.108,13.899,361.419
		c38.311,55.112,147.602,89.336,361.419,13.899c25.513-10.456,186.62-30.959,291.026-30.519"/>
	<path fill="none" stroke="darkblue" stroke-width="1.113" stroke-linecap="round" d="M789.215,153.39
		c-104.406,0.44-265.513-20.063-291.026-30.519C284.372,47.434,175.081,81.658,136.77,136.77
		c-55.112,38.311-89.336,147.602-13.899,361.419c10.456,25.513,30.959,186.62,30.519,291.026"/>
	<path id="path4095" fill="none" stroke="darkblue" stroke-width="1.113" stroke-linecap="round" d="M1421.868,151.411
		c-7.08,8.848-17.426,16.485-24.858,18.112"/>
	<path id="path4095_6_" fill="none" stroke="darkblue" stroke-width="1.113" stroke-linecap="round" d="M151.411,237.715
		c8.848,7.08,16.485,17.426,18.112,24.858"/>
	<path id="path4095_4_" fill="none" stroke="darkblue" stroke-width="1.113" stroke-linecap="round" d="M237.715,1508.172
		c7.08-8.848,17.426-16.485,24.858-18.112"/>
	<path id="path4095_2_" fill="none" stroke="darkblue" stroke-width="1.113" stroke-linecap="round" d="M1508.172,1421.868
		c-8.848-7.08-16.485-17.426-18.112-24.858"/>
	<path id="path4095_1_" fill="none" stroke="darkblue" stroke-width="1.113" stroke-linecap="round" d="M1508.172,237.715
		c-8.848,7.08-16.485,17.426-18.112,24.858"/>
	<path id="path4095_7_" fill="none" stroke="darkblue" stroke-width="1.113" stroke-linecap="round" d="M237.715,151.411
		c7.08,8.848,17.426,16.485,24.858,18.112"/>
	<path id="path4095_5_" fill="none" stroke="darkblue" stroke-width="1.113" stroke-linecap="round" d="M151.411,1421.868
		c8.848-7.08,16.485-17.426,18.112-24.858"/>
	<path id="path4095_3_" fill="none" stroke="darkblue" stroke-width="1.113" stroke-linecap="round" d="M1421.868,1508.172
		c-7.08-8.848-17.426-16.485-24.858-18.112"/>
	<path id="path4097" fill="none" stroke="darkblue" stroke-width="1.113" d="M1457.947,125.493
		c22.395,0.916,40.506,9.826,52.973,23.171c13.345,12.466,22.255,30.578,23.171,52.973"/>
	<path fill="none" stroke="darkblue" stroke-width="1.113" d="M1534.09,1457.947c-0.916,22.395-9.826,40.506-23.171,52.973
		c-12.466,13.345-30.578,22.255-52.973,23.171"/>
	<path fill="none" stroke="darkblue" stroke-width="1.113" d="M201.636,1534.09c-22.395-0.916-40.506-9.826-52.973-23.171
		c-13.345-12.466-22.255-30.578-23.171-52.973"/>
	<path fill="none" stroke="darkblue" stroke-width="1.113" d="M125.493,201.636c0.916-22.395,9.826-40.506,23.171-52.973
		c12.466-13.345,30.578-22.255,52.973-23.171"/>
	<path id="path4099" fill="none" stroke="darkblue" stroke-width="1.113" stroke-linecap="round" d="M1300.482,191.103
		c26.742-102.369,164.876-115.17,217.831-49.834c65.336,52.956,52.535,191.089-49.834,217.831"/>
	<path fill="none" stroke="darkblue" stroke-width="1.113" stroke-linecap="round" d="M1468.479,1300.482
		c102.369,26.742,115.17,164.876,49.834,217.831c-52.956,65.336-191.089,52.535-217.831-49.834"/>
	<path fill="none" stroke="darkblue" stroke-width="1.113" stroke-linecap="round" d="M359.1,1468.479
		c-26.742,102.369-164.876,115.17-217.831,49.834c-65.336-52.956-52.535-191.089,49.834-217.831"/>
	<path fill="none" stroke="darkblue" stroke-width="1.113" stroke-linecap="round" d="M191.103,359.1
		c-102.369-26.742-115.17-164.876-49.834-217.831c52.956-65.336,191.089-52.535,217.831,49.834"/>
	<path id="path4101" stroke="darkblue" stroke-width="1.113" d="M1517.008,142.574c-61.229-82.305-183.376-23.519-191.481,1.322
		c-49.194,30.133-119.287,22.169-128.663-20.22c-5.575-25.21,18.018-78.266,64.307-43.174c-30.51-38.71-72.974,1.067-72.04,26.652
		c1.702,46.626,54.31,79.546,134.47,38.861c10.913-17.465,134.746-76.351,192.413-2.446c73.904,57.667,15.018,181.5-2.446,192.413
		c-40.685,80.16-7.765,132.768,38.861,134.47c25.586,0.935,65.362-41.529,26.652-72.04c35.092,46.289-17.965,69.882-43.174,64.306
		c-42.389-9.376-50.353-79.469-20.22-128.663C1540.527,325.951,1599.313,203.804,1517.008,142.574z"/>
	<path stroke="darkblue" stroke-width="1.113" d="M1517.008,1517.008c82.305-61.229,23.519-183.376-1.322-191.481
		c-30.133-49.194-22.169-119.287,20.22-128.663c25.21-5.575,78.266,18.018,43.174,64.307c38.71-30.51-1.067-72.974-26.652-72.04
		c-46.626,1.702-79.546,54.31-38.861,134.47c17.465,10.913,76.351,134.746,2.446,192.413c-57.667,73.904-181.5,15.018-192.413-2.446
		c-80.16-40.685-132.768-7.765-134.47,38.861c-0.935,25.586,41.529,65.362,72.04,26.652c-46.289,35.092-69.882-17.965-64.307-43.174
		c9.376-42.389,79.469-50.353,128.663-20.22C1333.632,1540.527,1455.779,1599.313,1517.008,1517.008z"/>
	<path stroke="darkblue" stroke-width="1.113" d="M142.574,1517.008c61.229,82.305,183.376,23.519,191.481-1.322
		c49.194-30.133,119.287-22.169,128.663,20.22c5.575,25.21-18.018,78.266-64.306,43.174c30.51,38.71,72.974-1.067,72.04-26.652
		c-1.702-46.626-54.31-79.546-134.47-38.861c-10.913,17.465-134.746,76.351-192.413,2.446
		c-73.904-57.667-15.018-181.5,2.446-192.413c40.685-80.16,7.765-132.768-38.861-134.47c-25.586-0.935-65.362,41.529-26.652,72.04
		c-35.092-46.289,17.965-69.882,43.174-64.307c42.389,9.376,50.353,79.469,20.22,128.663
		C119.055,1333.632,60.27,1455.779,142.574,1517.008z"/>
	<path stroke="darkblue" stroke-width="1.113" d="M142.574,142.574c-82.305,61.229-23.519,183.376,1.322,191.481
		c30.133,49.194,22.169,119.287-20.22,128.663c-25.21,5.575-78.266-18.018-43.174-64.306c-38.71,30.51,1.067,72.974,26.652,72.04
		c46.626-1.702,79.546-54.31,38.861-134.47c-17.465-10.913-76.351-134.746-2.446-192.413c57.667-73.904,181.5-15.018,192.413,2.446
		c80.16,40.685,132.768,7.765,134.47-38.861c0.935-25.586-41.529-65.362-72.04-26.652c46.289-35.092,69.882,17.965,64.306,43.174
		c-9.376,42.389-79.469,50.353-128.663,20.22C325.951,119.055,203.804,60.27,142.574,142.574z"/>
	<path id="path4103" fill="none" stroke="darkblue" stroke-width="1.113" d="M1441.907,87.438
		c-50.661-3.875-115.513-2.147-270.462,57.073c-44.186,16.887-113.468,21.424-134.956,43.894"/>
	<path id="path4103_6_" fill="none" stroke="darkblue" stroke-width="1.113" d="M87.438,217.676
		c-3.875,50.661-2.147,115.513,57.073,270.462c16.887,44.186,21.424,113.468,43.894,134.956"/>
	<path id="path4103_4_" fill="none" stroke="darkblue" stroke-width="1.113" d="M217.676,1572.144
		c50.661,3.875,115.513,2.147,270.462-57.073c44.186-16.887,113.468-21.424,134.956-43.894"/>
	<path id="path4103_2_" fill="none" stroke="darkblue" stroke-width="1.113" d="M1572.144,1441.907
		c3.875-50.661,2.147-115.513-57.073-270.462c-16.887-44.186-21.424-113.468-43.894-134.956"/>
	<path id="path4103_1_" fill="none" stroke="darkblue" stroke-width="1.113" d="M1572.144,217.676
		c3.875,50.661,2.147,115.513-57.073,270.462c-16.887,44.186-21.424,113.468-43.894,134.956"/>
	<path id="path4103_7_" fill="none" stroke="darkblue" stroke-width="1.113" d="M217.676,87.438
		c50.661-3.875,115.513-2.147,270.462,57.073c44.186,16.887,113.468,21.424,134.956,43.894"/>
	<path id="path4103_5_" fill="none" stroke="darkblue" stroke-width="1.113" d="M87.438,1441.907
		c-3.875-50.661-2.147-115.513,57.073-270.462c16.887-44.186,21.424-113.468,43.894-134.956"/>
	<path id="path4103_3_" fill="none" stroke="darkblue" stroke-width="1.113" d="M1441.907,1572.144
		c-50.661,3.875-115.513,2.147-270.462-57.073c-44.186-16.887-113.468-21.424-134.956-43.894"/>
	<path id="path4105" fill="none" stroke="darkblue" stroke-width="1.113" stroke-linecap="round" d="M1310.25,99.777
		c-61.935,29.503-96.708,53.954-114.259,77.048"/>
	<path id="path4105_6_" fill="none" stroke="darkblue" stroke-width="1.113" stroke-linecap="round" d="M99.777,349.333
		c29.503,61.935,53.954,96.708,77.048,114.259"/>
	<path id="path4105_4_" fill="none" stroke="darkblue" stroke-width="1.113" stroke-linecap="round" d="M349.333,1559.806
		c61.935-29.503,96.708-53.954,114.259-77.048"/>
	<path id="path4105_2_" fill="none" stroke="darkblue" stroke-width="1.113" stroke-linecap="round" d="M1559.806,1310.25
		c-29.503-61.935-53.954-96.708-77.048-114.259"/>
	<path id="path4105_1_" fill="none" stroke="darkblue" stroke-width="1.113" stroke-linecap="round" d="M1559.806,349.333
		c-29.503,61.935-53.954,96.708-77.048,114.259"/>
	<path id="path4105_7_" fill="none" stroke="darkblue" stroke-width="1.113" stroke-linecap="round" d="M349.333,99.777
		c61.935,29.503,96.708,53.954,114.259,77.048"/>
	<path id="path4105_5_" fill="none" stroke="darkblue" stroke-width="1.113" stroke-linecap="round" d="M99.777,1310.25
		c29.503-61.935,53.954-96.708,77.048-114.259"/>
	<path id="path4105_3_" fill="none" stroke="darkblue" stroke-width="1.113" stroke-linecap="round" d="M1310.25,1559.806
		c-61.935-29.503-96.708-53.954-114.259-77.048"/>
	<g id="g4113" transform="matrix(.99727 -.073871 .073871 .99727 -13.873 -1.5805)">
		<path id="path4107" stroke="darkblue" stroke-width="1.113" stroke-linecap="round" stroke-linejoin="round" d="M1319.336,316.33
			c0.931-7.34-2.854-15.962-21.602-22.366C1299.857,314.632,1314.399,318.826,1319.336,316.33z"/>
		<path id="path4107_6_" stroke="darkblue" stroke-width="1.113" stroke-linecap="round" stroke-linejoin="round" d="
			M204.852,352.029c-7.34-0.931-15.962,2.854-22.366,21.602C203.155,371.507,207.349,356.966,204.852,352.029z"/>
		<path id="path4107_4_" stroke="darkblue" stroke-width="1.113" stroke-linecap="round" stroke-linejoin="round" d="
			M240.551,1466.512c-0.931,7.34,2.854,15.962,21.602,22.366C260.03,1468.209,245.488,1464.015,240.551,1466.512z"/>
		<path id="path4107_2_" stroke="darkblue" stroke-width="1.113" stroke-linecap="round" stroke-linejoin="round" d="
			M1355.035,1430.813c7.34,0.931,15.962-2.854,22.366-21.602C1356.732,1411.334,1352.538,1425.876,1355.035,1430.813z"/>
		<path id="path4107_1_" stroke="darkblue" stroke-width="1.113" stroke-linecap="round" stroke-linejoin="round" d="
			M1428.231,442.648c7.397,0.161,15.367,5.175,18.939,24.662C1427.04,462.164,1425.034,447.163,1428.231,442.648z"/>
		<path id="path4107_7_" stroke="darkblue" stroke-width="1.113" stroke-linecap="round" stroke-linejoin="round" d="
			M331.171,243.133c0.161-7.397,5.175-15.367,24.662-18.939C350.687,244.324,335.686,246.33,331.171,243.133z"/>
		<path id="path4107_5_" stroke="darkblue" stroke-width="1.113" stroke-linecap="round" stroke-linejoin="round" d="
			M131.656,1340.193c-7.397-0.161-15.367-5.175-18.939-24.662C132.847,1320.677,134.853,1335.678,131.656,1340.193z"/>
		<path id="path4107_3_" stroke="darkblue" stroke-width="1.113" stroke-linecap="round" stroke-linejoin="round" d="
			M1228.716,1539.708c-0.161,7.397-5.175,15.367-24.662,18.939C1209.2,1538.518,1224.201,1536.511,1228.716,1539.708z"/>
		<path id="path4109" stroke="darkblue" stroke-width="1.113" d="M1293.775,309.491c10.622,23.429,7.033,41.526-3.571,39.692
			C1277.724,347.443,1280.992,328.126,1293.775,309.491L1293.775,309.491z"/>
		<path id="path4109_6_" stroke="darkblue" stroke-width="1.113" d="M198.014,377.59c23.429-10.622,41.526-7.033,39.692,3.571
			C235.965,393.64,216.648,390.372,198.014,377.59L198.014,377.59z"/>
		<path id="path4109_4_" stroke="darkblue" stroke-width="1.113" d="M266.112,1473.35c-10.622-23.429-7.033-41.526,3.571-39.692
			C282.163,1435.399,278.895,1454.716,266.112,1473.35L266.112,1473.35z"/>
		<path id="path4109_2_" stroke="darkblue" stroke-width="1.113" d="M1361.873,1405.252c-23.429,10.622-41.526,7.033-39.692-3.571
			C1323.922,1389.201,1343.239,1392.469,1361.873,1405.252L1361.873,1405.252z"/>
		<path id="path4109_1_" stroke="darkblue" stroke-width="1.113" d="M1431.229,468.938c-21.609-13.958-40.036-13.075-39.785-2.316
			C1391.327,479.222,1410.914,478.836,1431.229,468.938L1431.229,468.938z"/>
		<path id="path4109_7_" stroke="darkblue" stroke-width="1.113" d="M357.461,240.136c-13.958,21.609-13.075,40.036-2.316,39.785
			C367.745,280.037,367.358,260.45,357.461,240.136L357.461,240.136z"/>
		<path id="path4109_5_" stroke="darkblue" stroke-width="1.113" d="M128.658,1313.904c21.609,13.958,40.036,13.075,39.785,2.316
			C168.56,1303.62,148.973,1304.006,128.658,1313.904L128.658,1313.904z"/>
		<path id="path4109_3_" stroke="darkblue" stroke-width="1.113" d="M1202.426,1542.706c13.958-21.609,13.075-40.036,2.316-39.785
			C1192.142,1502.804,1192.529,1522.391,1202.426,1542.706L1202.426,1542.706z"/>
		<path id="path4111" stroke="darkblue" stroke-width="1.113" stroke-linecap="round" stroke-linejoin="round" d="M1267.048,312.762
			c0.159-7.397,5.172-15.367,24.658-18.942C1286.564,313.95,1271.563,315.958,1267.048,312.762z"/>
		<path id="path4111_6_" stroke="darkblue" stroke-width="1.113" stroke-linecap="round" stroke-linejoin="round" d="
			M201.284,404.316c-7.397-0.159-15.367-5.171-18.942-24.658C202.472,384.8,204.481,399.801,201.284,404.316z"/>
		<path id="path4111_4_" stroke="darkblue" stroke-width="1.113" stroke-linecap="round" stroke-linejoin="round" d="
			M292.839,1470.08c-0.159,7.397-5.171,15.367-24.658,18.942C273.323,1468.892,288.324,1466.883,292.839,1470.08z"/>
		<path id="path4111_2_" stroke="darkblue" stroke-width="1.113" stroke-linecap="round" stroke-linejoin="round" d="
			M1358.603,1378.525c7.397,0.159,15.367,5.172,18.942,24.658C1357.415,1398.041,1355.406,1383.041,1358.603,1378.525z"/>
		<path id="path4111_1_" stroke="darkblue" stroke-width="1.113" stroke-linecap="round" stroke-linejoin="round" d="
			M1424.056,494.891c7.339,0.932,15.961-2.851,22.368-21.598C1425.757,475.413,1421.56,489.954,1424.056,494.891z"/>
		<path id="path4111_7_" stroke="darkblue" stroke-width="1.113" stroke-linecap="round" stroke-linejoin="round" d="
			M383.414,247.308c0.932-7.339-2.851-15.961-21.598-22.368C363.936,245.607,378.477,249.804,383.414,247.308z"/>
		<path id="path4111_5_" stroke="darkblue" stroke-width="1.113" stroke-linecap="round" stroke-linejoin="round" d="
			M135.831,1287.95c-7.339-0.932-15.961,2.851-22.368,21.598C134.13,1307.428,138.327,1292.888,135.831,1287.95z"/>
		<path id="path4111_3_" stroke="darkblue" stroke-width="1.113" stroke-linecap="round" stroke-linejoin="round" d="
			M1176.473,1535.533c-0.932,7.339,2.851,15.961,21.598,22.368C1195.951,1537.234,1181.41,1533.037,1176.473,1535.533z"/>
	</g>
	<path id="path4126" fill="none" stroke="darkblue" stroke-width="1.113" d="M972.557,162.656l22.21-15.532"/>
	<path id="path4126_6_" fill="none" stroke="darkblue" stroke-width="1.113" d="M162.656,687.026l-15.532-22.21"/>
	<path id="path4126_4_" fill="none" stroke="darkblue" stroke-width="1.113" d="M687.026,1496.926l-22.21,15.532"/>
	<path id="path4126_2_" fill="none" stroke="darkblue" stroke-width="1.113" d="M1496.926,972.557l15.532,22.21"/>
	<path id="path4126_1_" fill="none" stroke="darkblue" stroke-width="1.113" d="M1496.926,687.026l15.532-22.21"/>
	<path id="path4126_7_" fill="none" stroke="darkblue" stroke-width="1.113" d="M687.026,162.656l-22.21-15.532"/>
	<path id="path4126_5_" fill="none" stroke="darkblue" stroke-width="1.113" d="M162.656,972.557l-15.532,22.21"/>
	<path id="path4126_3_" fill="none" stroke="darkblue" stroke-width="1.113" d="M972.557,1496.926l22.21,15.532"/>
	<path id="path4128" stroke="darkblue" stroke-width="1.113" stroke-linecap="round" stroke-linejoin="round" d="M970.088,156.796
		c8.623-0.048,9.547,1.017,7.63,8.311c-16.223,15.471-37.816,28.615-42.101,50.14c-3.032-5.276-10.107-11.301,9.946-31.064
		c-9.383,3.254-17.419,12.15-26.433,16.622c-3.377,1.676-15.467,1.1-19.892,1.362c3.072-4.306,12.002-14.308,14.987-15.805
		c8.093-4.057,18.033-6.465,24.253-11.445c-26.579,5.909-29.978-5.868-30.519-9.674C921.442,170.316,939.79,170.899,970.088,156.796
		L970.088,156.796z"/>
	<path id="path4128_6_" stroke="darkblue" stroke-width="1.113" stroke-linecap="round" stroke-linejoin="round" d="M156.796,689.494
		c-0.048-8.623,1.017-9.547,8.311-7.63c15.471,16.223,28.615,37.817,50.14,42.101c-5.276,3.032-11.301,10.107-31.064-9.946
		c3.254,9.383,12.15,17.419,16.622,26.433c1.676,3.377,1.1,15.467,1.362,19.892c-4.306-3.072-14.308-12.002-15.805-14.987
		c-4.057-8.093-6.465-18.033-11.445-24.253c5.909,26.579-5.868,29.978-9.674,30.519
		C170.316,738.141,170.899,719.793,156.796,689.494L156.796,689.494z"/>
	<path id="path4128_4_" stroke="darkblue" stroke-width="1.113" stroke-linecap="round" stroke-linejoin="round" d="
		M689.494,1502.786c-8.623,0.047-9.547-1.017-7.63-8.311c16.223-15.471,37.817-28.615,42.101-50.14
		c3.032,5.276,10.107,11.301-9.946,31.065c9.383-3.254,17.419-12.15,26.433-16.623c3.377-1.676,15.467-1.1,19.892-1.362
		c-3.072,4.306-12.002,14.308-14.987,15.805c-8.093,4.057-18.033,6.465-24.253,11.445c26.579-5.909,29.978,5.868,30.519,9.674
		C738.141,1489.267,719.793,1488.684,689.494,1502.786L689.494,1502.786z"/>
	<path id="path4128_2_" stroke="darkblue" stroke-width="1.113" stroke-linecap="round" stroke-linejoin="round" d="
		M1502.786,970.088c0.047,8.623-1.017,9.547-8.311,7.63c-15.471-16.223-28.615-37.816-50.14-42.101
		c5.276-3.032,11.301-10.107,31.065,9.946c-3.254-9.383-12.15-17.419-16.623-26.433c-1.676-3.377-1.1-15.467-1.362-19.892
		c4.306,3.072,14.308,12.002,15.805,14.987c4.057,8.093,6.465,18.033,11.445,24.253c-5.909-26.579,5.868-29.978,9.674-30.519
		C1489.267,921.442,1488.684,939.79,1502.786,970.088L1502.786,970.088z"/>
	<path id="path4128_1_" stroke="darkblue" stroke-width="1.113" stroke-linecap="round" stroke-linejoin="round" d="
		M1502.786,689.494c0.047-8.623-1.017-9.547-8.311-7.63c-15.471,16.223-28.615,37.817-50.14,42.101
		c5.276,3.032,11.301,10.107,31.065-9.946c-3.254,9.383-12.15,17.419-16.623,26.433c-1.676,3.377-1.1,15.467-1.362,19.892
		c4.306-3.072,14.308-12.002,15.805-14.987c4.057-8.093,6.465-18.033,11.445-24.253c-5.909,26.579,5.868,29.978,9.674,30.519
		C1489.267,738.141,1488.684,719.793,1502.786,689.494L1502.786,689.494z"/>
	<path id="path4128_7_" stroke="darkblue" stroke-width="1.113" stroke-linecap="round" stroke-linejoin="round" d="M689.494,156.796
		c-8.623-0.048-9.547,1.017-7.63,8.311c16.223,15.471,37.817,28.615,42.101,50.14c3.032-5.276,10.107-11.301-9.946-31.064
		c9.383,3.254,17.419,12.15,26.433,16.622c3.377,1.676,15.467,1.1,19.892,1.362c-3.072-4.306-12.002-14.308-14.987-15.805
		c-8.093-4.057-18.033-6.465-24.253-11.445c26.579,5.909,29.978-5.868,30.519-9.674
		C738.141,170.316,719.793,170.899,689.494,156.796L689.494,156.796z"/>
	<path id="path4128_5_" stroke="darkblue" stroke-width="1.113" stroke-linecap="round" stroke-linejoin="round" d="M156.796,970.088
		c-0.048,8.623,1.017,9.547,8.311,7.63c15.471-16.223,28.615-37.816,50.14-42.101c-5.276-3.032-11.301-10.107-31.064,9.946
		c3.254-9.383,12.15-17.419,16.622-26.433c1.676-3.377,1.1-15.467,1.362-19.892c-4.306,3.072-14.308,12.002-15.805,14.987
		c-4.057,8.093-6.465,18.033-11.445,24.253c5.909-26.579-5.868-29.978-9.674-30.519C170.316,921.442,170.899,939.79,156.796,970.088
		L156.796,970.088z"/>
	<path id="path4128_3_" stroke="darkblue" stroke-width="1.113" stroke-linecap="round" stroke-linejoin="round" d="
		M970.088,1502.786c8.623,0.047,9.547-1.017,7.63-8.311c-16.223-15.471-37.816-28.615-42.101-50.14
		c-3.032,5.276-10.107,11.301,9.946,31.065c-9.383-3.254-17.419-12.15-26.433-16.623c-3.377-1.676-15.467-1.1-19.892-1.362
		c3.072,4.306,12.002,14.308,14.987,15.805c8.093,4.057,18.033,6.465,24.253,11.445c-26.579-5.909-29.978,5.868-30.519,9.674
		C921.442,1489.267,939.79,1488.684,970.088,1502.786L970.088,1502.786z"/>
	<path id="path4142" stroke="darkblue" stroke-width="1.113" d="M1036.797,188.134c2.911,9.154-1.51,19.717-11.377,18.394
		c-0.659,1.204-0.675,2.855-0.749,3.883c14.899-0.903,12.566,12.907,6.302,16.861c-3.81,2.062-2.218,13.841-2.691,20.54
		c-13.681-8.352-9.453-15.211-8.856-22.753c-0.206-4.374-5.651-4.985-6.54,0.545c-0.624,8.252-0.896,16.71-13.897,17.713
		c-5.471,0.161-10.997,0.081-15.941,2.521c0.809-3.578,2.573-5.213,1.499-14.783c-0.486-5.232,4.259-18.58,15.805-15.26
		c3.777,0.05,6.83-5.866,1.635-7.63c-8.497,0.34-17.597,2.683-22.617-8.447c6.462,0.234,13.966,3.835,22.617-4.087
		c7.247-8.828,17.452,0.027,13.761,7.494c1.146,0.196,2.965,0.143,4.292-0.204C1018.895,190.353,1028.199,186.732,1036.797,188.134
		L1036.797,188.134z"/>
	<path id="path4142_6_" stroke="darkblue" stroke-width="1.113" d="M188.134,622.786c9.154-2.911,19.717,1.51,18.394,11.377
		c1.204,0.659,2.855,0.675,3.883,0.749c-0.903-14.899,12.907-12.566,16.861-6.302c2.062,3.81,13.841,2.218,20.54,2.691
		c-8.352,13.681-15.211,9.453-22.753,8.856c-4.374,0.206-4.985,5.652,0.545,6.54c8.252,0.624,16.71,0.896,17.713,13.897
		c0.161,5.471,0.081,10.997,2.521,15.941c-3.578-0.809-5.213-2.573-14.783-1.499c-5.232,0.486-18.58-4.259-15.26-15.805
		c0.05-3.777-5.866-6.83-7.63-1.635c0.34,8.497,2.683,17.597-8.447,22.617c0.234-6.462,3.835-13.966-4.087-22.617
		c-8.828-7.248,0.027-17.452,7.494-13.761c0.196-1.146,0.143-2.965-0.204-4.292C190.353,640.688,186.732,631.383,188.134,622.786
		L188.134,622.786z"/>
	<path id="path4142_4_" stroke="darkblue" stroke-width="1.113" d="M622.786,1471.449c-2.911-9.154,1.51-19.717,11.377-18.394
		c0.659-1.203,0.675-2.854,0.749-3.883c-14.899,0.903-12.566-12.907-6.302-16.861c3.81-2.062,2.218-13.841,2.691-20.54
		c13.681,8.352,9.453,15.211,8.856,22.753c0.206,4.374,5.652,4.985,6.54-0.545c0.624-8.252,0.896-16.71,13.897-17.713
		c5.471-0.161,10.997-0.081,15.941-2.521c-0.809,3.578-2.573,5.214-1.499,14.783c0.486,5.232-4.259,18.58-15.805,15.26
		c-3.777-0.05-6.83,5.866-1.635,7.63c8.497-0.34,17.597-2.683,22.617,8.448c-6.462-0.234-13.966-3.835-22.617,4.087
		c-7.248,8.828-17.452-0.027-13.761-7.494c-1.146-0.196-2.965-0.143-4.292,0.204C640.688,1469.23,631.383,1472.851,622.786,1471.449
		L622.786,1471.449z"/>
	<path id="path4142_2_" stroke="darkblue" stroke-width="1.113" d="M1471.449,1036.797c-9.154,2.911-19.717-1.51-18.394-11.377
		c-1.203-0.659-2.854-0.675-3.883-0.749c0.903,14.899-12.907,12.566-16.861,6.302c-2.062-3.81-13.841-2.218-20.54-2.691
		c8.352-13.681,15.211-9.453,22.753-8.856c4.374-0.206,4.985-5.651-0.545-6.54c-8.252-0.624-16.71-0.896-17.713-13.897
		c-0.161-5.471-0.081-10.997-2.521-15.941c3.578,0.809,5.214,2.573,14.783,1.499c5.232-0.486,18.58,4.259,15.26,15.805
		c-0.05,3.777,5.866,6.83,7.63,1.635c-0.34-8.497-2.683-17.597,8.448-22.617c-0.234,6.462-3.835,13.966,4.087,22.617
		c8.828,7.247-0.027,17.452-7.494,13.761c-0.196,1.146-0.143,2.965,0.204,4.292
		C1469.23,1018.895,1472.851,1028.199,1471.449,1036.797L1471.449,1036.797z"/>
	<path id="path4142_1_" stroke="darkblue" stroke-width="1.113" d="M1471.449,622.786c-9.154-2.911-19.717,1.51-18.394,11.377
		c-1.203,0.659-2.854,0.675-3.883,0.749c0.903-14.899-12.907-12.566-16.861-6.302c-2.062,3.81-13.841,2.218-20.54,2.691
		c8.352,13.681,15.211,9.453,22.753,8.856c4.374,0.206,4.985,5.652-0.545,6.54c-8.252,0.624-16.71,0.896-17.713,13.897
		c-0.161,5.471-0.081,10.997-2.521,15.941c3.578-0.809,5.214-2.573,14.783-1.499c5.232,0.486,18.58-4.259,15.26-15.805
		c-0.05-3.777,5.866-6.83,7.63-1.635c-0.34,8.497-2.683,17.597,8.448,22.617c-0.234-6.462-3.835-13.966,4.087-22.617
		c8.828-7.248-0.027-17.452-7.494-13.761c-0.196-1.146-0.143-2.965,0.204-4.292C1469.23,640.688,1472.851,631.383,1471.449,622.786
		L1471.449,622.786z"/>
	<path id="path4142_7_" stroke="darkblue" stroke-width="1.113" d="M622.786,188.134c-2.911,9.154,1.51,19.717,11.377,18.394
		c0.659,1.204,0.675,2.855,0.749,3.883c-14.899-0.903-12.566,12.907-6.302,16.861c3.81,2.062,2.218,13.841,2.691,20.54
		c13.681-8.352,9.453-15.211,8.856-22.753c0.206-4.374,5.652-4.985,6.54,0.545c0.624,8.252,0.896,16.71,13.897,17.713
		c5.471,0.161,10.997,0.081,15.941,2.521c-0.809-3.578-2.573-5.213-1.499-14.783c0.486-5.232-4.259-18.58-15.805-15.26
		c-3.777,0.05-6.83-5.866-1.635-7.63c8.497,0.34,17.597,2.683,22.617-8.447c-6.462,0.234-13.966,3.835-22.617-4.087
		c-7.248-8.828-17.452,0.027-13.761,7.494c-1.146,0.196-2.965,0.143-4.292-0.204C640.688,190.353,631.383,186.732,622.786,188.134
		L622.786,188.134z"/>
	<path id="path4142_5_" stroke="darkblue" stroke-width="1.113" d="M188.134,1036.797c9.154,2.911,19.717-1.51,18.394-11.377
		c1.204-0.659,2.855-0.675,3.883-0.749c-0.903,14.899,12.907,12.566,16.861,6.302c2.062-3.81,13.841-2.218,20.54-2.691
		c-8.352-13.681-15.211-9.453-22.753-8.856c-4.374-0.206-4.985-5.651,0.545-6.54c8.252-0.624,16.71-0.896,17.713-13.897
		c0.161-5.471,0.081-10.997,2.521-15.941c-3.578,0.809-5.213,2.573-14.783,1.499c-5.232-0.486-18.58,4.259-15.26,15.805
		c0.05,3.777-5.866,6.83-7.63,1.635c0.34-8.497,2.683-17.597-8.447-22.617c0.234,6.462,3.835,13.966-4.087,22.617
		c-8.828,7.247,0.027,17.452,7.494,13.761c0.196,1.146,0.143,2.965-0.204,4.292C190.353,1018.895,186.732,1028.199,188.134,1036.797
		L188.134,1036.797z"/>
	<path id="path4142_3_" stroke="darkblue" stroke-width="1.113" d="M1036.797,1471.449c2.911-9.154-1.51-19.717-11.377-18.394
		c-0.659-1.203-0.675-2.854-0.749-3.883c14.899,0.903,12.566-12.907,6.302-16.861c-3.81-2.062-2.218-13.841-2.691-20.54
		c-13.681,8.352-9.453,15.211-8.856,22.753c-0.206,4.374-5.651,4.985-6.54-0.545c-0.624-8.252-0.896-16.71-13.897-17.713
		c-5.471-0.161-10.997-0.081-15.941-2.521c0.809,3.578,2.573,5.214,1.499,14.783c-0.486,5.232,4.259,18.58,15.805,15.26
		c3.777-0.05,6.83,5.866,1.635,7.63c-8.497-0.34-17.597-2.683-22.617,8.448c6.462-0.234,13.966-3.835,22.617,4.087
		c7.247,8.828,17.452-0.027,13.761-7.494c1.146-0.196,2.965-0.143,4.292,0.204
		C1018.895,1469.23,1028.199,1472.851,1036.797,1471.449L1036.797,1471.449z"/>
	<path id="path4144" stroke="darkblue" stroke-width="1.113" d="M1397.712,169.714c-4.282,8.599-14.81,13.104-20.972,5.285
		c-1.311,0.406-2.471,1.58-3.241,2.266c11.325,9.723,0.036,18.014-7.213,16.491c-4.171-1.172-11.227,8.393-16.23,12.872
		c-4.007-15.52,3.803-17.501,9.481-22.5c2.898-3.284-0.587-7.513-5.074-4.161c-6.192,5.49-12.275,11.372-22.306,3.042
		c-4.039-3.693-7.951-7.597-13.199-9.287c3.071-2.005,5.476-1.952,11.367-9.57c3.293-4.094,15.992-10.374,21.969,0.047
		c2.677,2.665,8.987,0.543,6.485-4.339c-6.337-5.671-14.502-10.324-10.357-21.809c4.477,4.666,7.358,12.475,19.083,12.81
		c11.348-1.292,12.51,12.168,4.663,14.959c0.687,0.938,2.029,2.167,3.224,2.841C1383.315,158.845,1392.516,162.722,1397.712,169.714
		L1397.712,169.714z"/>
	<path id="path4144_6_" stroke="darkblue" stroke-width="1.113" d="M169.714,261.871c8.599,4.282,13.104,14.81,5.285,20.972
		c0.406,1.311,1.58,2.471,2.266,3.241c9.723-11.325,18.014-0.036,16.491,7.213c-1.172,4.171,8.393,11.227,12.872,16.23
		c-15.52,4.007-17.501-3.803-22.5-9.481c-3.284-2.897-7.513,0.587-4.161,5.074c5.49,6.192,11.372,12.275,3.042,22.306
		c-3.693,4.039-7.597,7.951-9.287,13.199c-2.005-3.071-1.952-5.476-9.57-11.367c-4.094-3.293-10.374-15.992,0.047-21.969
		c2.665-2.677,0.543-8.987-4.339-6.485c-5.671,6.337-10.324,14.502-21.809,10.357c4.666-4.477,12.475-7.357,12.81-19.083
		c-1.292-11.348,12.168-12.51,14.959-4.663c0.938-0.686,2.167-2.029,2.841-3.223C158.845,276.268,162.722,267.067,169.714,261.871
		L169.714,261.871z"/>
	<path id="path4144_4_" stroke="darkblue" stroke-width="1.113" d="M261.871,1489.869c4.282-8.599,14.81-13.104,20.972-5.285
		c1.311-0.406,2.471-1.58,3.241-2.266c-11.325-9.723-0.036-18.014,7.213-16.491c4.171,1.172,11.227-8.393,16.23-12.873
		c4.007,15.52-3.803,17.5-9.481,22.5c-2.897,3.284,0.587,7.513,5.074,4.161c6.192-5.49,12.275-11.372,22.306-3.042
		c4.039,3.693,7.951,7.597,13.199,9.287c-3.071,2.005-5.476,1.952-11.367,9.57c-3.293,4.094-15.992,10.374-21.969-0.047
		c-2.677-2.665-8.987-0.543-6.485,4.339c6.337,5.671,14.502,10.324,10.357,21.809c-4.477-4.666-7.357-12.475-19.083-12.81
		c-11.348,1.292-12.51-12.168-4.663-14.959c-0.686-0.938-2.029-2.167-3.223-2.841
		C276.268,1500.738,267.067,1496.86,261.871,1489.869L261.871,1489.869z"/>
	<path id="path4144_2_" stroke="darkblue" stroke-width="1.113" d="M1489.869,1397.712c-8.599-4.282-13.104-14.81-5.285-20.972
		c-0.406-1.311-1.58-2.471-2.266-3.241c-9.723,11.325-18.014,0.036-16.491-7.213c1.172-4.171-8.393-11.227-12.873-16.23
		c15.52-4.007,17.5,3.803,22.5,9.481c3.284,2.898,7.513-0.587,4.161-5.074c-5.49-6.192-11.372-12.275-3.042-22.306
		c3.693-4.039,7.597-7.951,9.287-13.199c2.005,3.071,1.952,5.476,9.57,11.367c4.094,3.293,10.374,15.992-0.047,21.969
		c-2.665,2.677-0.543,8.987,4.339,6.485c5.671-6.337,10.324-14.502,21.809-10.357c-4.666,4.477-12.475,7.358-12.81,19.083
		c1.292,11.348-12.168,12.51-14.959,4.663c-0.938,0.687-2.167,2.029-2.841,3.224
		C1500.738,1383.315,1496.86,1392.516,1489.869,1397.712L1489.869,1397.712z"/>
	<path id="path4144_1_" stroke="darkblue" stroke-width="1.113" d="M1489.869,261.871c-8.599,4.282-13.104,14.81-5.285,20.972
		c-0.406,1.311-1.58,2.471-2.266,3.241c-9.723-11.325-18.014-0.036-16.491,7.213c1.172,4.171-8.393,11.227-12.873,16.23
		c15.52,4.007,17.5-3.803,22.5-9.481c3.284-2.897,7.513,0.587,4.161,5.074c-5.49,6.192-11.372,12.275-3.042,22.306
		c3.693,4.039,7.597,7.951,9.287,13.199c2.005-3.071,1.952-5.476,9.57-11.367c4.094-3.293,10.374-15.992-0.047-21.969
		c-2.665-2.677-0.543-8.987,4.339-6.485c5.671,6.337,10.324,14.502,21.809,10.357c-4.666-4.477-12.475-7.357-12.81-19.083
		c1.292-11.348-12.168-12.51-14.959-4.663c-0.938-0.686-2.167-2.029-2.841-3.223C1500.738,276.268,1496.86,267.067,1489.869,261.871
		L1489.869,261.871z"/>
	<path id="path4144_7_" stroke="darkblue" stroke-width="1.113" d="M261.871,169.714c4.282,8.599,14.81,13.104,20.972,5.285
		c1.311,0.406,2.471,1.58,3.241,2.266c-11.325,9.723-0.036,18.014,7.213,16.491c4.171-1.172,11.227,8.393,16.23,12.872
		c4.007-15.52-3.803-17.501-9.481-22.5c-2.897-3.284,0.587-7.513,5.074-4.161c6.192,5.49,12.275,11.372,22.306,3.042
		c4.039-3.693,7.951-7.597,13.199-9.287c-3.071-2.005-5.476-1.952-11.367-9.57c-3.293-4.094-15.992-10.374-21.969,0.047
		c-2.677,2.665-8.987,0.543-6.485-4.339c6.337-5.671,14.502-10.324,10.357-21.809c-4.477,4.666-7.357,12.475-19.083,12.81
		c-11.348-1.292-12.51,12.168-4.663,14.959c-0.686,0.938-2.029,2.167-3.223,2.841C276.268,158.845,267.067,162.722,261.871,169.714
		L261.871,169.714z"/>
	<path id="path4144_5_" stroke="darkblue" stroke-width="1.113" d="M169.714,1397.712c8.599-4.282,13.104-14.81,5.285-20.972
		c0.406-1.311,1.58-2.471,2.266-3.241c9.723,11.325,18.014,0.036,16.491-7.213c-1.172-4.171,8.393-11.227,12.872-16.23
		c-15.52-4.007-17.501,3.803-22.5,9.481c-3.284,2.898-7.513-0.587-4.161-5.074c5.49-6.192,11.372-12.275,3.042-22.306
		c-3.693-4.039-7.597-7.951-9.287-13.199c-2.005,3.071-1.952,5.476-9.57,11.367c-4.094,3.293-10.374,15.992,0.047,21.969
		c2.665,2.677,0.543,8.987-4.339,6.485c-5.671-6.337-10.324-14.502-21.809-10.357c4.666,4.477,12.475,7.358,12.81,19.083
		c-1.292,11.348,12.168,12.51,14.959,4.663c0.938,0.687,2.167,2.029,2.841,3.224
		C158.845,1383.315,162.722,1392.516,169.714,1397.712L169.714,1397.712z"/>
	<path id="path4144_3_" stroke="darkblue" stroke-width="1.113" d="M1397.712,1489.869c-4.282-8.599-14.81-13.104-20.972-5.285
		c-1.311-0.406-2.471-1.58-3.241-2.266c11.325-9.723,0.036-18.014-7.213-16.491c-4.171,1.172-11.227-8.393-16.23-12.873
		c-4.007,15.52,3.803,17.5,9.481,22.5c2.898,3.284-0.587,7.513-5.074,4.161c-6.192-5.49-12.275-11.372-22.306-3.042
		c-4.039,3.693-7.951,7.597-13.199,9.287c3.071,2.005,5.476,1.952,11.367,9.57c3.293,4.094,15.992,10.374,21.969-0.047
		c2.677-2.665,8.987-0.543,6.485,4.339c-6.337,5.671-14.502,10.324-10.357,21.809c4.477-4.666,7.358-12.475,19.083-12.81
		c11.348,1.292,12.51-12.168,4.663-14.959c0.687-0.938,2.029-2.167,3.224-2.841
		C1383.315,1500.738,1392.516,1496.86,1397.712,1489.869L1397.712,1489.869z"/>
	<g id="g4152" transform="matrix(.0040788 -.99999 .99999 .0040788 231.06 186.13)">
		<path id="path4154" stroke="darkblue" stroke-width="1.113" stroke-linecap="round" stroke-linejoin="round" d="M7.287,617.439
			c0.221,7.396,5.3,15.324,24.816,18.737C26.793,616.09,11.776,614.206,7.287,617.439z"/>
		<path id="path4154_6_" stroke="darkblue" stroke-width="1.113" stroke-linecap="round" stroke-linejoin="round" d="
			M-625.128-47.149c7.396-0.221,15.324-5.3,18.737-24.816C-626.478-66.655-628.362-51.638-625.128-47.149z"/>
		<path id="path4154_4_" stroke="darkblue" stroke-width="1.113" stroke-linecap="round" stroke-linejoin="round" d="
			M-1289.717,585.266c-0.221-7.396-5.3-15.324-24.816-18.737C-1309.222,586.616-1294.206,588.5-1289.717,585.266z"/>
		<path id="path4154_2_" stroke="darkblue" stroke-width="1.113" stroke-linecap="round" stroke-linejoin="round" d="
			M-657.301,1249.855c-7.396,0.221-15.324,5.3-18.737,24.816C-655.952,1269.36-654.068,1254.344-657.301,1249.855z"/>
		<path id="path4154_1_" stroke="darkblue" stroke-width="1.113" stroke-linecap="round" stroke-linejoin="round" d="
			M-619.838,1249.702c7.397,0.161,15.367,5.175,18.939,24.662C-621.029,1269.218-623.035,1254.217-619.838,1249.702z"/>
		<path id="path4154_7_" stroke="darkblue" stroke-width="1.113" stroke-linecap="round" stroke-linejoin="round" d="M7.134,579.976
			c0.161-7.397,5.175-15.367,24.662-18.939C26.65,581.167,11.649,583.173,7.134,579.976z"/>
		<path id="path4154_5_" stroke="darkblue" stroke-width="1.113" stroke-linecap="round" stroke-linejoin="round" d="
			M-662.591-46.996c-7.397-0.161-15.367-5.175-18.939-24.662C-661.401-66.512-659.395-51.511-662.591-46.996z"/>
		<path id="path4154_3_" stroke="darkblue" stroke-width="1.113" stroke-linecap="round" stroke-linejoin="round" d="
			M-1289.564,622.729c-0.161,7.397-5.175,15.367-24.662,18.939C-1309.08,621.539-1294.079,619.533-1289.564,622.729z"/>
		<path id="path4156" stroke="darkblue" stroke-width="1.113" d="M40.369,598.573c-0.795,6.43-3.111,13.983-6.769,21.65l0,0
			c-5.165-7.856-8.345-15.302-9.775-21.582c1.379-6.291,4.498-13.764,9.599-21.661v0C37.145,584.616,39.521,592.15,40.369,598.573z"
			/>
		<path stroke="darkblue" stroke-width="1.113" d="M-638.435,1282.937c-6.43-0.796-13.983-3.111-21.65-6.769l0,0
			c7.856-5.165,15.302-8.345,21.582-9.775c6.291,1.379,13.764,4.498,21.661,9.599l0,0
			C-624.478,1279.712-632.012,1282.089-638.435,1282.937z"/>
		<path stroke="darkblue" stroke-width="1.113" d="M-1322.799,604.133c0.795-6.43,3.111-13.983,6.769-21.65l0,0
			c5.165,7.856,8.345,15.302,9.775,21.582c-1.379,6.291-4.498,13.764-9.599,21.661l0,0
			C-1319.574,618.09-1321.951,610.556-1322.799,604.133z"/>
		<path stroke="darkblue" stroke-width="1.113" d="M-643.995-80.231c6.43,0.795,13.983,3.111,21.65,6.769l0,0
			c-7.856,5.165-15.302,8.345-21.582,9.775c-6.291-1.379-13.764-4.498-21.661-9.599h0
			C-657.952-77.006-650.418-79.383-643.995-80.231z"/>
		<path id="path4158" stroke="darkblue" stroke-width="1.113" stroke-linecap="round" stroke-linejoin="round" d="M59.494,612.839
			c0.992,7.332-2.721,15.984-21.415,22.544C40.03,614.698,54.537,610.383,59.494,612.839z"/>
		<path id="path4158_6_" stroke="darkblue" stroke-width="1.113" stroke-linecap="round" stroke-linejoin="round" d="
			M-629.729-99.356c7.332-0.992,15.984,2.721,22.544,21.415C-627.87-79.892-632.185-94.398-629.729-99.356z"/>
		<path id="path4158_4_" stroke="darkblue" stroke-width="1.113" stroke-linecap="round" stroke-linejoin="round" d="
			M-1341.924,589.867c-0.992-7.332,2.721-15.984,21.415-22.543C-1322.46,588.008-1336.966,592.323-1341.924,589.867z"/>
		<path id="path4158_2_" stroke="darkblue" stroke-width="1.113" stroke-linecap="round" stroke-linejoin="round" d="
			M-652.701,1302.062c-7.332,0.992-15.984-2.721-22.543-21.415C-654.56,1282.598-650.245,1297.104-652.701,1302.062z"/>
		<path id="path4158_1_" stroke="darkblue" stroke-width="1.113" stroke-linecap="round" stroke-linejoin="round" d="
			M-624.013,1301.945c7.339,0.932,15.961-2.851,22.368-21.598C-622.313,1282.467-626.509,1297.008-624.013,1301.945z"/>
		<path id="path4158_7_" stroke="darkblue" stroke-width="1.113" stroke-linecap="round" stroke-linejoin="round" d="M59.377,584.151
			c0.932-7.339-2.851-15.961-21.598-22.368C39.899,582.451,54.44,586.647,59.377,584.151z"/>
		<path id="path4158_5_" stroke="darkblue" stroke-width="1.113" stroke-linecap="round" stroke-linejoin="round" d="
			M-658.416-99.239c-7.339-0.932-15.961,2.851-22.368,21.598C-660.117-79.761-655.92-94.302-658.416-99.239z"/>
		<path id="path4158_3_" stroke="darkblue" stroke-width="1.113" stroke-linecap="round" stroke-linejoin="round" d="
			M-1341.807,618.555c-0.932,7.339,2.851,15.961,21.599,22.368C-1322.328,620.255-1336.87,616.058-1341.807,618.555z"/>
	</g>
	<path id="path4180" stroke="darkblue" stroke-width="1.113" stroke-linecap="round" stroke-linejoin="round" d="M1188.095,176.415
		c8.12-2.9,9.345-2.202,9.951,5.316c-10.184,19.971-26.209,39.522-23.125,61.251c-4.609-3.977-13.279-7.317-0.901-32.606
		c-7.776,6.177-12.413,17.233-19.438,24.438c-2.632,2.7-14.23,6.159-18.319,7.872c1.473-5.08,6.588-17.475,8.909-19.876
		c6.292-6.508,14.875-12.071,19.095-18.83c-23.124,14.376-30.231,4.389-32.001,0.977c14.402,0.321,31.907-5.204,55.828-28.542
		L1188.095,176.415z"/>
	<path id="path4180_6_" stroke="darkblue" stroke-width="1.113" stroke-linecap="round" stroke-linejoin="round" d="M176.415,471.488
		c-2.9-8.12-2.202-9.345,5.316-9.951c19.971,10.184,39.522,26.209,61.251,23.125c-3.977,4.609-7.317,13.279-32.606,0.901
		c6.177,7.776,17.233,12.413,24.438,19.438c2.7,2.632,6.159,14.23,7.872,18.319c-5.08-1.473-17.475-6.588-19.876-8.909
		c-6.508-6.292-12.071-14.875-18.83-19.095c14.376,23.124,4.389,30.231,0.977,32.001c0.321-14.402-5.204-31.907-28.542-55.828
		L176.415,471.488z"/>
	<path id="path4180_4_" stroke="darkblue" stroke-width="1.113" stroke-linecap="round" stroke-linejoin="round" d="
		M471.488,1483.168c-8.12,2.9-9.345,2.202-9.951-5.316c10.184-19.971,26.209-39.522,23.125-61.251
		c4.609,3.977,13.279,7.318,0.901,32.606c7.776-6.177,12.413-17.233,19.438-24.438c2.632-2.7,14.23-6.159,18.319-7.872
		c-1.473,5.08-6.588,17.475-8.909,19.876c-6.292,6.508-14.875,12.071-19.095,18.83c23.124-14.376,30.231-4.389,32.001-0.977
		c-14.402-0.321-31.907,5.204-55.828,28.542L471.488,1483.168z"/>
	<path id="path4180_2_" stroke="darkblue" stroke-width="1.113" stroke-linecap="round" stroke-linejoin="round" d="
		M1483.168,1188.095c2.9,8.12,2.202,9.345-5.316,9.951c-19.971-10.184-39.522-26.209-61.251-23.125
		c3.977-4.609,7.318-13.279,32.606-0.901c-6.177-7.776-17.233-12.413-24.438-19.438c-2.7-2.632-6.159-14.23-7.872-18.319
		c5.08,1.473,17.475,6.588,19.876,8.909c6.508,6.292,12.071,14.875,18.83,19.095c-14.376-23.124-4.389-30.231-0.977-32.001
		c-0.321,14.402,5.204,31.907,28.542,55.828L1483.168,1188.095z"/>
	<path id="path4180_1_" stroke="darkblue" stroke-width="1.113" stroke-linecap="round" stroke-linejoin="round" d="
		M1483.168,471.488c2.9-8.12,2.202-9.345-5.316-9.951c-19.971,10.184-39.522,26.209-61.251,23.125
		c3.977,4.609,7.318,13.279,32.606,0.901c-6.177,7.776-17.233,12.413-24.438,19.438c-2.7,2.632-6.159,14.23-7.872,18.319
		c5.08-1.473,17.475-6.588,19.876-8.909c6.508-6.292,12.071-14.875,18.83-19.095c-14.376,23.124-4.389,30.231-0.977,32.001
		c-0.321-14.402,5.204-31.907,28.542-55.828L1483.168,471.488z"/>
	<path id="path4180_7_" stroke="darkblue" stroke-width="1.113" stroke-linecap="round" stroke-linejoin="round" d="M471.488,176.415
		c-8.12-2.9-9.345-2.202-9.951,5.316c10.184,19.971,26.209,39.522,23.125,61.251c4.609-3.977,13.279-7.317,0.901-32.606
		c7.776,6.177,12.413,17.233,19.438,24.438c2.632,2.7,14.23,6.159,18.319,7.872c-1.473-5.08-6.588-17.475-8.909-19.876
		c-6.292-6.508-14.875-12.071-19.095-18.83c23.124,14.376,30.231,4.389,32.001,0.977c-14.402,0.321-31.907-5.204-55.828-28.542
		L471.488,176.415z"/>
	<path id="path4180_5_" stroke="darkblue" stroke-width="1.113" stroke-linecap="round" stroke-linejoin="round" d="
		M176.415,1188.095c-2.9,8.12-2.202,9.345,5.316,9.951c19.971-10.184,39.522-26.209,61.251-23.125
		c-3.977-4.609-7.317-13.279-32.606-0.901c6.177-7.776,17.233-12.413,24.438-19.438c2.7-2.632,6.159-14.23,7.872-18.319
		c-5.08,1.473-17.475,6.588-19.876,8.909c-6.508,6.292-12.071,14.875-18.83,19.095c14.376-23.124,4.389-30.231,0.977-32.001
		c0.321,14.402-5.204,31.907-28.542,55.828L176.415,1188.095z"/>
	<path id="path4180_3_" stroke="darkblue" stroke-width="1.113" stroke-linecap="round" stroke-linejoin="round" d="
		M1188.095,1483.168c8.12,2.9,9.345,2.202,9.951-5.316c-10.184-19.971-26.209-39.522-23.125-61.251
		c-4.609,3.977-13.279,7.318-0.901,32.606c-7.776-6.177-12.413-17.233-19.438-24.438c-2.632-2.7-14.23-6.159-18.319-7.872
		c1.473,5.08,6.588,17.475,8.909,19.876c6.292,6.508,14.875,12.071,19.095,18.83c-23.124-14.376-30.231-4.389-32.001-0.977
		c14.402-0.321,31.907,5.204,55.828,28.542L1188.095,1483.168z"/>
</g>
</svg>
