<?xml version="1.0" encoding="UTF-8" standalone="no"?>
<!-- Created with Inkscape (https://www.inkscape.org/) -->
<!-- ClipArt by Arvin61r58 (https://openclipart.org/user-detail/Arvin61r58) -->
<svg
   xmlns:dc="http://purl.org/dc/elements/1.1/"
   xmlns:cc="http://creativecommons.org/ns#"
   xmlns:rdf="http://www.w3.org/1999/02/22-rdf-syntax-ns#"
   xmlns:svg="http://www.w3.org/2000/svg"
   xmlns="http://www.w3.org/2000/svg"
   xmlns:xlink="http://www.w3.org/1999/xlink"
   width="806.40002"
   height="1089.6"
   viewBox="0 0 213.35999 288.29001"
   version="1.1"
   id="svg852">
  <title
     id="title2099">Floral Border 4</title>
  <defs
     id="defs846" />
  <metadata
     id="metadata849">
    <rdf:RDF>
      <cc:Work
         rdf:about="">
        <dc:format>image/svg+xml</dc:format>
        <dc:type
           rdf:resource="http://purl.org/dc/dcmitype/StillImage" />
        <dc:title>Floral Border 4</dc:title>
        <cc:license
           rdf:resource="http://creativecommons.org/publicdomain/zero/1.0/" />
        <dc:creator>
          <cc:Agent>
            <dc:title>Arvin61r58</dc:title>
          </cc:Agent>
        </dc:creator>
        <dc:publisher>
          <cc:Agent>
            <dc:title>Openclipart.org</dc:title>
          </cc:Agent>
        </dc:publisher>
        <dc:identifier>https://openclipart.org/</dc:identifier>
        <dc:source>https://openclipart.org/user-detail/Arvin61r58</dc:source>
        <dc:subject>
          <rdf:Bag>
            <rdf:li>border</rdf:li>
            <rdf:li>DTP</rdf:li>
            <rdf:li>floral</rdf:li>
            <rdf:li>frame</rdf:li>
            <rdf:li>leaf</rdf:li>
            <rdf:li>leaves</rdf:li>
            <rdf:li>page</rdf:li>
            <rdf:li>vine</rdf:li>
          </rdf:Bag>
        </dc:subject>
        <dc:description>Floral/leaf page frame/border</dc:description>
      </cc:Work>
      <cc:License
         rdf:about="http://creativecommons.org/publicdomain/zero/1.0/">
        <cc:permits
           rdf:resource="http://creativecommons.org/ns#Reproduction" />
        <cc:permits
           rdf:resource="http://creativecommons.org/ns#Distribution" />
        <cc:permits
           rdf:resource="http://creativecommons.org/ns#DerivativeWorks" />
      </cc:License>
    </rdf:RDF>
  </metadata>
  <g
     transform="translate(0,-8.71)"
     id="layer1">
    <g
       id="g2095">
      <title
         id="title2097">Floral Border 4  --  by Arvin61r58</title>
      <g
         id="g1909"
         transform="translate(-4.7625002)">
        <use
           style="fill:darkblue"
           height="100%"
           width="100%"
           transform="translate(-126.30826,59.349371)"
           id="use1724"
           xlink:href="#path823"
           y="0"
           x="0" />
        <use
           style="fill:darkblue"
           height="100%"
           width="100%"
           transform="translate(-151.01427,25.30683)"
           id="use1726"
           xlink:href="#path820"
           y="0"
           x="0" />
        <use
           style="fill:darkblue"
           height="100%"
           width="100%"
           transform="translate(-114.77739,79.42471)"
           id="use1728"
           xlink:href="#path1446"
           y="0"
           x="0" />
        <use
           style="fill:darkblue"
           height="100%"
           width="100%"
           transform="translate(-152.93903,86.09738)"
           id="use1730"
           xlink:href="#path1448"
           y="0"
           x="0" />
        <use
           height="100%"
           width="100%"
           transform="rotate(25.620619,2.1201324,-240.01838)"
           id="use1740"
           xlink:href="#path823"
           y="0"
           x="0" />
        <use
           height="100%"
           width="100%"
           transform="translate(-147.32696,-0.25688973)"
           id="use1742"
           xlink:href="#path820"
           y="0"
           x="0" />
        <use
           height="100%"
           width="100%"
           transform="translate(-104.91908,154.69608)"
           id="use1744"
           xlink:href="#path1446"
           y="0"
           x="0" />
        <use
           height="100%"
           width="100%"
           transform="translate(-143.59172,177.56567)"
           id="use1746"
           xlink:href="#path1448"
           y="0"
           x="0" />
        <use
           height="100%"
           width="100%"
           transform="rotate(10.444819,-459.9829,-657.83746)"
           id="use1748"
           xlink:href="#path823"
           y="0"
           x="0" />
        <use
           height="100%"
           width="100%"
           transform="translate(-152.89178,90.918456)"
           id="use1750"
           xlink:href="#path820"
           y="0"
           x="0" />
        <use
           height="100%"
           width="100%"
           transform="translate(-112.89409,124.11569)"
           id="use1752"
           xlink:href="#path1446"
           y="0"
           x="0" />
        <use
           height="100%"
           width="100%"
           transform="rotate(-23.50912,429.70342,439.31644)"
           id="use1754"
           xlink:href="#path1448"
           y="0"
           x="0" />
        <use
           height="100%"
           width="100%"
           transform="rotate(22.613901,-395.09765,-192.50617)"
           id="use1756"
           xlink:href="#path823"
           y="0"
           x="0" />
        <use
           height="100%"
           width="100%"
           transform="rotate(-12.824704,936.30228,782.25295)"
           id="use1758"
           xlink:href="#path820"
           y="0"
           x="0" />
        <use
           height="100%"
           width="100%"
           transform="translate(-104.08248,221.07627)"
           id="use1760"
           xlink:href="#path1446"
           y="0"
           x="0" />
        <use
           height="100%"
           width="100%"
           transform="translate(-141.75357,240.33726)"
           id="use1762"
           xlink:href="#path1448"
           y="0"
           x="0" />
        <path
           id="path1444"
           d="m 21.028019,35.896744 c 4.063967,2.296107 6.588766,5.196931 2.702127,12.970211 -11.925738,15.467932 3.102688,37.220471 -1.621276,48.638302 -5.887988,11.775983 -11.043182,28.173213 -3.242554,43.774463 4.414783,8.82957 14.351284,40.71211 10.808511,51.34043 -11.075003,33.22501 -9.25543,22.49328 2.161702,56.74468 3.067808,9.20342 -9.778756,20.03963 -5.944681,30.26384"
           style="fill:none;stroke:#006100;stroke-width:0.79399997;stroke-linecap:round;stroke-linejoin:round;stroke-miterlimit:4;stroke-dasharray:none;stroke-opacity:1" />
      </g>
      <g
         id="g1928"
         transform="translate(1.0583333)">
        <use
           x="0"
           y="0"
           xlink:href="#path823"
           id="use1783"
           transform="rotate(-180,172.00292,125.32355)"
           width="100%"
           height="100%"
           style="fill:darkblue" />
        <use
           x="0"
           y="0"
           xlink:href="#path820"
           id="use1785"
           transform="rotate(-180,184.35592,142.34481)"
           width="100%"
           height="100%"
           style="fill:darkblue" />
        <use
           x="0"
           y="0"
           xlink:href="#path1446"
           id="use1787"
           transform="rotate(-180,166.23748,115.28589)"
           width="100%"
           height="100%"
           style="fill:darkblue" />
        <use
           x="0"
           y="0"
           xlink:href="#path1448"
           id="use1789"
           transform="rotate(-180,185.3183,111.94956)"
           width="100%"
           height="100%"
           style="fill:darkblue" />
        <use
           x="0"
           y="0"
           xlink:href="#path823"
           id="use1791"
           transform="rotate(-154.37938,198.6691,130.72988)"
           width="100%"
           height="100%" />
        <use
           x="0"
           y="0"
           xlink:href="#path820"
           id="use1793"
           transform="rotate(-180,182.51226,155.12668)"
           width="100%"
           height="100%" />
        <use
           x="0"
           y="0"
           xlink:href="#path1446"
           id="use1795"
           transform="rotate(-180,161.30833,77.650199)"
           width="100%"
           height="100%" />
        <use
           x="0"
           y="0"
           xlink:href="#path1448"
           id="use1797"
           transform="rotate(-180,180.64464,66.215406)"
           width="100%"
           height="100%" />
        <use
           x="0"
           y="0"
           xlink:href="#path823"
           id="use1799"
           transform="rotate(-169.55518,183.14319,103.00617)"
           width="100%"
           height="100%" />
        <use
           x="0"
           y="0"
           xlink:href="#path820"
           id="use1801"
           transform="rotate(-180,185.29468,109.539)"
           width="100%"
           height="100%" />
        <use
           x="0"
           y="0"
           xlink:href="#path1446"
           id="use1803"
           transform="rotate(-180,165.29583,92.940399)"
           width="100%"
           height="100%" />
        <use
           x="0"
           y="0"
           xlink:href="#path1448"
           id="use1805"
           transform="rotate(156.49088,168.01065,88.233741)"
           width="100%"
           height="100%" />
        <use
           x="0"
           y="0"
           xlink:href="#path823"
           id="use1807"
           transform="rotate(-157.3861,178.33086,54.236225)"
           width="100%"
           height="100%" />
        <use
           x="0"
           y="0"
           xlink:href="#path820"
           id="use1809"
           transform="rotate(167.1753,179.34361,62.003829)"
           width="100%"
           height="100%" />
        <use
           x="0"
           y="0"
           xlink:href="#path1446"
           id="use1811"
           transform="rotate(-180,160.89003,44.460107)"
           width="100%"
           height="100%" />
        <use
           x="0"
           y="0"
           xlink:href="#path1448"
           id="use1813"
           transform="rotate(-180,179.72557,34.829616)"
           width="100%"
           height="100%" />
        <path
           style="fill:none;stroke:#005100;stroke-width:0.79374999;stroke-linecap:round;stroke-linejoin:round;stroke-opacity:1"
           d="m 196.66955,274.09973 c -4.06397,-2.2961 -6.58877,-5.19693 -2.70213,-12.97021 11.92574,-15.46793 -3.10269,-37.22047 1.62128,-48.6383 5.88799,-11.77598 11.04318,-28.17321 3.24255,-43.77446 -4.41478,-8.82957 -14.35128,-40.71211 -10.80851,-51.34043 11.075,-33.22501 9.25543,-22.49328 -2.1617,-56.74468 -3.06781,-9.20342 9.77875,-20.03963 5.94468,-30.26384"
           id="path1815" />
      </g>
      <g
         id="g1981"
         transform="translate(0,4.7625002)">
        <path
           id="path823"
           d="m 148.51492,18.223619 c 0.42063,-2.41376 1.39402,-4.87151 3.04283,-6.69034 1.07953,-1.19085 4.1838,-2.43257 4.1838,-2.43257 0,0 1.79154,2.82289 1.97058,4.42021 0.27347,2.43966 -0.37459,5.00248 -1.44528,7.20629 -1.54396,3.17798 -6.88934,8.07859 -6.88934,8.07859 0,0 -1.46915,-7.10146 -0.86259,-10.58218 z"
           style="opacity:1;fill:darkblue;fill-opacity:1;stroke:none;stroke-width:0.37879145;stroke-linecap:round;stroke-linejoin:round;stroke-miterlimit:4;stroke-dasharray:none;stroke-opacity:1;paint-order:stroke markers fill" />
        <path
           id="path820"
           d="m 171.05714,49.123842 c -0.56895,0.0406 -1.64122,-0.1725 -2.56337,-0.50949 -0.63759,-0.23302 -1.74165,-0.75768 -2.64139,-1.25523 -0.65654,-0.36306 -0.76752,-0.44049 -1.31105,-0.91457 -1.01629,-0.88645 -1.56182,-1.54587 -2.27258,-2.74753 -0.37763,-0.63832 -0.56965,-1.06517 -0.89019,-1.97881 -0.42977,-1.22496 -0.56527,-1.83905 -0.97209,-4.40526 -0.18275,-1.15284 -0.51568,-2.67741 -0.77864,-3.56571 -0.20895,-0.70612 -0.56234,-1.54925 -0.98501,-2.35069 -0.44026,-0.83483 -0.45184,-0.86721 -0.32184,-0.90082 0.28298,-0.0729 1.50913,0.25122 2.13473,0.56461 0.58777,0.29444 0.74368,0.416 1.60631,1.25224 0.93087,0.90268 1.17903,1.21991 1.50577,1.92627 0.36589,0.79109 0.80395,2.58281 1.2032,4.92151 0.11766,0.68931 0.28395,1.54281 0.3695,1.89668 0.31738,1.31293 0.79208,2.51863 1.36457,3.46582 0.54282,0.89812 0.71522,1.10397 1.81041,2.16165 1.12447,1.08595 1.29101,1.21652 2.31222,1.81261 0.86974,0.5077 0.92695,0.59119 0.42941,0.62673 z"
           style="opacity:1;fill:darkblue;fill-opacity:1;stroke:none;stroke-width:0.42535907;stroke-linecap:round;stroke-linejoin:round;stroke-miterlimit:4;stroke-dasharray:none;stroke-opacity:1;paint-order:stroke markers fill" />
        <path
           style="opacity:1;fill:darkblue;fill-opacity:1;stroke:none;stroke-width:0.42535907;stroke-linecap:round;stroke-linejoin:round;stroke-miterlimit:4;stroke-dasharray:none;stroke-opacity:1;paint-order:stroke markers fill"
           d="m 134.4615,23.518626 c 0.56895,0.0406 1.64122,-0.1725 2.56337,-0.50949 0.63759,-0.23302 1.74165,-0.75768 2.64139,-1.25523 0.65654,-0.36306 0.76752,-0.44049 1.31105,-0.91457 1.01629,-0.88645 1.56182,-1.54587 2.27258,-2.74753 0.37763,-0.63832 0.56965,-1.06517 0.89019,-1.97881 0.42977,-1.22496 0.56527,-1.83905 0.97209,-4.405264 0.18275,-1.15284 0.51568,-2.6774096 0.77864,-3.5657096 0.20895,-0.70612 0.56234,-1.54925 0.98501,-2.35069 0.44026,-0.83483 0.45184,-0.86721 0.32184,-0.90082 -0.28298,-0.0729 -1.50913,0.25122 -2.13473,0.56461 -0.58777,0.29444 -0.74368,0.416 -1.60631,1.25224 -0.93087,0.90268 -1.17903,1.21991 -1.50577,1.92627 -0.36589,0.79109 -0.80395,2.5828096 -1.2032,4.9215136 -0.11766,0.68931 -0.28395,1.54281 -0.3695,1.89668 -0.31738,1.31293 -0.79208,2.51863 -1.36457,3.46582 -0.54282,0.89812 -0.71522,1.10397 -1.81041,2.16165 -1.12447,1.08595 -1.29101,1.21652 -2.31222,1.81261 -0.86974,0.5077 -0.92695,0.59119 -0.42941,0.62673 z"
           id="path1446" />
        <path
           style="opacity:1;fill:darkblue;fill-opacity:1;stroke:none;stroke-width:0.37879145;stroke-linecap:round;stroke-linejoin:round;stroke-miterlimit:4;stroke-dasharray:none;stroke-opacity:1;paint-order:stroke markers fill"
           d="m 170.35531,15.69064 c -0.42063,-2.41376 -1.39402,-4.87151 -3.04283,-6.6903394 -1.07953,-1.1908504 -4.1838,-2.4325704 -4.1838,-2.4325704 0,0 -1.79154,2.8228904 -1.97058,4.4202098 -0.27347,2.43966 0.37459,5.00248 1.44528,7.20629 1.54396,3.17798 6.88934,8.07859 6.88934,8.07859 0,0 1.46915,-7.10146 0.86259,-10.58218 z"
           id="path1448" />
        <use
           height="100%"
           width="100%"
           transform="matrix(1,0,0,-1,-107.24972,51.617039)"
           id="use1850"
           xlink:href="#path823"
           y="0"
           x="0" />
        <use
           height="100%"
           width="100%"
           transform="rotate(90,117.45637,-29.796372)"
           id="use1852"
           xlink:href="#path820"
           y="0"
           x="0" />
        <use
           height="100%"
           width="100%"
           transform="rotate(90,94.157424,-11.640844)"
           id="use1854"
           xlink:href="#path1446"
           y="0"
           x="0" />
        <use
           height="100%"
           width="100%"
           transform="matrix(-0.93658879,-0.35043036,-0.35043036,0.93658879,222.74969,61.414849)"
           id="use1856"
           xlink:href="#path1448"
           y="0"
           x="0" />
        <use
           height="100%"
           width="100%"
           transform="rotate(26.148377,100.22159,-149.64434)"
           id="use1939"
           xlink:href="#path823"
           y="0"
           x="0" />
        <use
           height="100%"
           width="100%"
           transform="rotate(142.20902,125.22782,25.119354)"
           id="use1941"
           xlink:href="#path820"
           y="0"
           x="0" />
        <use
           height="100%"
           width="100%"
           transform="rotate(-6.6402957,168.09538,458.74747)"
           id="use1943"
           xlink:href="#path1446"
           y="0"
           x="0" />
        <use
           height="100%"
           width="100%"
           transform="matrix(0.68691473,-0.72673802,-0.72673802,-0.68691473,-1.3462606,163.46926)"
           id="use1945"
           xlink:href="#path1448"
           y="0"
           x="0" />
        <use
           height="100%"
           width="100%"
           transform="rotate(10.860665,159.36307,-135.2131)"
           id="use1947"
           xlink:href="#path823"
           y="0"
           x="0" />
        <use
           height="100%"
           width="100%"
           transform="matrix(-0.95641819,-0.29200041,-0.29200041,0.95641819,279.52322,24.523084)"
           id="use1949"
           xlink:href="#path820"
           y="0"
           x="0" />
        <use
           height="100%"
           width="100%"
           transform="rotate(90,121.57552,8.9630696)"
           id="use1951"
           xlink:href="#path1446"
           y="0"
           x="0" />
        <use
           height="100%"
           width="100%"
           transform="rotate(166.04112,147.94489,22.592665)"
           id="use1953"
           xlink:href="#path1448"
           y="0"
           x="0" />
        <path
           id="path1840"
           d="m 31.885106,30.029781 c 13.668854,-18.769649 30.996582,7.36877 45.93617,3.782978 7.000103,-1.680161 11.435976,-9.430159 18.374468,-11.348936 12.675826,-3.505385 20.231856,5.345228 39.451066,0.540426 9.3441,-2.336027 13.8961,11.627091 25.4,7.025532 6.653,-2.661202 12.0149,-7.140165 18.91489,-9.72766"
           style="fill:none;stroke:#005100;stroke-width:0.79399997;stroke-linecap:round;stroke-linejoin:round;stroke-miterlimit:4;stroke-dasharray:none;stroke-opacity:1" />
      </g>
      <use
         x="0"
         y="0"
         xlink:href="#g1981"
         id="use2019"
         transform="rotate(-180,108.15486,152.96415)"
         width="100%"
         height="100%" />
    </g>
  </g>
</svg>
