<?xml version="1.0" encoding="utf-8"?>

<!DOCTYPE svg PUBLIC "-//W3C//DTD SVG 1.1//EN" "http://www.w3.org/Graphics/SVG/1.1/DTD/svg11.dtd">
<svg version="1.1" id="Layer_1" xmlns="http://www.w3.org/2000/svg" xmlns:xlink="http://www.w3.org/1999/xlink" x="0px" y="0px"
	 viewBox="0 0 1639.881 1639.881" style="enable-background:new 0 0 1639.881 1639.881;" xml:space="preserve">
<link xmlns="http://www.w3.org/1999/xhtml" rel="stylesheet" href="../css/svg.css" type="text/css"/>
<g style="fill: lightblue">
	<g>
		<g>
			<path d="M1159.796,55.717c2.467,0,4.935,1.234,6.168,2.467s1.234,2.467,1.234,3.701s-1.234,2.467-2.467,2.467
				c-1.234,0-2.467,0-2.467,0c-1.234,0-1.234,0,0-1.234c1.234,0,2.467-1.234,2.467-2.467c0-1.234,0-3.701-1.234-3.701
				c-1.234,0-3.701,1.234-4.935,2.467c0,2.467,1.234,4.935,1.234,6.168c1.234,1.234,1.234,1.234,1.234,1.234l0,0l0,0l0,0l0,0l0,0
				l0,0l0,0l0,0l0,0l0,0l0,0l0,0l0,0c6.168,9.869,24.673,18.505,34.543,23.44c8.636,3.701,17.271,8.636,25.907,13.57
				c7.402,4.935,13.57,11.103,17.271,19.739c1.234,2.467,1.234,3.701,1.234,6.168c0,7.402-2.467,14.804-9.869,16.038
				c-2.467,0-4.935-1.234-6.168-2.467c-1.234-1.234-1.234-2.467-1.234-3.701s1.234-2.467,2.467-2.467c1.234,0,2.467,0,2.467,0
				c1.234,0,1.234,0,0,1.234c-1.234,0-2.467,1.234-2.467,2.467s0,3.701,1.234,3.701s3.701-1.234,4.935-2.467
				c0-1.234-1.234-4.935-1.234-6.168l-1.234-1.234c-6.168-9.869-24.673-18.505-34.543-23.44c-8.636-3.701-17.271-8.636-25.907-13.57
				c-7.402-4.935-13.57-11.103-17.271-19.739c-1.234-2.467-1.234-3.701-1.234-6.168C1148.693,64.353,1151.16,55.717,1159.796,55.717
				z"/>
			<path d="M55.717,480.085c0-2.467,1.234-4.935,2.467-6.168s2.467-1.234,3.701-1.234s2.467,1.234,2.467,2.467s0,2.467,0,2.467
				c0,1.234,0,1.234-1.234,0c0-1.234-1.234-2.467-2.467-2.467c-1.234,0-3.701,0-3.701,1.234s1.234,3.701,2.467,4.935
				c2.467,0,4.935-1.234,6.168-1.234c1.234-1.234,1.234-1.234,1.234-1.234l0,0l0,0l0,0l0,0l0,0l0,0l0,0l0,0l0,0l0,0l0,0l0,0l0,0
				c9.869-6.168,18.505-24.673,23.44-34.543c3.701-8.636,8.636-17.271,13.57-25.907c4.935-7.402,11.103-13.57,19.739-17.271
				c2.467-1.234,3.701-1.234,6.168-1.234c7.402,0,14.804,2.467,16.038,9.869c0,2.467-1.234,4.935-2.467,6.168
				s-2.467,1.234-3.701,1.234s-2.467-1.234-2.467-2.467s0-2.467,0-2.467c0-1.234,0-1.234,1.234,0c0,1.234,1.234,2.467,2.467,2.467
				s3.701,0,3.701-1.234s-1.234-3.701-2.467-4.935c-1.234,0-4.935,1.234-6.168,1.234l-1.234,1.234
				c-9.869,6.168-18.505,24.673-23.44,34.543c-3.701,8.636-8.636,17.271-13.57,25.907c-4.935,7.402-11.103,13.57-19.739,17.271
				c-2.467,1.234-3.701,1.234-6.168,1.234C64.353,491.188,55.717,488.721,55.717,480.085z"/>
			<path d="M480.085,1584.164c-2.467,0-4.935-1.234-6.168-2.467c-1.234-1.234-1.234-2.467-1.234-3.701s1.234-2.467,2.467-2.467
				s2.467,0,2.467,0c1.234,0,1.234,0,0,1.234c-1.234,0-2.467,1.234-2.467,2.467s0,3.701,1.234,3.701s3.701-1.234,4.935-2.467
				c0-2.467-1.234-4.935-1.234-6.168c-1.234-1.234-1.234-1.234-1.234-1.234l0,0l0,0l0,0l0,0l0,0l0,0l0,0l0,0l0,0l0,0l0,0l0,0l0,0
				c-6.168-9.869-24.673-18.505-34.543-23.44c-8.636-3.701-17.271-8.636-25.907-13.57c-7.402-4.935-13.57-11.103-17.271-19.739
				c-1.234-2.467-1.234-3.701-1.234-6.168c0-7.402,2.467-14.804,9.869-16.038c2.467,0,4.935,1.234,6.168,2.467
				c1.234,1.234,1.234,2.467,1.234,3.701c0,1.234-1.234,2.467-2.467,2.467s-2.467,0-2.467,0c-1.234,0-1.234,0,0-1.234
				c1.234,0,2.467-1.234,2.467-2.467s0-3.701-1.234-3.701s-3.701,1.234-4.935,2.467c0,1.234,1.234,4.935,1.234,6.168l1.234,1.234
				c6.168,9.869,24.673,18.505,34.543,23.44c8.636,3.701,17.271,8.636,25.907,13.57c7.402,4.935,13.57,11.103,17.271,19.739
				c1.234,2.467,1.234,3.701,1.234,6.168C491.188,1575.528,488.721,1584.164,480.085,1584.164z"/>
			<path d="M1584.164,1159.796c0,2.467-1.234,4.935-2.467,6.168c-1.234,1.234-2.467,1.234-3.701,1.234s-2.467-1.234-2.467-2.467
				c0-1.234,0-2.467,0-2.467c0-1.234,0-1.234,1.234,0c0,1.234,1.234,2.467,2.467,2.467s3.701,0,3.701-1.234
				c0-1.234-1.234-3.701-2.467-4.935c-2.467,0-4.935,1.234-6.168,1.234c-1.234,1.234-1.234,1.234-1.234,1.234l0,0l0,0l0,0l0,0l0,0
				l0,0l0,0l0,0l0,0l0,0l0,0l0,0l0,0c-9.869,6.168-18.505,24.673-23.44,34.543c-3.701,8.636-8.636,17.271-13.57,25.907
				c-4.935,7.402-11.103,13.57-19.739,17.271c-2.467,1.234-3.701,1.234-6.168,1.234c-7.402,0-14.804-2.467-16.038-9.869
				c0-2.467,1.234-4.935,2.467-6.168c1.234-1.234,2.467-1.234,3.701-1.234c1.234,0,2.467,1.234,2.467,2.467c0,1.234,0,2.467,0,2.467
				c0,1.234,0,1.234-1.234,0c0-1.234-1.234-2.467-2.467-2.467s-3.701,0-3.701,1.234s1.234,3.701,2.467,4.935
				c1.234,0,4.935-1.234,6.168-1.234l1.234-1.234c9.869-6.168,18.505-24.673,23.44-34.543c3.701-8.636,8.636-17.271,13.57-25.907
				c4.935-7.402,11.103-13.57,19.739-17.271c2.467-1.234,3.701-1.234,6.168-1.234
				C1575.528,1148.693,1584.164,1151.16,1584.164,1159.796z"/>
			<path d="M1584.164,480.085c0-2.467-1.234-4.935-2.467-6.168c-1.234-1.234-2.467-1.234-3.701-1.234s-2.467,1.234-2.467,2.467
				s0,2.467,0,2.467c0,1.234,0,1.234,1.234,0c0-1.234,1.234-2.467,2.467-2.467s3.701,0,3.701,1.234s-1.234,3.701-2.467,4.935
				c-2.467,0-4.935-1.234-6.168-1.234c-1.234-1.234-1.234-1.234-1.234-1.234l0,0l0,0l0,0l0,0l0,0l0,0l0,0l0,0l0,0l0,0l0,0l0,0l0,0
				c-9.869-6.168-18.505-24.673-23.44-34.543c-3.701-8.636-8.636-17.271-13.57-25.907c-4.935-7.402-11.103-13.57-19.739-17.271
				c-2.467-1.234-3.701-1.234-6.168-1.234c-7.402,0-14.804,2.467-16.038,9.869c0,2.467,1.234,4.935,2.467,6.168
				c1.234,1.234,2.467,1.234,3.701,1.234c1.234,0,2.467-1.234,2.467-2.467s0-2.467,0-2.467c0-1.234,0-1.234-1.234,0
				c0,1.234-1.234,2.467-2.467,2.467s-3.701,0-3.701-1.234s1.234-3.701,2.467-4.935c1.234,0,4.935,1.234,6.168,1.234l1.234,1.234
				c9.869,6.168,18.505,24.673,23.44,34.543c3.701,8.636,8.636,17.271,13.57,25.907c4.935,7.402,11.103,13.57,19.739,17.271
				c2.467,1.234,3.701,1.234,6.168,1.234C1575.528,491.188,1584.164,488.721,1584.164,480.085z"/>
			<path d="M480.085,55.717c-2.467,0-4.935,1.234-6.168,2.467s-1.234,2.467-1.234,3.701s1.234,2.467,2.467,2.467s2.467,0,2.467,0
				c1.234,0,1.234,0,0-1.234c-1.234,0-2.467-1.234-2.467-2.467c0-1.234,0-3.701,1.234-3.701s3.701,1.234,4.935,2.467
				c0,2.467-1.234,4.935-1.234,6.168c-1.234,1.234-1.234,1.234-1.234,1.234l0,0l0,0l0,0l0,0l0,0l0,0l0,0l0,0l0,0l0,0l0,0l0,0l0,0
				c-6.168,9.869-24.673,18.505-34.543,23.44c-8.636,3.701-17.271,8.636-25.907,13.57c-7.402,4.935-13.57,11.103-17.271,19.739
				c-1.234,2.467-1.234,3.701-1.234,6.168c0,7.402,2.467,14.804,9.869,16.038c2.467,0,4.935-1.234,6.168-2.467
				s1.234-2.467,1.234-3.701s-1.234-2.467-2.467-2.467s-2.467,0-2.467,0c-1.234,0-1.234,0,0,1.234c1.234,0,2.467,1.234,2.467,2.467
				s0,3.701-1.234,3.701s-3.701-1.234-4.935-2.467c0-1.234,1.234-4.935,1.234-6.168l1.234-1.234
				c6.168-9.869,24.673-18.505,34.543-23.44c8.636-3.701,17.271-8.636,25.907-13.57c7.402-4.935,13.57-11.103,17.271-19.739
				c1.234-2.467,1.234-3.701,1.234-6.168C491.188,64.353,488.721,55.717,480.085,55.717z"/>
			<path d="M55.717,1159.796c0,2.467,1.234,4.935,2.467,6.168s2.467,1.234,3.701,1.234s2.467-1.234,2.467-2.467
				c0-1.234,0-2.467,0-2.467c0-1.234,0-1.234-1.234,0c0,1.234-1.234,2.467-2.467,2.467c-1.234,0-3.701,0-3.701-1.234
				c0-1.234,1.234-3.701,2.467-4.935c2.467,0,4.935,1.234,6.168,1.234c1.234,1.234,1.234,1.234,1.234,1.234l0,0l0,0l0,0l0,0l0,0l0,0
				l0,0l0,0l0,0l0,0l0,0l0,0l0,0c9.869,6.168,18.505,24.673,23.44,34.543c3.701,8.636,8.636,17.271,13.57,25.907
				c4.935,7.402,11.103,13.57,19.739,17.271c2.467,1.234,3.701,1.234,6.168,1.234c7.402,0,14.804-2.467,16.038-9.869
				c0-2.467-1.234-4.935-2.467-6.168c-1.234-1.234-2.467-1.234-3.701-1.234s-2.467,1.234-2.467,2.467c0,1.234,0,2.467,0,2.467
				c0,1.234,0,1.234,1.234,0c0-1.234,1.234-2.467,2.467-2.467s3.701,0,3.701,1.234s-1.234,3.701-2.467,4.935
				c-1.234,0-4.935-1.234-6.168-1.234l-1.234-1.234c-9.869-6.168-18.505-24.673-23.44-34.543
				c-3.701-8.636-8.636-17.271-13.57-25.907c-4.935-7.402-11.103-13.57-19.739-17.271c-2.467-1.234-3.701-1.234-6.168-1.234
				C64.353,1148.693,55.717,1151.16,55.717,1159.796z"/>
			<path d="M1159.796,1584.164c2.467,0,4.935-1.234,6.168-2.467c1.234-1.234,1.234-2.467,1.234-3.701s-1.234-2.467-2.467-2.467
				c-1.234,0-2.467,0-2.467,0c-1.234,0-1.234,0,0,1.234c1.234,0,2.467,1.234,2.467,2.467s0,3.701-1.234,3.701
				c-1.234,0-3.701-1.234-4.935-2.467c0-2.467,1.234-4.935,1.234-6.168c1.234-1.234,1.234-1.234,1.234-1.234l0,0l0,0l0,0l0,0l0,0
				l0,0l0,0l0,0l0,0l0,0l0,0l0,0l0,0c6.168-9.869,24.673-18.505,34.543-23.44c8.636-3.701,17.271-8.636,25.907-13.57
				c7.402-4.935,13.57-11.103,17.271-19.739c1.234-2.467,1.234-3.701,1.234-6.168c0-7.402-2.467-14.804-9.869-16.038
				c-2.467,0-4.935,1.234-6.168,2.467c-1.234,1.234-1.234,2.467-1.234,3.701c0,1.234,1.234,2.467,2.467,2.467
				c1.234,0,2.467,0,2.467,0c1.234,0,1.234,0,0-1.234c-1.234,0-2.467-1.234-2.467-2.467s0-3.701,1.234-3.701
				s3.701,1.234,4.935,2.467c0,1.234-1.234,4.935-1.234,6.168l-1.234,1.234c-6.168,9.869-24.673,18.505-34.543,23.44
				c-8.636,3.701-17.271,8.636-25.907,13.57c-7.402,4.935-13.57,11.103-17.271,19.739c-1.234,2.467-1.234,3.701-1.234,6.168
				C1148.693,1575.528,1151.16,1584.164,1159.796,1584.164z"/>
			<path d="M1326.342,55.717c-2.467,0-4.935,1.234-6.168,2.467c-1.234,1.234-1.234,2.467-1.234,3.701s1.234,2.467,2.467,2.467
				s2.467,0,2.467,0c1.234,0,1.234,0,0-1.234c-1.234,0-2.467-1.234-2.467-2.467c0-1.234,0-3.701,1.234-3.701
				s3.701,1.234,4.935,2.467c0,2.467-1.234,4.935-1.234,6.168c-1.234,1.234-1.234,1.234-1.234,1.234l0,0l0,0l0,0l0,0l0,0l0,0l0,0
				l0,0l0,0l0,0l0,0l0,0l0,0c-6.168,9.869-24.673,18.505-34.543,23.44c-8.636,3.701-17.271,8.636-25.907,13.57
				c-7.402,4.935-13.57,11.103-17.271,19.739c-1.234,2.467-1.234,3.701-1.234,6.168c0,7.402,2.467,14.804,9.869,16.038
				c2.467,0,4.935-1.234,6.168-2.467s1.234-2.467,1.234-3.701s-1.234-2.467-2.467-2.467s-2.467,0-2.467,0c-1.234,0-1.234,0,0,1.234
				c1.234,0,2.467,1.234,2.467,2.467s0,3.701-1.234,3.701c-1.234,0-3.701-1.234-4.935-2.467c0-1.234,1.234-4.935,1.234-6.168
				l1.234-1.234c6.168-9.869,24.673-18.505,34.543-23.44c8.636-3.701,17.271-8.636,25.907-13.57
				c7.402-4.935,13.57-11.103,17.271-19.739c1.234-2.467,1.234-3.701,1.234-6.168C1337.445,64.353,1334.978,55.717,1326.342,55.717z
				"/>
			<path d="M55.717,313.539c0,2.467,1.234,4.935,2.467,6.168s2.467,1.234,3.701,1.234s2.467-1.234,2.467-2.467s0-2.467,0-2.467
				c0-1.234,0-1.234-1.234,0c0,1.234-1.234,2.467-2.467,2.467c-1.234,0-3.701,0-3.701-1.234s1.234-3.701,2.467-4.935
				c2.467,0,4.935,1.234,6.168,1.234c1.234,1.234,1.234,1.234,1.234,1.234l0,0l0,0l0,0l0,0l0,0l0,0l0,0l0,0l0,0l0,0l0,0l0,0l0,0
				c9.869,6.168,18.505,24.673,23.44,34.543c3.701,8.636,8.636,17.271,13.57,25.907c4.935,7.402,11.103,13.57,19.739,17.271
				c2.467,1.234,3.701,1.234,6.168,1.234c7.402,0,14.804-2.467,16.038-9.869c0-2.467-1.234-4.935-2.467-6.168
				s-2.467-1.234-3.701-1.234s-2.467,1.234-2.467,2.467s0,2.467,0,2.467c0,1.234,0,1.234,1.234,0c0-1.234,1.234-2.467,2.467-2.467
				s3.701,0,3.701,1.234s-1.234,3.701-2.467,4.935c-1.234,0-4.935-1.234-6.168-1.234l-1.234-1.234
				c-9.869-6.168-18.505-24.673-23.44-34.543c-3.701-8.636-8.636-17.271-13.57-25.907c-4.935-7.402-11.103-13.57-19.739-17.271
				c-2.467-1.234-3.701-1.234-6.168-1.234C64.353,302.436,55.717,304.903,55.717,313.539z"/>
			<path d="M313.539,1584.164c2.467,0,4.935-1.234,6.168-2.467c1.234-1.234,1.234-2.467,1.234-3.701s-1.234-2.467-2.467-2.467
				s-2.467,0-2.467,0c-1.234,0-1.234,0,0,1.234c1.234,0,2.467,1.234,2.467,2.467s0,3.701-1.234,3.701s-3.701-1.234-4.935-2.467
				c0-2.467,1.234-4.935,1.234-6.168c1.234-1.234,1.234-1.234,1.234-1.234l0,0l0,0l0,0l0,0l0,0l0,0l0,0l0,0l0,0l0,0l0,0l0,0l0,0
				c6.168-9.869,24.673-18.505,34.543-23.44c8.636-3.701,17.271-8.636,25.907-13.57c7.402-4.935,13.57-11.103,17.271-19.739
				c1.234-2.467,1.234-3.701,1.234-6.168c0-7.402-2.467-14.804-9.869-16.038c-2.467,0-4.935,1.234-6.168,2.467
				c-1.234,1.234-1.234,2.467-1.234,3.701c0,1.234,1.234,2.467,2.467,2.467s2.467,0,2.467,0c1.234,0,1.234,0,0-1.234
				c-1.234,0-2.467-1.234-2.467-2.467s0-3.701,1.234-3.701s3.701,1.234,4.935,2.467c0,1.234-1.234,4.935-1.234,6.168l-1.234,1.234
				c-6.168,9.869-24.673,18.505-34.543,23.44c-8.636,3.701-17.271,8.636-25.907,13.57c-7.402,4.935-13.57,11.103-17.271,19.739
				c-1.234,2.467-1.234,3.701-1.234,6.168C302.436,1575.528,304.903,1584.164,313.539,1584.164z"/>
			<path d="M1584.164,1326.342c0-2.467-1.234-4.935-2.467-6.168c-1.234-1.234-2.467-1.234-3.701-1.234s-2.467,1.234-2.467,2.467
				s0,2.467,0,2.467c0,1.234,0,1.234,1.234,0c0-1.234,1.234-2.467,2.467-2.467s3.701,0,3.701,1.234s-1.234,3.701-2.467,4.935
				c-2.467,0-4.935-1.234-6.168-1.234c-1.234-1.234-1.234-1.234-1.234-1.234l0,0l0,0l0,0l0,0l0,0l0,0l0,0l0,0l0,0l0,0l0,0l0,0l0,0
				c-9.869-6.168-18.505-24.673-23.44-34.543c-3.701-8.636-8.636-17.271-13.57-25.907c-4.935-7.402-11.103-13.57-19.739-17.271
				c-2.467-1.234-3.701-1.234-6.168-1.234c-7.402,0-14.804,2.467-16.038,9.869c0,2.467,1.234,4.935,2.467,6.168
				c1.234,1.234,2.467,1.234,3.701,1.234c1.234,0,2.467-1.234,2.467-2.467s0-2.467,0-2.467c0-1.234,0-1.234-1.234,0
				c0,1.234-1.234,2.467-2.467,2.467s-3.701,0-3.701-1.234c0-1.234,1.234-3.701,2.467-4.935c1.234,0,4.935,1.234,6.168,1.234
				l1.234,1.234c9.869,6.168,18.505,24.673,23.44,34.543c3.701,8.636,8.636,17.271,13.57,25.907
				c4.935,7.402,11.103,13.57,19.739,17.271c2.467,1.234,3.701,1.234,6.168,1.234
				C1575.528,1337.445,1584.164,1334.978,1584.164,1326.342z"/>
			<path d="M1584.164,313.539c0,2.467-1.234,4.935-2.467,6.168c-1.234,1.234-2.467,1.234-3.701,1.234s-2.467-1.234-2.467-2.467
				s0-2.467,0-2.467c0-1.234,0-1.234,1.234,0c0,1.234,1.234,2.467,2.467,2.467s3.701,0,3.701-1.234s-1.234-3.701-2.467-4.935
				c-2.467,0-4.935,1.234-6.168,1.234c-1.234,1.234-1.234,1.234-1.234,1.234l0,0l0,0l0,0l0,0l0,0l0,0l0,0l0,0l0,0l0,0l0,0l0,0l0,0
				c-9.869,6.168-18.505,24.673-23.44,34.543c-3.701,8.636-8.636,17.271-13.57,25.907c-4.935,7.402-11.103,13.57-19.739,17.271
				c-2.467,1.234-3.701,1.234-6.168,1.234c-7.402,0-14.804-2.467-16.038-9.869c0-2.467,1.234-4.935,2.467-6.168
				c1.234-1.234,2.467-1.234,3.701-1.234c1.234,0,2.467,1.234,2.467,2.467s0,2.467,0,2.467c0,1.234,0,1.234-1.234,0
				c0-1.234-1.234-2.467-2.467-2.467s-3.701,0-3.701,1.234s1.234,3.701,2.467,4.935c1.234,0,4.935-1.234,6.168-1.234l1.234-1.234
				c9.869-6.168,18.505-24.673,23.44-34.543c3.701-8.636,8.636-17.271,13.57-25.907c4.935-7.402,11.103-13.57,19.739-17.271
				c2.467-1.234,3.701-1.234,6.168-1.234C1575.528,302.436,1584.164,304.903,1584.164,313.539z"/>
			<path d="M313.539,55.717c2.467,0,4.935,1.234,6.168,2.467s1.234,2.467,1.234,3.701s-1.234,2.467-2.467,2.467s-2.467,0-2.467,0
				c-1.234,0-1.234,0,0-1.234c1.234,0,2.467-1.234,2.467-2.467c0-1.234,0-3.701-1.234-3.701s-3.701,1.234-4.935,2.467
				c0,2.467,1.234,4.935,1.234,6.168c1.234,1.234,1.234,1.234,1.234,1.234l0,0l0,0l0,0l0,0l0,0l0,0l0,0l0,0l0,0l0,0l0,0l0,0l0,0
				c6.168,9.869,24.673,18.505,34.543,23.44c8.636,3.701,17.271,8.636,25.907,13.57c7.402,4.935,13.57,11.103,17.271,19.739
				c1.234,2.467,1.234,3.701,1.234,6.168c0,7.402-2.467,14.804-9.869,16.038c-2.467,0-4.935-1.234-6.168-2.467
				s-1.234-2.467-1.234-3.701s1.234-2.467,2.467-2.467s2.467,0,2.467,0c1.234,0,1.234,0,0,1.234c-1.234,0-2.467,1.234-2.467,2.467
				s0,3.701,1.234,3.701s3.701-1.234,4.935-2.467c0-1.234-1.234-4.935-1.234-6.168l-1.234-1.234
				c-6.168-9.869-24.673-18.505-34.543-23.44c-8.636-3.701-17.271-8.636-25.907-13.57c-7.402-4.935-13.57-11.103-17.271-19.739
				c-1.234-2.467-1.234-3.701-1.234-6.168C302.436,64.353,304.903,55.717,313.539,55.717z"/>
			<path d="M55.717,1326.342c0-2.467,1.234-4.935,2.467-6.168c1.234-1.234,2.467-1.234,3.701-1.234s2.467,1.234,2.467,2.467
				s0,2.467,0,2.467c0,1.234,0,1.234-1.234,0c0-1.234-1.234-2.467-2.467-2.467c-1.234,0-3.701,0-3.701,1.234
				s1.234,3.701,2.467,4.935c2.467,0,4.935-1.234,6.168-1.234c1.234-1.234,1.234-1.234,1.234-1.234l0,0l0,0l0,0l0,0l0,0l0,0l0,0l0,0
				l0,0l0,0l0,0l0,0l0,0c9.869-6.168,18.505-24.673,23.44-34.543c3.701-8.636,8.636-17.271,13.57-25.907
				c4.935-7.402,11.103-13.57,19.739-17.271c2.467-1.234,3.701-1.234,6.168-1.234c7.402,0,14.804,2.467,16.038,9.869
				c0,2.467-1.234,4.935-2.467,6.168s-2.467,1.234-3.701,1.234s-2.467-1.234-2.467-2.467s0-2.467,0-2.467c0-1.234,0-1.234,1.234,0
				c0,1.234,1.234,2.467,2.467,2.467s3.701,0,3.701-1.234c0-1.234-1.234-3.701-2.467-4.935c-1.234,0-4.935,1.234-6.168,1.234
				l-1.234,1.234c-9.869,6.168-18.505,24.673-23.44,34.543c-3.701,8.636-8.636,17.271-13.57,25.907
				c-4.935,7.402-11.103,13.57-19.739,17.271c-2.467,1.234-3.701,1.234-6.168,1.234
				C64.353,1337.445,55.717,1334.978,55.717,1326.342z"/>
			<path d="M1326.342,1584.164c-2.467,0-4.935-1.234-6.168-2.467c-1.234-1.234-1.234-2.467-1.234-3.701s1.234-2.467,2.467-2.467
				s2.467,0,2.467,0c1.234,0,1.234,0,0,1.234c-1.234,0-2.467,1.234-2.467,2.467s0,3.701,1.234,3.701s3.701-1.234,4.935-2.467
				c0-2.467-1.234-4.935-1.234-6.168c-1.234-1.234-1.234-1.234-1.234-1.234l0,0l0,0l0,0l0,0l0,0l0,0l0,0l0,0l0,0l0,0l0,0l0,0l0,0
				c-6.168-9.869-24.673-18.505-34.543-23.44c-8.636-3.701-17.271-8.636-25.907-13.57c-7.402-4.935-13.57-11.103-17.271-19.739
				c-1.234-2.467-1.234-3.701-1.234-6.168c0-7.402,2.467-14.804,9.869-16.038c2.467,0,4.935,1.234,6.168,2.467
				c1.234,1.234,1.234,2.467,1.234,3.701c0,1.234-1.234,2.467-2.467,2.467s-2.467,0-2.467,0c-1.234,0-1.234,0,0-1.234
				c1.234,0,2.467-1.234,2.467-2.467s0-3.701-1.234-3.701c-1.234,0-3.701,1.234-4.935,2.467c0,1.234,1.234,4.935,1.234,6.168
				l1.234,1.234c6.168,9.869,24.673,18.505,34.543,23.44c8.636,3.701,17.271,8.636,25.907,13.57
				c7.402,4.935,13.57,11.103,17.271,19.739c1.234,2.467,1.234,3.701,1.234,6.168
				C1337.445,1575.528,1334.978,1584.164,1326.342,1584.164z"/>
		</g>
		<g>
			<path d="M827.938,142.074c6.168-7.402,14.804-9.869,19.739-9.869c6.168,0,9.869,2.467,11.103,6.168
				c2.467,3.701,2.467,8.636,1.234,12.337c-1.234,3.701-3.701,6.168-6.168,7.402c-1.234,1.234-2.467,1.234-1.234-1.234
				c0-2.467,1.234-7.402-1.234-12.337c-2.467-3.701-8.636-6.168-12.337-3.701c-3.701,2.467-7.402,11.103-3.701,16.038
				c3.701,4.935,13.57,7.402,18.505,8.636c3.701,1.234,4.935,1.234,4.935,1.234l0,0l0,0l0,0l0,0l0,0l0,0l0,0l0,0l0,0l0,0l0,0l0,0
				l0,0c37.01,4.935,93.759-19.739,128.302-34.543c27.141-11.103,56.749-23.44,85.123-32.075c25.907-7.402,55.515-9.869,81.422,0
				c6.168,2.467,12.337,6.168,17.271,9.869c19.739,14.804,32.075,35.777,18.505,55.515c-6.168,7.402-14.804,9.869-19.739,9.869
				c-6.168,0-9.869-2.467-11.103-6.168c-2.467-3.701-2.467-8.636-1.234-12.337c1.234-3.701,3.701-6.168,6.168-7.402
				c1.234-1.234,2.467-1.234,1.234,1.234c0,2.467-1.234,7.402,1.234,12.337c2.467,3.701,8.636,6.168,12.337,3.701
				c3.701-2.467,7.402-11.103,3.701-16.038s-12.337-7.402-17.271-8.636c-1.234,0-3.701,0-4.935-1.234
				c-37.01-4.935-93.759,19.739-128.302,34.543c-27.141,11.103-56.749,23.44-85.123,32.075c-25.907,7.402-55.515,9.869-81.422,0
				c-6.168-2.467-12.337-6.168-17.271-9.869C827.938,182.785,814.368,160.579,827.938,142.074z M857.546,184.019
				c71.553,53.048,215.893-71.553,304.717-59.216C1090.71,71.755,946.371,196.356,857.546,184.019z"/>
			<path d="M142.074,811.943c-7.402-6.168-9.869-14.804-9.869-19.739c0-6.168,2.467-9.869,6.168-11.103
				c3.701-2.467,8.636-2.467,12.337-1.234c3.701,1.234,6.168,3.701,7.402,6.168c1.234,1.234,1.234,2.467-1.234,1.234
				c-2.467,0-7.402-1.234-12.337,1.234c-3.701,2.467-6.168,8.636-3.701,12.337c2.467,3.701,11.103,7.402,16.038,3.701
				c4.935-3.701,7.402-13.57,8.636-18.505c1.234-3.701,1.234-4.935,1.234-4.935l0,0l0,0l0,0l0,0l0,0l0,0l0,0l0,0l0,0l0,0l0,0l0,0
				l0,0c4.935-37.01-19.739-93.759-34.543-128.302c-11.103-27.141-23.44-56.749-32.075-85.123c-7.402-25.907-9.869-55.515,0-81.422
				c2.467-6.168,6.168-12.337,9.869-17.271c14.804-19.739,35.777-32.075,55.515-18.505c7.402,6.168,9.869,14.804,9.869,19.739
				c0,6.168-2.467,9.869-6.168,11.103c-3.701,2.467-8.636,2.467-12.337,1.234c-3.701-1.234-6.168-3.701-7.402-6.168
				c-1.234-1.234-1.234-2.467,1.234-1.234c2.467,0,7.402,1.234,12.337-1.234c3.701-2.467,6.168-8.636,3.701-12.337
				c-2.467-3.701-11.103-7.402-16.038-3.701s-7.402,12.337-8.636,17.271c0,1.234,0,3.701-1.234,4.935
				c-4.935,37.01,19.739,93.759,34.543,128.302c11.103,27.141,23.44,56.749,32.075,85.123c7.402,25.907,9.869,55.515,0,81.422
				c-2.467,6.168-6.168,12.337-9.869,17.271C182.785,811.943,160.579,825.513,142.074,811.943z M184.019,782.335
				c53.048-71.553-71.553-215.893-59.216-304.717C71.755,549.17,196.356,693.51,184.019,782.335z"/>
			<path d="M811.943,1497.807c-6.168,7.402-14.804,9.869-19.739,9.869c-6.168,0-9.869-2.467-11.103-6.168
				c-2.467-3.701-2.467-8.636-1.234-12.337c1.234-3.701,3.701-6.168,6.168-7.402c1.234-1.234,2.467-1.234,1.234,1.234
				c0,2.467-1.234,7.402,1.234,12.337c2.467,3.701,8.636,6.168,12.337,3.701c3.701-2.467,7.402-11.103,3.701-16.038
				c-3.701-4.935-13.57-7.402-18.505-8.636c-3.701-1.234-4.935-1.234-4.935-1.234l0,0l0,0l0,0l0,0l0,0l0,0l0,0l0,0l0,0l0,0l0,0l0,0
				l0,0c-37.01-4.935-93.759,19.739-128.302,34.543c-27.141,11.103-56.749,23.44-85.123,32.075c-25.907,7.402-55.515,9.869-81.422,0
				c-6.168-2.467-12.337-6.168-17.271-9.869c-19.739-14.804-32.075-35.776-18.505-55.515c6.168-7.402,14.804-9.869,19.739-9.869
				c6.168,0,9.869,2.467,11.103,6.168c2.467,3.701,2.467,8.636,1.234,12.337s-3.701,6.168-6.168,7.402
				c-1.234,1.234-2.467,1.234-1.234-1.234c0-2.467,1.234-7.402-1.234-12.337c-2.467-3.701-8.636-6.168-12.337-3.701
				c-3.701,2.467-7.402,11.103-3.701,16.038s12.337,7.402,17.271,8.636c1.234,0,3.701,0,4.935,1.234
				c37.01,4.935,93.759-19.739,128.302-34.543c27.141-11.103,56.749-23.44,85.123-32.075c25.907-7.402,55.515-9.869,81.422,0
				c6.168,2.467,12.337,6.168,17.271,9.869C811.943,1457.096,825.513,1479.302,811.943,1497.807z M782.335,1455.862
				c-71.553-53.048-215.893,71.553-304.717,59.216C549.17,1568.126,693.51,1443.525,782.335,1455.862z"/>
			<path d="M1497.807,827.938c7.402,6.168,9.869,14.804,9.869,19.739c0,6.168-2.467,9.869-6.168,11.103
				c-3.701,2.467-8.636,2.467-12.337,1.234c-3.701-1.234-6.168-3.701-7.402-6.168c-1.234-1.234-1.234-2.467,1.234-1.234
				c2.467,0,7.402,1.234,12.337-1.234c3.701-2.467,6.168-8.636,3.701-12.337c-2.467-3.701-11.103-7.402-16.038-3.701
				c-4.935,3.701-7.402,13.57-8.636,18.505c-1.234,3.701-1.234,4.935-1.234,4.935l0,0l0,0l0,0l0,0l0,0l0,0l0,0l0,0l0,0l0,0l0,0l0,0
				l0,0c-4.935,37.01,19.739,93.759,34.543,128.302c11.103,27.141,23.44,56.749,32.075,85.123c7.402,25.907,9.869,55.515,0,81.422
				c-2.467,6.168-6.168,12.337-9.869,17.271c-14.804,19.739-35.776,32.075-55.515,18.505c-7.402-6.168-9.869-14.804-9.869-19.739
				c0-6.168,2.467-9.869,6.168-11.103c3.701-2.467,8.636-2.467,12.337-1.234s6.168,3.701,7.402,6.168
				c1.234,1.234,1.234,2.467-1.234,1.234c-2.467,0-7.402-1.234-12.337,1.234c-3.701,2.467-6.168,8.636-3.701,12.337
				c2.467,3.701,11.103,7.402,16.038,3.701s7.402-12.337,8.636-17.271c0-1.234,0-3.701,1.234-4.935
				c4.935-37.01-19.739-93.759-34.543-128.302c-11.103-27.141-23.44-56.749-32.075-85.123c-7.402-25.907-9.869-55.515,0-81.422
				c2.467-6.168,6.168-12.337,9.869-17.271C1457.096,827.938,1479.302,814.368,1497.807,827.938z M1455.862,857.546
				c-53.048,71.553,71.553,215.893,59.216,304.717C1568.126,1090.71,1443.525,946.371,1455.862,857.546z"/>
			<path d="M1497.807,811.943c7.402-6.168,9.869-14.804,9.869-19.739c0-6.168-2.467-9.869-6.168-11.103
				c-3.701-2.467-8.636-2.467-12.337-1.234c-3.701,1.234-6.168,3.701-7.402,6.168c-1.234,1.234-1.234,2.467,1.234,1.234
				c2.467,0,7.402-1.234,12.337,1.234c3.701,2.467,6.168,8.636,3.701,12.337c-2.467,3.701-11.103,7.402-16.038,3.701
				c-4.935-3.701-7.402-13.57-8.636-18.505c-1.234-3.701-1.234-4.935-1.234-4.935l0,0l0,0l0,0l0,0l0,0l0,0l0,0l0,0l0,0l0,0l0,0l0,0
				l0,0c-4.935-37.01,19.739-93.759,34.543-128.302c11.103-27.141,23.44-56.749,32.075-85.123c7.402-25.907,9.869-55.515,0-81.422
				c-2.467-6.168-6.168-12.337-9.869-17.271c-14.804-19.739-35.776-32.075-55.515-18.505c-7.402,6.168-9.869,14.804-9.869,19.739
				c0,6.168,2.467,9.869,6.168,11.103c3.701,2.467,8.636,2.467,12.337,1.234s6.168-3.701,7.402-6.168
				c1.234-1.234,1.234-2.467-1.234-1.234c-2.467,0-7.402,1.234-12.337-1.234c-3.701-2.467-6.168-8.636-3.701-12.337
				c2.467-3.701,11.103-7.402,16.038-3.701s7.402,12.337,8.636,17.271c0,1.234,0,3.701,1.234,4.935
				c4.935,37.01-19.739,93.759-34.543,128.302c-11.103,27.141-23.44,56.749-32.075,85.123c-7.402,25.907-9.869,55.515,0,81.422
				c2.467,6.168,6.168,12.337,9.869,17.271C1457.096,811.943,1479.302,825.513,1497.807,811.943z M1455.862,782.335
				c-53.048-71.553,71.553-215.893,59.216-304.717C1568.126,549.17,1443.525,693.51,1455.862,782.335z"/>
			<path d="M811.943,142.074c-6.168-7.402-14.804-9.869-19.739-9.869c-6.168,0-9.869,2.467-11.103,6.168
				c-2.467,3.701-2.467,8.636-1.234,12.337c1.234,3.701,3.701,6.168,6.168,7.402c1.234,1.234,2.467,1.234,1.234-1.234
				c0-2.467-1.234-7.402,1.234-12.337c2.467-3.701,8.636-6.168,12.337-3.701c3.701,2.467,7.402,11.103,3.701,16.038
				c-3.701,4.935-13.57,7.402-18.505,8.636c-3.701,1.234-4.935,1.234-4.935,1.234l0,0l0,0l0,0l0,0l0,0l0,0l0,0l0,0l0,0l0,0l0,0l0,0
				l0,0c-37.01,4.935-93.759-19.739-128.302-34.543c-27.141-11.103-56.749-23.44-85.123-32.075c-25.907-7.402-55.515-9.869-81.422,0
				c-6.168,2.467-12.337,6.168-17.271,9.869c-19.739,14.804-32.075,35.777-18.505,55.515c6.168,7.402,14.804,9.869,19.739,9.869
				c6.168,0,9.869-2.467,11.103-6.168c2.467-3.701,2.467-8.636,1.234-12.337c-1.234-3.701-3.701-6.168-6.168-7.402
				c-1.234-1.234-2.467-1.234-1.234,1.234c0,2.467,1.234,7.402-1.234,12.337c-2.467,3.701-8.636,6.168-12.337,3.701
				c-3.701-2.467-7.402-11.103-3.701-16.038s12.337-7.402,17.271-8.636c1.234,0,3.701,0,4.935-1.234
				c37.01-4.935,93.759,19.739,128.302,34.543c27.141,11.103,56.749,23.44,85.123,32.075c25.907,7.402,55.515,9.869,81.422,0
				c6.168-2.467,12.337-6.168,17.271-9.869C811.943,182.785,825.513,160.579,811.943,142.074z M782.335,184.019
				c-71.553,53.048-215.893-71.553-304.717-59.216C549.17,71.755,693.51,196.356,782.335,184.019z"/>
			<path d="M142.074,827.938c-7.402,6.168-9.869,14.804-9.869,19.739c0,6.168,2.467,9.869,6.168,11.103
				c3.701,2.467,8.636,2.467,12.337,1.234c3.701-1.234,6.168-3.701,7.402-6.168c1.234-1.234,1.234-2.467-1.234-1.234
				c-2.467,0-7.402,1.234-12.337-1.234c-3.701-2.467-6.168-8.636-3.701-12.337c2.467-3.701,11.103-7.402,16.038-3.701
				c4.935,3.701,7.402,13.57,8.636,18.505c1.234,3.701,1.234,4.935,1.234,4.935l0,0l0,0l0,0l0,0l0,0l0,0l0,0l0,0l0,0l0,0l0,0l0,0
				l0,0c4.935,37.01-19.739,93.759-34.543,128.302c-11.103,27.141-23.44,56.749-32.075,85.123c-7.402,25.907-9.869,55.515,0,81.422
				c2.467,6.168,6.168,12.337,9.869,17.271c14.804,19.739,35.777,32.075,55.515,18.505c7.402-6.168,9.869-14.804,9.869-19.739
				c0-6.168-2.467-9.869-6.168-11.103c-3.701-2.467-8.636-2.467-12.337-1.234c-3.701,1.234-6.168,3.701-7.402,6.168
				c-1.234,1.234-1.234,2.467,1.234,1.234c2.467,0,7.402-1.234,12.337,1.234c3.701,2.467,6.168,8.636,3.701,12.337
				c-2.467,3.701-11.103,7.402-16.038,3.701s-7.402-12.337-8.636-17.271c0-1.234,0-3.701-1.234-4.935
				c-4.935-37.01,19.739-93.759,34.543-128.302c11.103-27.141,23.44-56.749,32.075-85.123c7.402-25.907,9.869-55.515,0-81.422
				c-2.467-6.168-6.168-12.337-9.869-17.271C182.785,827.938,160.579,814.368,142.074,827.938z M184.019,857.546
				c53.048,71.553-71.553,215.893-59.216,304.717C71.755,1090.71,196.356,946.371,184.019,857.546z"/>
			<path d="M827.938,1497.807c6.168,7.402,14.804,9.869,19.739,9.869c6.168,0,9.869-2.467,11.103-6.168
				c2.467-3.701,2.467-8.636,1.234-12.337c-1.234-3.701-3.701-6.168-6.168-7.402c-1.234-1.234-2.467-1.234-1.234,1.234
				c0,2.467,1.234,7.402-1.234,12.337c-2.467,3.701-8.636,6.168-12.337,3.701c-3.701-2.467-7.402-11.103-3.701-16.038
				c3.701-4.935,13.57-7.402,18.505-8.636c3.701-1.234,4.935-1.234,4.935-1.234l0,0l0,0l0,0l0,0l0,0l0,0l0,0l0,0l0,0l0,0l0,0l0,0
				l0,0c37.01-4.935,93.759,19.739,128.302,34.543c27.141,11.103,56.749,23.44,85.123,32.075c25.907,7.402,55.515,9.869,81.422,0
				c6.168-2.467,12.337-6.168,17.271-9.869c19.739-14.804,32.075-35.776,18.505-55.515c-6.168-7.402-14.804-9.869-19.739-9.869
				c-6.168,0-9.869,2.467-11.103,6.168c-2.467,3.701-2.467,8.636-1.234,12.337s3.701,6.168,6.168,7.402
				c1.234,1.234,2.467,1.234,1.234-1.234c0-2.467-1.234-7.402,1.234-12.337c2.467-3.701,8.636-6.168,12.337-3.701
				c3.701,2.467,7.402,11.103,3.701,16.038s-12.337,7.402-17.271,8.636c-1.234,0-3.701,0-4.935,1.234
				c-37.01,4.935-93.759-19.739-128.302-34.543c-27.141-11.103-56.749-23.44-85.123-32.075c-25.907-7.402-55.515-9.869-81.422,0
				c-6.168,2.467-12.337,6.168-17.271,9.869C827.938,1457.096,814.368,1479.302,827.938,1497.807z M857.546,1455.862
				c71.553-53.048,215.893,71.553,304.717,59.216C1090.71,1568.126,946.371,1443.525,857.546,1455.862z"/>
			<path d="M1505.091,134.79c-2.077-0.888-4.091-1.753-6.035-2.586c-27.141-11.103-56.749-23.44-85.123-32.075
				c-25.907-7.402-55.515-9.869-81.422,0c-6.168,2.467-12.337,6.168-17.271,9.869c-19.739,14.804-32.076,35.777-18.505,55.515
				c6.168,7.402,14.804,9.869,19.739,9.869c6.168,0,9.869-2.467,11.103-6.168c2.467-3.701,2.467-8.636,1.234-12.337
				c-1.234-3.701-3.701-6.168-6.168-7.402c-1.234-1.234-2.467-1.234-1.234,1.234c0,2.467,1.234,7.402-1.234,12.337
				c-2.467,3.701-8.636,6.168-12.337,3.701s-7.402-11.103-3.701-16.038c3.701-4.935,12.337-7.402,17.271-8.636
				c1.234,0,3.701,0,4.935-1.234c37.01-4.935,93.759,19.739,128.302,34.543c2.313,0.946,4.644,1.902,6.991,2.863
				c0.961,2.347,1.917,4.678,2.863,6.991c14.804,34.543,39.478,91.292,34.543,128.302c-1.234,1.234-1.234,3.701-1.234,4.935
				c-1.234,4.935-3.701,13.57-8.636,17.271s-13.57,0-16.038-3.701c-2.467-3.701,0-9.869,3.701-12.337
				c4.935-2.467,9.869-1.234,12.337-1.234c2.467,1.234,2.467,0,1.234-1.234c-1.234-2.467-3.701-4.935-7.402-6.168
				s-8.636-1.234-12.337,1.234c-3.701,1.234-6.168,4.935-6.168,11.103c0,4.935,2.467,13.57,9.869,19.739
				c19.739,13.57,40.711,1.234,55.515-18.505c3.701-4.935,7.402-11.103,9.869-17.271c9.869-25.907,7.402-55.515,0-81.422
				c-8.636-28.374-20.972-57.983-32.075-85.123C1506.843,138.881,1505.979,136.867,1505.091,134.79z M1505.091,1505.091
				c0.888-2.077,1.753-4.091,2.586-6.035c11.103-27.141,23.44-56.749,32.075-85.123c7.402-25.907,9.869-55.515,0-81.422
				c-2.467-6.168-6.168-12.337-9.869-17.271c-14.804-19.739-35.776-32.076-55.515-18.505c-7.402,6.168-9.869,14.804-9.869,19.739
				c0,6.168,2.467,9.869,6.168,11.103c3.701,2.467,8.636,2.467,12.337,1.234c3.701-1.234,6.168-3.701,7.402-6.168
				c1.234-1.234,1.234-2.467-1.234-1.234c-2.467,0-7.402,1.234-12.337-1.234c-3.701-2.467-6.168-8.636-3.701-12.337
				c2.467-3.701,11.103-7.402,16.038-3.701c4.935,3.701,7.402,12.337,8.636,17.271c0,1.234,0,3.701,1.234,4.935
				c4.935,37.01-19.739,93.759-34.543,128.302c-0.946,2.313-1.902,4.644-2.863,6.991c-2.347,0.961-4.678,1.917-6.991,2.863
				c-34.543,14.804-91.292,39.478-128.302,34.543c-1.234-1.234-3.701-1.234-4.935-1.234c-4.935-1.234-13.57-3.701-17.271-8.636
				c-3.701-4.935,0-13.57,3.701-16.038c3.701-2.467,9.869,0,12.337,3.701c2.467,4.935,1.234,9.869,1.234,12.337
				c-1.234,2.467,0,2.467,1.234,1.234c2.467-1.234,4.935-3.701,6.168-7.402c1.234-3.701,1.234-8.636-1.234-12.337
				c-1.234-3.701-4.935-6.168-11.103-6.168c-4.935,0-13.57,2.467-19.739,9.869c-13.57,19.739-1.234,40.711,18.505,55.515
				c4.935,3.701,11.103,7.402,17.271,9.869c25.907,9.869,55.515,7.402,81.422,0c28.375-8.636,57.983-20.972,85.123-32.075
				C1501,1506.843,1503.014,1505.979,1505.091,1505.091z M134.79,1505.091c2.077,0.888,4.091,1.753,6.034,2.586
				c27.141,11.103,56.749,23.44,85.123,32.075c25.907,7.402,55.515,9.869,81.422,0c6.168-2.467,12.337-6.168,17.271-9.869
				c19.739-14.804,32.076-35.776,18.505-55.515c-6.168-7.402-14.804-9.869-19.739-9.869c-6.168,0-9.869,2.467-11.103,6.168
				c-2.467,3.701-2.467,8.636-1.234,12.337s3.701,6.168,6.168,7.402c1.234,1.234,2.467,1.234,1.234-1.234
				c0-2.467-1.234-7.402,1.234-12.337c2.467-3.701,8.636-6.168,12.337-3.701c3.701,2.467,7.402,11.103,3.701,16.038
				s-12.337,7.402-17.271,8.636c-1.234,0-3.701,0-4.935,1.234c-37.01,4.935-93.759-19.739-128.302-34.543
				c-2.313-0.946-4.644-1.902-6.991-2.863c-0.961-2.347-1.916-4.678-2.863-6.991c-14.804-34.543-39.478-91.292-34.543-128.302
				c1.234-1.234,1.234-3.701,1.234-4.935c1.234-4.935,3.701-13.57,8.636-17.271c4.935-3.701,13.57,0,16.038,3.701
				s0,9.869-3.701,12.337c-4.935,2.467-9.869,1.234-12.337,1.234c-2.467-1.234-2.467,0-1.234,1.234
				c1.234,2.467,3.701,4.935,7.402,6.168c3.701,1.234,8.636,1.234,12.337-1.234c3.701-1.234,6.168-4.935,6.168-11.103
				c0-4.935-2.467-13.57-9.869-19.739c-19.739-13.57-40.711-1.234-55.515,18.505c-3.701,4.935-7.402,11.103-9.869,17.271
				c-9.869,25.907-7.402,55.515,0,81.422c8.636,28.375,20.972,57.983,32.075,85.123C133.038,1501,133.902,1503.014,134.79,1505.091z
				 M134.79,134.79c-0.888,2.077-1.753,4.091-2.586,6.034c-11.103,27.141-23.44,56.749-32.075,85.123
				c-7.402,25.907-9.869,55.515,0,81.422c2.467,6.168,6.168,12.337,9.869,17.271c14.804,19.739,35.777,32.076,55.515,18.505
				c7.402-6.168,9.869-14.804,9.869-19.739c0-6.168-2.467-9.869-6.168-11.103c-3.701-2.467-8.636-2.467-12.337-1.234
				c-3.701,1.234-6.168,3.701-7.402,6.168c-1.234,1.234-1.234,2.467,1.234,1.234c2.467,0,7.402-1.234,12.337,1.234
				c3.701,2.467,6.168,8.636,3.701,12.337s-11.103,7.402-16.038,3.701s-7.402-12.337-8.636-17.271c0-1.234,0-3.701-1.234-4.935
				c-4.935-37.01,19.739-93.759,34.543-128.302c0.946-2.313,1.902-4.644,2.863-6.991c2.347-0.961,4.678-1.916,6.991-2.863
				c34.543-14.804,91.292-39.478,128.302-34.543c1.234,1.234,3.701,1.234,4.935,1.234c4.935,1.234,13.57,3.701,17.271,8.636
				s0,13.57-3.701,16.038s-9.869,0-12.337-3.701c-2.467-4.935-1.234-9.869-1.234-12.337c1.234-2.467,0-2.467-1.234-1.234
				c-2.467,1.234-4.935,3.701-6.168,7.402c-1.234,3.701-1.234,8.636,1.234,12.337c1.234,3.701,4.935,6.168,11.103,6.168
				c4.935,0,13.57-2.467,19.739-9.869c13.57-19.739,1.234-40.711-18.505-55.515c-4.935-3.701-11.103-7.402-17.271-9.869
				c-25.907-9.869-55.515-7.402-81.422,0c-28.374,8.636-57.983,20.972-85.123,32.075C138.881,133.038,136.867,133.902,134.79,134.79
				z M1473.857,166.024c-53.359-22.175-107.901-47.066-149.983-41.221c40.41-29.959,104.035-3.257,167.764,23.439
				c26.697,63.729,53.398,127.355,23.439,167.764C1520.923,273.925,1496.032,219.383,1473.857,166.024z M1473.857,1473.857
				c22.175-53.359,47.066-107.901,41.221-149.983c29.959,40.41,3.257,104.035-23.439,167.764
				c-63.729,26.697-127.354,53.398-167.764,23.439C1365.956,1520.923,1420.498,1496.032,1473.857,1473.857z M166.024,1473.857
				c53.359,22.175,107.901,47.066,149.983,41.221c-40.41,29.959-104.035,3.257-167.764-23.439
				c-26.697-63.729-53.398-127.354-23.439-167.764C118.958,1365.956,143.849,1420.498,166.024,1473.857z M166.024,166.024
				c-22.175,53.359-47.066,107.901-41.221,149.983c-29.959-40.41-3.257-104.035,23.439-167.764
				c63.729-26.697,127.355-53.398,167.764-23.439C273.925,118.958,219.383,143.849,166.024,166.024z"/>
		</g>
	</g>
	<path d="M1243.686,108.765c-57.983-39.478,0-59.216,0-88.824C1243.686,49.549,1301.668,69.287,1243.686,108.765z M1243.686,85.325
		c-27.141-18.505,0-28.374,0-41.945C1243.686,56.951,1270.827,66.82,1243.686,85.325z"/>
	<path d="M108.765,396.195c-39.478,57.983-59.216,0-88.824,0C49.549,396.195,69.287,338.212,108.765,396.195z M85.325,396.195
		c-18.505,27.141-28.374,0-41.945,0C56.951,396.195,66.82,369.054,85.325,396.195z"/>
	<path d="M396.195,1531.116c57.983,39.478,0,59.216,0,88.824C396.195,1590.332,338.212,1570.594,396.195,1531.116z
		 M396.195,1554.556c27.141,18.505,0,28.375,0,41.945C396.195,1582.93,369.054,1573.061,396.195,1554.556z"/>
	<path d="M1531.116,1243.686c39.478-57.983,59.216,0,88.824,0C1590.332,1243.686,1570.594,1301.668,1531.116,1243.686z
		 M1554.556,1243.686c18.505-27.141,28.375,0,41.945,0C1582.93,1243.686,1573.061,1270.827,1554.556,1243.686z"/>
	<path d="M1531.116,396.195c39.478,57.983,59.216,0,88.824,0C1590.332,396.195,1570.594,338.212,1531.116,396.195z
		 M1554.556,396.195c18.505,27.141,28.375,0,41.945,0C1582.93,396.195,1573.061,369.054,1554.556,396.195z"/>
	<path d="M396.195,108.765c57.983-39.478,0-59.216,0-88.824C396.195,49.549,338.212,69.287,396.195,108.765z M396.195,85.325
		c27.141-18.505,0-28.374,0-41.945C396.195,56.951,369.054,66.82,396.195,85.325z"/>
	<path d="M108.765,1243.686c-39.478-57.983-59.216,0-88.824,0C49.549,1243.686,69.287,1301.668,108.765,1243.686z M85.325,1243.686
		c-18.505-27.141-28.374,0-41.945,0C56.951,1243.686,66.82,1270.827,85.325,1243.686z"/>
	<path d="M1243.686,1531.116c-57.983,39.478,0,59.216,0,88.824C1243.686,1590.332,1301.668,1570.594,1243.686,1531.116z
		 M1243.686,1554.556c-27.141,18.505,0,28.375,0,41.945C1243.686,1582.93,1270.827,1573.061,1243.686,1554.556z"/>
</g>
</svg>
