<?xml version="1.0" encoding="utf-8"?>

<!DOCTYPE svg PUBLIC "-//W3C//DTD SVG 1.1//EN" "http://www.w3.org/Graphics/SVG/1.1/DTD/svg11.dtd">
<svg version="1.1" id="Layer_1" xmlns="http://www.w3.org/2000/svg" xmlns:xlink="http://www.w3.org/1999/xlink" x="0px" y="0px" 
	 viewBox="0 0 1659.144 1654.015" enable-background="new 0 0 1659.144 1654.015" xml:space="preserve" >
<g>
	<path fill="darkblue" d="M1628.55,700.642c-11.662-7.95-18.394-8.379-14.021-17.661c13.197-28.018-0.575-57.879-7.749-97.68
		c-3.519-19.521-5.867-18.817-15.832-26.424c-6.592-5.032-5.93-6.52-1.298-18.056c4.68-11.654,9.477-23.269,7.859-36.299
		c-0.114-0.922,0.257-1.981,0.641-2.874c3.353-7.794-2.672-8.19-5.994-34.278c-1.163-9.131-11.474-50.539-10.814-68.504
		c1.305-35.538-10.058-62.686-19.121-72.607c-24.873-27.227-21.934-40.876-68.601-34.495c-2.808,0.384-5.541,1.391-8.173-0.071
		c-18.873-10.479-51.577,5.306-58.863,8.007c-13.27,4.92-23.89,14.011-29.625,26.878c-4.346,9.751-8.78,19.741-10.657,30.512
		c-2.429,13.939-14.726,30.428-18.544,47.066c-3.113,13.563-9.436,26.236-11.922,40.039c-0.56,3.109-2.886,10.514-7.367,8.453
		c-4.955-2.279-10.348-0.203-15.224-1.773c-7.309-2.352-15.036-2.528-22.393-3.072c-27.594-2.043-61.882-17.308-70.391-18.129
		c-14.733-1.422-42.665-10.616-49.773-26.356c-6.815-15.092-14.3-29.958-17.587-46.421c-0.639-3.199-2.25-6.171-2.616-9.511
		c-4.556-41.616-6.285,10.751-5.906-69.935c0.057-12.158,7.313-12.87,2.257-21.177c-0.851-1.399-1.919-2.901-2.086-4.444
		c-1.024-9.465-4.17-18.771-2.129-28.489c1.743-8.302-17.461-15.483-26.351-17.578c-15.513-3.656-24.865,33.288-24.165,35.564
		c1.598,5.198,0.518,10.522,0.835,15.776c0.577,9.572-14.872,8.364-23.593,14.496c-13.579,9.549-22.312,8.877-52.697,23.893
		c-7.113,3.516-15.246,4.191-22.305,7.923c-1.657,0.876-4.584,2.099-5.036-0.083c-0.525-2.531-2.633-6.024,0.483-8.304
		c17.352-12.699,8.563-38.012,17.767-60.439c0.117-0.285,0.04-0.656,0.027-0.986c-0.44-11.182,10.017-28.182-8.098-52.13
		c-11.924-15.762-27.066-24.241-47.303-22.127c-7.648,0.799-6.118-2.348-14.031-1.941c-17.256,0.889-34.364,1.251-49.182,12.845
		c-15.225,11.913-4.703,6.641-16.908,22.716c-3.936,5.183-3.197,12.104-6.861,17.327c-1.868,2.662-2.527,5.668-2.545,8.89
		c-0.107,18.672-31.576-55.302-62.223-100.916c-4.893-7.283,3.257-4.949,4.2-11.169c2.417-15.93,3.497-14.464,2.235-17.735
		c-5.644-14.628,8.729-43.232-7.512-43.533c-7.281-0.135-8.988-7.504-10.546-8.235c-7.756-3.639-15.588-7.277-24.415-6.8
		c-3.168,0.171-6.154,1.407-7.785-2.689c-0.402-1.01-2.001-1.314-3.104-0.947c-5.935,1.977-21.362,1.718-19.809,14.452
		c1.057,8.669-3.185,16.862-2.169,25.523c0.085,0.725-0.347,1.692-0.851,2.279c-9.242,10.785-2.324,28.49-5.933,38.33
		c-32.361,88.235-68.85,85.217-103.515,146.126c-4.621,8.12-3.898,14.656-22.514,19.832c-59.64,16.582-37.708,13.988-58.611,21.418
		c-4.345,1.545-35.049,15.568-54.372,15.311c-11.243-0.15-22.32,0.717-32.83,5.174c-1.731,0.734-3.528,0.909-5.348,0.771
		c-14.831-1.124-36,10.273-44.377,10.251c-3.677-0.01-6.549,3.188-6.746,6.912c-0.555,10.507-11.957-0.249-20.914,0.68
		c-7.366,0.764-13.918-2.192-20.738-4.031c-1.612-0.435-2.684-1.282-2.03-2.651c3.512-7.35,2.313-15.992,6.423-23.132
		c18.44-32.035,4.355-47.346,19.043-56.453c4.349-2.697,5.32-4.585,10.433-26.958c3.156-13.811-32.745-1.616-21.193-16.319
		c6.794-8.648-1.122-15.246-2.71-27.084c-1.74-12.966-11.713-38.533-24.745-44.022c-12.372-5.211-39.471-24.171-56.877-21.297
		c-7.874,1.3-15.612,3.539-23.634,1.096c-1.155-0.352-2.389-0.203-3.272,0.647c-3.4,3.279-7.973,2.285-11.965,3.387
		c-0.729,0.201-1.644-0.187-1.518-0.8c1.201-5.839-2.342-1.367-3.042-1.185c-4.629,1.205-7.966,5.849-12.695,6.094
		c-17.451,0.904-27.719,14.514-25.986,21.296c0.3,1.173,0.687,2.537-0.989,2.708c-5.345,0.544-8.418,5.324-13.287,6.848
		c-6.277,1.965-9.818,8.889-16.925,9.653c-1.07,0.115-1.767,1.605-1.704,2.798c0.442,8.433-11.193,16.704-3.655,30.065
		c1.775,3.147-1.168,13.717,1.165,16.865c3.905,5.27,4.998,11.387,7.255,17.094c3.417,8.637,10.113,15.556,12.368,24.805
		c0.573,2.35,3.083,4.197,4.583,6.358c4.645,6.691,10.316,12.726,12.456,20.975c1.433,5.524,5.113,9.991,10.062,12.306
		c5.256,2.459,9.134,6.447,13.66,9.69c3.433,2.46,6.028,14.335,1.323,15.392c-11.251,2.53-19.716,2.83-19.628,14.756
		c0.128,17.363-2.639,11.36-5.997,21.188c-3.353,9.814-7.74,4.722-13.7,7.431c-15.427,7.011-1.121,2.466-28.375,11.863
		c-8.412,2.901-0.157,10.012-9.841,12.24c-22.79,5.244-46.171,23.673-51.78,35.32c-7.562,15.704-29.702,56.667-36.594,96.386
		c-0.995,5.733-1.499,11.071-6.414,15.778c-5.636,5.396-3.972,15.26,2.046,20.619c2.22,1.977,3.024,4.19,2.619,7.038
		c-1.361,9.567-1.841,19.135-4.384,28.686c-5.822,21.859-18.594,51.368-18.225,59.223c0.546,11.647-5.19,22.255-5.082,33.877
		c0.032,3.416-0.356,7.258-1.385,10.703c-5.415,18.132-1.496,11.371-11.221,102.244c-0.544,5.088-3.62,9.278-4.023,14.136
		c-0.77,9.274-2.86,18.123-6.518,26.655c-4.47,10.426,1.439,15.224,0.421,39.193c-1.59,37.429-1.09,33.888,36.424,56.313
		c6.415,3.835,11.76,9.785,19.733,10.893c1.331,0.185,2.606,1.931,3.895,0.101c1.136-1.613-0.256-2.695-1.007-3.948
		c-3.552-5.928-20.571-30.356-22.11-49.98c-0.274-3.488-3.095-7.821,1.61-9.453c4.942-1.715,6.355,3.157,7.413,6.695
		c3.178,10.632,18.339,26.855,22.718,17.018c11.291-25.367,10.623-44.077,6.071-49.922c-9.029-11.591-3.744-14.859-14.427-36.918
		c-13.208-27.271,17.015-67.125,34-125.258c1.301-4.451,0.618-9.194,2.507-13.564c2.556-5.914,10.231-40.206,13.756-49.971
		c12.724-35.244,4.456-44.548,17.155-45.331c10.66-0.657,15.191,4.747,12.849,15.443c-3.855,17.601-1.469,35.037,1.409,52.44
		c3.057,18.486,9.631,10.409,5.435,28.368c-6.052,25.906-3.403,19.99-0.2,53.687c2.307,24.271,10.555,20.065,6.228,38.197
		c-4.528,18.976,2.537,15.441,3.293,43.827c0.407,15.263,3.522,11.89,1.466,27.51c-1.674,12.718-1.424,25.572-3.337,38.286
		c-1.607,10.679,1.331,21.302,1.82,31.973c0.256,5.594,0.075,11.113,1.721,16.661c1.093,3.683,2.229,7.51,2.195,11.582
		c-0.321,38.781,14.619,45.888,33.068,120.411c13.884,56.081,13.864,71.041,23.831,86.521c8.239,12.796-9.275,16.105-1.936,26.998
		c5.048,7.493,0.027,14.722,5.178,17.193c4.52,2.169,3.119,4.39,1.26,7.403c-6.203,10.058,8.567,1.836,4.762,12.182
		c-0.859,2.337-1.802,4.597-3.523,6.487c-3.06,3.36-3.945,7.969-6.529,11.616c-0.667,0.942-0.608,1.947,0.24,2.677
		c5.033,4.333-0.598,22.028-0.868,23.04c-1.86,6.953-1.143,14.109-2.617,20.954c-1.809,8.4,3.644,14.935,4.683,22.536
		c0.137,1,6.816,2.996,5.914,11.611c-2.713,25.923,28.312,117.759,32.172,127.883c2.566,6.73,1.559,12.733,4.415,18.184
		c1.132,2.16,27.703,77.1,27.104,87.822c-1.469,26.306,0.223,32.701,2.93,37.858c2.452,4.671,1.565,9.631-2.621,13.561
		c-6.252,5.87-11.689,12.616-19.029,17.318c-4.954,3.173-3.756,7.73,1.756,9.094c54.567,13.507,62.71-3.03,78.021-1.305
		c1.613,0.182,2.398-0.9,2.389-2.478c-0.637-109.574-17.499-61.119-19.619-115.46c-1.003-25.711,1.087-51.429-1.611-77.201
		c-0.113-1.08-5.058-42.167-1.742-56.19c2.799-11.835,1.107-23.96,1.724-35.938c1.361-26.438-10.671-36.52-0.168-42.933
		c0.861-0.525,1.638-1.244,1.674-2.313c0.536-15.766,23.205-25.051,10.021-35.215c-3.465-2.671-1.806-6.347-1.906-9.642
		c-0.183-6.043,6.723-5.146,12.323-2.886c3.764,1.519-1.759,19.309,2.643,28.416c7.992,16.536-12.285,25.394,1.462,35.868
		c7.386,5.627,3.434,12.449,8.399,17.187c6.086,5.808-1.795,9.995,7.196,35.195c10.604,29.717,6.094,67.491,15.943,146.247
		c1.643,13.135,2.329,25.87-1.785,38.596c-0.47,1.453-1.499,3.168-0.071,4.659c4.555,4.752,10.354,39.446-1.346,65.221
		c-1.267,2.791-1.062,5.234,2.629,5.951c7.098,1.379,14.069,3.385,21.441,3.241c17.935-0.351,29.055,3.158,52.259-0.987
		c40.957-7.317,17.222,0.567,40.827-5.915c4.051-1.113,2.188-5.247-0.419-5.252c-8.002-0.015-14.212-4.776-21.13-7.696
		c-26.83-11.327-41.437-36.226-41.081-45.985c0.442-12.11-4.266-23.918-0.55-36.318c5.869-19.585,4.362-19.676,5.361-31.168
		c0.037-0.422,13.864-74.862,17.846-93.802c7.881-37.486,7.119-52.529,6.961-88.458c-0.051-11.645,7.714-4.406,10.556-13.827
		c2.61-8.649,0.383-17.418,1.395-26.061c0.665-5.681-2.075-10.263-5.216-14.462c-4.202-5.618,0.133-3.672-1.924-12.447
		c-1.743-7.44-5.632-14.275-5.017-22.419c0.374-4.953-3.204-9.918-6.886-11.863c-7.781-4.111,3.244-4.043,3.315-14.043
		c0.043-6.068-0.978-12.063,0.265-18.293c0.658-3.298-1.002-8.176-7.08-7.995c-3.766,0.112-5.964-3.327-4.496-6.379
		c16.353-34.005,28.605-148.84,27.049-165.464c-0.837-8.943,0.936-17.727,1.805-26.565c0,0-3.171-43.951-1.655-76.461
		c1.718-36.862-24.783-75.64-9.622-75.832c7.893-0.1,13.173-5.7,19.869-8.188c1.358-0.505,2.648-1.244,2.075-2.785
		c-1.132-3.041-0.5-6.201-1.028-9.287c-6.924-40.436-0.247-43.869-11.045-73.919c-5.592-15.562-8.796-31.275-8.449-47.733
		c0.057-2.694-0.251-5.225-1.063-7.751c-4.088-12.722-10.772-45.207-17.268-75.32c-1.616-3.304-2.54-6.993-2.654-10.867
		c-0.014-0.463-0.006-0.921-0.013-1.382c-0.363-1.649-0.725-3.286-1.083-4.896c-0.844-3.787,0.269-8.084,1.918-9.631
		c1.748-13.52,6.016-26.513,11.41-39.157c-0.733-2.281-1.103-3.87-0.979-4.497c7.953-40.164,4.748-42.871,28.938-73.432
		c2.783-3.516,4.952-8.844,11.139-7.274c15.186,3.854,17.22-34.921,35.849-45.724c6.393-3.707,79.37-57.516,117.121-71.8
		c10.449-3.954,6.92-10.844,15.068-23.653c13.647-21.454,40.282-47.815,70.49-131.559c2.131-5.908,5.948-11.079,10.799-15.181
		c11.975-10.125,15.389,8.555,20.968,20.043c5.673,11.683,17.942,34.313,17.976,34.398c17.879,45.487,19.655,36.523,23.83,44.536
		c16.495,31.655,20.074,37.449,13.57,47.261c-3.546,5.351-5.645,11.68-9.993,16.679c-1.12,1.288-0.706,3.176-0.709,4.82
		c-0.048,27.031,0.874,30.224-3.044,36.546c-7.072,11.413-0.193,43.671,2.248,58.782c4.363,27.019,34.52,45.652,50.227,66.727
		c6.026,8.085,11.838,0.705,36.492,15.948c3.858,2.385,9.208,3.814,10.713,8.372c3.822,11.579,5.2,20.158-4.729,29.487
		c-11.329,10.645,5.803,23.276,18.454,19.136c22.188-7.262,24.497-4.944,57.492-25.681c5.783-3.634,9.173-18.935,0.412-29.103
		c-2.138-2.481-1.598-4.852,1.57-6.329c6.093-2.841,7.095-10.734,5.037-15.811c-6.351-15.67,4.012-21.467-1.674-29.651
		c-8.695-12.515,0.192-20.279-10.029-31.004c-1.805-1.895-3.398-4.009-4.95-6.125c-4.998-6.815-4.959-6.823,0.275-14.046
		c1.771-2.443,7.311-20.712,6.39-33.965c-0.786-11.332,8.4-4.08,44.986-25.771c29.386-17.422,33.19-9.945,71.957-37.193
		c1.017-0.715,1.812-2.855,3.589-1.778c1.346,0.816,0.569,2.336,0.576,3.624c0.036,6.758-1.584,13.377,1.285,20.301
		c4.074,9.833-3.251,14.574-3.329,18.831c-0.201,11.028-2.861,21.842-2.234,32.987c0.938,16.647-1.063,40.685,1.633,55.871
		c1.061,5.974,3.184,11.647,3.976,17.675c2.234,16.999,17.207,16.265,28.169,23.728c18.937,12.893,40.283,21.378,60.165,32.557
		c8.738,4.913,15.035-0.993,15.171,9.398c0.469,35.871-1.468,47.255,5.292,60.593c1.34,2.645,47.666,133.111,54.174,180.272
		c5.639,40.862-16.079,51.379-31.731,100.988c-11.676,37.004-35.474,86.711-35.376,96.69c0.221,22.52-17.181,74.765-25.04,87.409
		c-4.759,7.656-11.575,13.879-14.943,22.525c-1.529,3.925-1.708,8.227-4.554,11.874c-7.399,9.478-11.436,19.779-6.254,32.006
		c2.443,5.762,4.178,7.675,10.532,7.719c16.389,0.113,19.255,4.913,27.149,0.19c14.02-8.388,11.707,8.735,23.899,10.372
		c6.807,0.914,12.01,4.599,16.791,8.825c4.715,4.168,10.761,7.594,11.892,14.604c2.17,13.448,3.521,5.421,5.787,27.924
		c3.043,30.219,10.646,40.634,12.023,74.777c2.599,64.457-6.27,111.245,11.893,167.755c2.57,7.995,6.555,15.445,8.28,23.775
		c2.87,13.861,7.908,27.093,12.46,40.465c2.332,6.852,6.291,13.183,7.133,20.481c1.144,9.913,14.271,32.072,12.449,45.636
		c-0.039,0.293,0.203,0.621,0.305,0.935c2.373,7.285-1.569,14.156-1.443,21.303c0.022,1.221-8.689,12.399-15.488,14.611
		c-4.391,1.429-6.834,10.778-18.109,13.106c-12.25,2.529-21.749,11.963-34.511,13.006c-3.238,0.265-2.167,3.623-2.516,5.715
		c-0.742,4.451,18.207,4.957,22.695,4.698c13.408-0.774,37.643,11.415,101.672,4.107c7.585-0.866,7.665-0.142,6.601-7.458
		c-0.071-0.489-0.162-1.01-0.069-1.482c2.634-13.396-10.961-42.364-12.039-48.336c-3.96-21.95-4.769-28.755-5.433-47.365
		c-0.236-6.614-5.281-13.272-0.65-20.015c0.118-0.171-0.077-0.678-0.266-0.921c-3.598-4.627,0.504-20.692-2.268-32.682
		c-5.499-23.785,1.881-29.402,2.871-65.288c1.425-51.644-11.495-58.183-10.097-110.816c0.284-10.69,6.489-33.313,6.106-43.364
		c-0.397-10.425,0.162-41.136-0.143-62.519c-0.049-3.431,1.012-4.826,4.526-4.565c14.771,1.096,16.945-3.642,17.42,7.448
		c0.605,14.138-1.374,28.308,1.611,42.474c5.233,24.83-4.786,25.671,23.892,79.096c10.932,20.364,12.017,17.87,17.796,56.74
		c5.244,35.271,35.42,80.019,39.912,133.025c0.779,9.199-3.122,18.189-1.912,27.518c0.566,4.36-0.84,8.435-2.083,12.586
		c-3.178,10.611-9.573,20.191-10.118,31.662c-0.056,1.184-1.005,2.462-1.834,3.45c-6.267,7.472-8.669,16.699-11.463,25.674
		c-1.324,4.256,0.303,7.868,5.085,9.241c19.6,5.629,23.499,3.192,41.626,3.922c6.094,0.245,11.805-1.177,17.474-2.85
		c20.734-6.12,5.049-21.936,13.747-30.818c0.839-0.856,1.546-2.105,1.01-3.158c-2.992-5.878,0.765-12.031-1.048-18.112
		c-1.573-5.275-3.867-11.027,0.136-16.458c-2.161-12.321-0.909-25.142-5.114-37.132c-2.898-8.265-3.907-75.39,2.397-98.327
		c0.429-1.56,0.176-3.146-0.441-4.323c-4.784-9.122,1.712-39.515-3.813-57.301c-1.586-5.105-1.141-10.52-2.93-15.478
		c-13.447-37.259-31.532-57.93-30.958-84.447c0.19-8.791,2.061-17.316,2.278-26.028c0.182-7.309,21.042,3.754,21.808-9.17
		c0.452-7.62-2.205-5.733-5.662-17.669c-1.88-6.491,7.317-0.41,7.5-11.453c0.124-7.521,4.751-3.091,24.135,1.015
		c21.226,4.495,30.008-4.568,51.945-3.037c4.999,0.349,9.406-1.619,13.86-3.284c7.981-2.983,2.381-9.255-18.023-68.468
		c-20.15-58.478-14.982-68.286-24.286-118.259c-8.198-44.038-20.48-62.199-10.101-91.064
		c16.116-44.827,19.414-70.217,30.423-103.993c5.102-15.653,11.159-31.128,14.569-47.155c2.558-12.021,8.941-18.725,19.291-23.473
		C1625.49,717.451,1637.359,706.647,1628.55,700.642z"/>
</g>
</svg>
