<?xml version="1.0" encoding="UTF-8" standalone="no"?>
<svg id="svg2" xmlns:rdf="http://www.w3.org/1999/02/22-rdf-syntax-ns#" style="image-rendering:optimizeQuality;text-rendering:geometricPrecision;shape-rendering:geometricPrecision" xmlns="http://www.w3.org/2000/svg" fill-rule="evenodd" height="449.33mm" width="449.33mm" version="1.1" clip-rule="evenodd" xmlns:cc="http://creativecommons.org/ns#" xmlns:dc="http://purl.org/dc/elements/1.1/" viewBox="0 0 44933.323 44932.849">
<defs id="defs4">
<style id="style6" type="text/css">.str0 {stroke:black;stroke-width:7.62} .fil1 {fill:#0E0E10} .fil0 {fill:#2B2B2D} .fil2 {fill:#C79634} .fil3 {fill:#CFAF6E}</style>
</defs>
<path id="path17" d="m500.64 0.011719c-0.19-0.0080081-0.35-0.0054752-0.48 0.007812-2.09 0.24803 4.18 3.296 7.58 10.418 3.4 7.157 3.93 18.353 6.73 26.644 2.84 8.291 7.94 13.642 13.54 18 5.56 4.394 11.62 7.797 14.28 7.832 2.69 0 1.98-3.332 0.56-8.115-1.45-4.819-3.65-11.091-7.3-17.752-3.68-6.626-8.89-13.642-8.14-14.422 0.7-0.78 7.33 4.679 11.97 11.518 4.61 6.803 7.27 14.988 8.9 22.003 1.66 7.016 2.26 12.863 1.63 17.504-0.18 1.205-0.46 2.338-0.75 3.366-3.36-1.524-6.73-3.047-10.03-4.571-14.13-6.449-27.49-12.898-42.3-18.603-28.56-10.984-53.08-16.441-78.06-15.024-25.73 1.453-52.02 10.206-83.8 27.674-10.06 5.563-13.54 9.142-25.19 10.772-7.41 1.027-13.68 0.957-19.53-1.594-5.84-2.551-11.23-7.62-12.37-14.813-1.13-7.192 2.06-16.511 6.95-22.287 4.93-5.74 11.62-7.936 17.12-7.086 5.49 0.815 9.81 4.677 9.74 8.858s-4.5 8.647-8.47 9.603c-3.97 0.957-7.48-1.63-8.75-0.709-1.31 0.922-0.39 5.351 4.07 8.469 4.47 3.154 12.47 4.996 18.32 0.779 5.88-4.252 9.6-14.563 7.09-22.5-2.52-7.937-11.34-13.5-21.83-13.642-10.52-0.142-22.71 5.138-29.12 13.996-0.96 1.311-1.78 2.694-2.45 4.111-2.09-5.527-5.63-11.729-10.98-14.883-5.6-3.259-13.15-3.223-17.93-0.388-4.82 2.834-6.88 8.397-7.09 13.748-0.21 5.35 1.49 10.487 4.36 13.57 2.87 3.118 6.94 4.216 10.28 4.287 3.36 0.036 5.95-0.921 4.74-2.054-1.17-1.134-6.13-2.375-8.43-5.67-2.27-3.296-1.95-8.576 0.92-11.446 2.84-2.87 8.19-3.329 11.94-2.691 3.72 0.602 5.85 2.338 8.15 6.094 0.75 1.24 1.53 2.657 2.23 4.074-2.09 7.264-1.52 15.236 1.49 21.472 4.29 8.894 13.5 14.316 23.25 15.698 5.1 0.708 10.38 0.353 15.16-0.391-8.08 4.819-16.01 9.532-23.99 13.713-16.47 8.678-33.09 15.238-48.11 18.138-15.03 2.95-28.42 2.27-37.99-1.38-9.6-3.65-15.34-10.27-16.4-18.529-1.03-8.256 2.65-18.177 8.57-24.307 5.95-6.13 14.1-8.469 20.73-7.938 6.63 0.567 11.69 4.005 16.01 7.442 4.29 3.401 7.87 6.804 8.97 6.662s-0.28-3.827-2.69-8.186c-2.45-4.393-5.89-9.461-10.21-13.181-4.32-3.756-9.5-6.166-16.41-6.698-6.9-0.496-14.01 0.887-22.31 5.67-11.37 6.73-22.85 19.99-23.47 34.705 0.06 4.99 0.8 11.205 3.44 16.11 4.96 9.17 14.5 17.36 26.47 20.97 11.98 3.65 26.36 2.73 38.09 0.53 11.73-2.19 20.84-5.63 22.15-2.94 1.34 2.7-5.1 11.59-12.69 19.07-7.62 7.47-16.37 13.57-27.25 18-10.87 4.43-23.88 7.19-33.02 6.2-9.37-0.78-21.37-13.91-21.38-10.5 0.03 0.65 0.29 1.49 0.69 2.43-0.94-0.4-1.77-0.67-2.43-0.7-3.41 0.02 9.72 12.02 10.5 21.39 0.99 9.14-1.77 22.14-6.2 33.02s-10.52 19.63-18 27.25c-7.48 7.58-16.37 14.03-19.06 12.68-2.7-1.31 0.74-10.41 2.94-22.14 2.19-11.73 3.11-26.12-0.54-38.09-3.61-11.98-11.79-21.51-20.97-26.47-4.903-2.65-11.118-3.39-16.107-3.44-14.716 0.61-27.976 12.1-34.705 23.47-4.784 8.29-6.166 15.4-5.67 22.31 0.531 6.91 2.941 12.08 6.697 16.41 3.72 4.32 8.788 7.76 13.182 10.2 4.358 2.41 8.043 3.79 8.185 2.7 0.142-1.1-3.26-4.68-6.662-8.97-3.437-4.32-6.874-9.39-7.441-16.01-0.532-6.63 1.807-14.78 7.937-20.73 6.13-5.92 16.051-9.61 24.307-8.58 8.257 1.07 14.877 6.8 18.527 16.41 3.65 9.56 4.33 22.96 1.39 37.98-2.91 15.02-9.46 31.64-18.146 48.12-4.181 7.97-8.894 15.91-13.713 23.99 0.744-4.79 1.1-10.07 0.391-15.17-1.382-9.74-6.804-18.95-15.697-23.24-6.237-3.01-14.209-3.58-21.473-1.49-1.417-0.71-2.834-1.49-4.074-2.23-3.756-2.31-5.492-4.43-6.094-8.15-0.638-3.76-0.179-9.11 2.691-11.94 2.871-2.87 8.151-3.19 11.446-0.92 3.295 2.3 4.536 7.26 5.67 8.43 1.134 1.2 2.09-1.38 2.054-4.75-0.071-3.33-1.169-7.4-4.287-10.27-3.082-2.87-8.22-4.58-13.57-4.36-5.35 0.21-10.913 2.26-13.748 7.08-2.835 4.79-2.871 12.33 0.389 17.93 3.153 5.35 9.355 8.9 14.882 10.99-1.417 0.67-2.8 1.49-4.111 2.44-8.858 6.42-14.138 18.6-13.996 29.13 0.142 10.49 5.706 19.31 13.643 21.83 7.937 2.51 18.248-1.21 22.5-7.09 4.216-5.85 2.374-13.86-0.78-18.32-3.118-4.47-7.547-5.39-8.468-4.08-0.922 1.28 1.665 4.79 0.709 8.76-0.957 3.97-5.423 8.39-9.604 8.47-4.181 0.07-8.042-4.26-8.857-9.75-0.851-5.49 1.345-12.19 7.085-17.11 5.776-4.89 15.095-8.08 22.288-6.95s12.261 6.52 14.812 12.37c2.551 5.84 2.621 12.12 1.594 19.52-1.63 11.66-5.209 15.13-10.772 25.19-17.468 31.79-26.221 58.08-27.673 83.8-1.418 24.98 4.039 49.5 15.023 78.06 5.705 14.81 12.155 28.17 18.604 42.31 1.523 3.29 3.046 6.66 4.57 10.03-1.028 0.28-2.161 0.56-3.365 0.74-4.642 0.64-10.489 0.04-17.504-1.63-7.016-1.63-15.201-4.29-22.004-8.89-6.839-4.65-12.297-11.27-11.518-11.98 0.78-0.74 7.796 4.47 14.422 8.15 6.661 3.65 12.933 5.85 17.752 7.3 4.783 1.42 8.115 2.13 8.115-0.57-0.035-2.65-3.438-8.71-7.832-14.28-4.358-5.59-9.708-10.7-18-13.53-8.291-2.8-19.487-3.33-26.644-6.73-7.1224-3.41-10.17-9.68-10.418-7.59-0.013569 0.13-0.016102 0.29-0.0080938 0.48 0.12313 2.88 2.6233 12.61 6.2441 21.88 3.898 9.85 9.07 19.17 17.326 26.04 8.256 6.84 19.595 11.2 29.729 11.84s19.064-2.48 24.131-5.6c0.602-0.35 1.132-0.74 1.628-1.1 4.394 9.82 8.895 20.09 13.678 31.29 7.193 16.9 14.95 35.82 21.3 56.59 3.72 12.11 6.94 24.84 9.53 37.17-4.57-9.68-10.67-21.02-19.53-29.2-11.973-11.06-28.946-16.37-44.431-10.49-15.448 5.88-29.444 22.93-32.527 43.09-3.118 20.16 4.643 43.44 16.867 57.33 12.26 13.89 28.984 18.42 41.28 11.48 12.295-6.95 20.201-25.41 18.421-38.8-1.73-13.36-13.106-21.69-21.929-23.6-8.823-1.88-15.13 2.66-14.741 5.6 0.39 2.94 7.513 4.25 10.95 10.81 3.437 6.59 3.223 18.39-1.666 23.88-4.855 5.53-14.387 4.75-21.686-1.53-7.299-6.27-12.402-18.1-11.232-32.17 1.134-14.1 8.54-30.51 18.32-38.37 9.815-7.87 22.039-7.23 31.748-2.73 9.746 4.5 17.046 12.82 23.416 23.84 3.9 6.77 10.17 18.61 11.24 26.26 2.69 19.28 3.15 35.29 2.12 49.5-0.84 11.72-2.75 22.22-5.87 32.03-2.72-4.43-5.56-8.3-8.34-11.68-4.96-5.99-21.063-19.88-18.607-16.25l2.029 3c1.558 2.19 4.008 5.42 6.658 9.39 4.69 6.9 10.15 16 14.41 25.93-4.26 9.93-9.72 19.03-14.41 25.93-2.65 3.97-5.1 7.19-6.658 9.39l-2.029 3c-2.456 3.63 13.647-10.26 18.607-16.25 2.78-3.38 5.62-7.25 8.34-11.68 3.12 9.8 5.03 20.31 5.87 32.03 1.03 14.21 0.57 30.22-2.12 49.5-1.07 7.65-7.34 19.49-11.24 26.25-6.37 11.02-13.67 19.35-23.416 23.85-9.709 4.5-21.933 5.14-31.748-2.73-9.78-7.86-17.186-24.27-18.32-38.37-1.17-14.07 3.933-25.9 11.232-32.18 7.299-6.27 16.831-7.05 21.686-1.52 4.889 5.49 5.103 17.29 1.666 23.88-3.437 6.56-10.56 7.87-10.95 10.81-0.389 2.94 5.918 7.48 14.741 5.6 8.823-1.92 20.199-10.24 21.929-23.6 1.78-13.4-6.126-31.86-18.421-38.8-12.296-6.95-29.02-2.41-41.28 11.48-12.224 13.89-19.985 37.17-16.867 57.33 3.083 20.16 17.079 37.21 32.527 43.09 15.485 5.88 32.458 0.56 44.431-10.49 8.86-8.19 14.96-19.52 19.53-29.2-2.59 12.33-5.81 25.05-9.53 37.17-6.35 20.77-14.107 39.69-21.3 56.54-4.783 11.2-9.284 21.5-13.678 31.3-0.496-0.3-1.026-0.7-1.628-1.1-5.067-3.1-13.997-6.2-24.131-5.6-10.134 0.7-21.473 5-29.729 11.9-8.256 6.8-13.428 16.2-17.326 26-3.6208 9.3-6.1209 19-6.2441 21.9-0.0079662 0.2-0.0054687 0.3 0.007819 0.5 0.24803 2.1 3.2959-4.2 10.418-7.6 7.157-3.4 18.353-3.9 26.644-6.7 8.292-2.9 13.642-8 18-13.6 4.394-5.5 7.797-11.6 7.832-14.3 0-2.6-3.332-1.9-8.115-0.5-4.819 1.4-11.091 3.6-17.752 7.3-6.626 3.7-13.642 8.9-14.422 8.1-0.779-0.7 4.679-7.3 11.518-11.9 6.803-4.7 14.988-7.3 22.004-8.9 7.015-1.7 12.862-2.3 17.504-1.7 1.204 0.2 2.337 0.5 3.365 0.8-1.524 3.3-3.047 6.7-4.57 10-6.449 14.1-12.899 27.5-18.604 42.3-10.984 28.6-16.441 53.1-15.023 78.1 1.452 25.7 10.205 52 27.673 83.8 5.563 10 9.142 13.5 10.772 25.2 1.027 7.4 0.957 13.6-1.594 19.5-2.551 5.8-7.619 11.2-14.812 12.3-7.193 1.2-16.512-2-22.288-6.9-5.74-4.9-7.936-11.6-7.085-17.1 0.815-5.5 4.676-9.8 8.857-9.8 4.181 0.1 8.647 4.5 9.604 8.5 0.956 4-1.631 7.5-0.709 8.8 0.921 1.3 5.35 0.4 8.468-4.1 3.154-4.5 4.996-12.5 0.78-18.3-4.252-5.9-14.563-9.6-22.5-7.1s-13.501 11.3-13.643 21.8 5.138 22.7 13.996 29.1c1.311 1 2.694 1.8 4.111 2.5-5.527 2.1-11.729 5.6-14.882 11-3.26 5.6-3.224 13.1-0.389 17.9s8.398 6.9 13.748 7.1 10.488-1.5 13.57-4.4c3.118-2.8 4.216-6.9 4.287-10.3 0.036-3.3-0.92-5.9-2.054-4.7s-2.375 6.1-5.67 8.4-8.575 2-11.446-0.9c-2.87-2.8-3.329-8.2-2.691-11.9 0.602-3.7 2.338-5.9 6.094-8.2 1.24-0.7 2.657-1.5 4.074-2.2 7.264 2.1 15.236 1.5 21.473-1.5 8.893-4.3 14.315-13.5 15.697-23.2 0.709-5.1 0.353-10.4-0.391-15.2 4.819 8.1 9.532 16 13.713 24 8.686 16.5 15.236 33.1 18.146 48.1 2.94 15 2.26 28.4-1.39 38s-10.27 15.3-18.527 16.4c-8.256 1-18.177-2.7-24.307-8.6s-8.469-14.1-7.937-20.7c0.567-6.6 4.004-11.7 7.441-16 3.402-4.3 6.804-7.9 6.662-9s-3.827 0.3-8.185 2.7c-4.394 2.4-9.462 5.9-13.182 10.2-3.756 4.3-6.166 9.5-6.697 16.4-0.496 6.9 0.886 14 5.67 22.3 6.729 11.4 19.989 22.9 34.705 23.5 4.989-0.1 11.204-0.8 16.107-3.5 9.18-4.9 17.36-14.4 20.97-26.4 3.65-12 2.73-26.4 0.54-38.1-2.2-11.7-5.64-20.8-2.94-22.2 2.69-1.3 11.58 5.1 19.06 12.7s13.57 16.4 18 27.3 7.19 23.9 6.2 33c-0.78 9.4-13.91 21.4-10.5 21.4 0.66 0 1.49-0.3 2.43-0.7-0.4 0.9-0.66 1.8-0.69 2.4 0.01 3.4 12.01-9.7 21.38-10.5 9.14-1 22.15 1.8 33.02 6.2 10.88 4.5 19.63 10.5 27.25 18 7.59 7.5 14.03 16.4 12.69 19.1-1.31 2.7-10.42-0.8-22.15-3-11.73-2.1-26.11-3.1-38.09 0.6-11.97 3.6-21.51 11.8-26.47 21-2.64 4.9-3.38 11.1-3.44 16.1 0.62 14.7 12.1 27.9 23.47 34.7 8.3 4.7 15.41 6.1 22.31 5.6 6.91-0.5 12.09-2.9 16.41-6.7 4.32-3.7 7.76-8.8 10.21-13.1 2.41-4.4 3.79-8.1 2.69-8.2-1.1-0.2-4.68 3.2-8.97 6.6-4.32 3.5-9.38 6.9-16.01 7.5-6.63 0.5-14.78-1.8-20.73-8-5.92-6.1-9.6-16-8.57-24.3 1.06-8.2 6.8-14.9 16.4-18.5 9.57-3.7 22.96-4.3 37.99-1.4 15.02 2.9 31.64 9.5 48.11 18.2 7.98 4.1 15.91 8.9 23.99 13.7-4.78-0.8-10.06-1.1-15.16-0.4-9.75 1.4-18.96 6.8-23.25 15.7-3.01 6.2-3.58 14.2-1.49 21.5-0.7 1.4-1.48 2.8-2.23 4-2.3 3.8-4.43 5.5-8.15 6.1-3.75 0.7-9.1 0.2-11.94-2.7-2.87-2.8-3.19-8.1-0.92-11.4 2.3-3.3 7.26-4.6 8.43-5.7 1.21-1.1-1.38-2.1-4.74-2-3.34 0-7.41 1.1-10.28 4.2s-4.57 8.3-4.36 13.6c0.21 5.4 2.27 10.9 7.09 13.8 4.78 2.8 12.33 2.8 17.93-0.4 5.35-3.2 8.89-9.4 10.98-14.9 0.67 1.4 1.49 2.8 2.45 4.1 6.41 8.9 18.6 14.1 29.12 14 10.49-0.1 19.31-5.7 21.83-13.6 2.51-8-1.21-18.3-7.09-22.5-5.85-4.3-13.85-2.4-18.32 0.7-4.46 3.2-5.38 7.6-4.07 8.5 1.27 0.9 4.78-1.7 8.75-0.7s8.4 5.4 8.47 9.6-4.25 8-9.74 8.9c-5.5 0.8-12.19-1.4-17.12-7.1-4.89-5.8-8.08-15.1-6.95-22.3 1.14-7.2 6.53-12.3 12.37-14.8 5.85-2.6 12.12-2.7 19.53-1.6 11.65 1.6 15.13 5.2 25.19 10.7 31.78 17.5 58.07 26.3 83.8 27.7 24.98 1.4 49.5-4 78.06-15 14.81-5.7 28.17-12.2 42.3-18.6 3.3-1.5 6.67-3.1 10.03-4.6 0.29 1.1 0.57 2.2 0.75 3.4 0.63 4.6 0.03 10.5-1.63 17.5-1.63 7-4.29 15.2-8.9 22-4.64 6.8-11.27 12.3-11.97 11.5-0.75-0.8 4.46-7.8 8.14-14.4 3.65-6.7 5.85-12.9 7.3-17.8 1.42-4.7 2.13-8.1-0.56-8.1-2.66 0.1-8.72 3.5-14.28 7.9-5.6 4.3-10.7 9.7-13.54 18-2.8 8.3-3.33 19.4-6.73 26.6-3.4 7.1-9.67 10.2-7.58 10.4h0.48c2.87-0.1 12.61-2.6 21.88-6.2 9.85-3.9 19.16-9.1 26.04-17.3 6.84-8.3 11.19-19.6 11.83-29.8 0.64-10.1-2.48-19-5.6-24.1-0.35-0.6-0.74-1.1-1.09-1.6 9.81-4.4 20.09-8.9 31.28-13.7 16.91-7.2 35.83-15 56.59-21.3 12.12-3.7 24.84-6.9 37.17-9.5-9.67 4.5-21.01 10.6-29.2 19.5-11.05 12-16.37 28.9-10.49 44.4 5.89 15.5 22.93 29.5 43.09 32.6s43.44-4.7 57.33-16.9c13.89-12.3 18.43-29 11.48-41.3-6.94-12.3-25.4-20.2-38.8-18.4-13.35 1.7-21.68 13.1-23.6 21.9-1.87 8.8 2.66 15.1 5.6 14.8 2.95-0.4 4.26-7.6 10.81-11 6.59-3.4 18.39-3.2 23.88 1.7 5.53 4.8 4.75 14.4-1.52 21.7s-18.11 12.4-32.18 11.2c-14.1-1.1-30.5-8.6-38.37-18.3-7.86-9.8-7.23-22.1-2.73-31.8s12.83-17 23.85-23.4c6.77-3.9 18.6-10.2 26.25-11.2 19.28-2.7 35.3-3.2 49.5-2.2 11.73 0.9 22.23 2.8 32.04 5.9-4.44 2.7-8.3 5.6-11.69 8.3-5.98 5-19.88 21.1-16.25 18.7l3-2.1c2.2-1.5 5.42-4 9.39-6.6 6.9-4.7 16.01-10.2 25.93-14.4 9.93 4.2 19.04 9.7 25.94 14.4 3.96 2.6 7.19 5.1 9.38 6.6l3 2.1c3.63 2.4-10.26-13.7-16.25-18.7-3.38-2.7-7.25-5.6-11.68-8.3 9.81-3.1 20.31-5 32.03-5.9 14.21-1 30.23-0.5 49.5 2.2 7.66 1 19.49 7.3 26.26 11.2 11.02 6.4 19.34 13.7 23.84 23.4s5.14 22-2.72 31.8c-7.87 9.7-24.28 17.2-38.38 18.3-14.06 1.2-25.9-3.9-32.17-11.2s-7.05-16.9-1.52-21.7c5.49-4.9 17.29-5.1 23.88-1.7 6.55 3.4 7.86 10.6 10.8 11 2.94 0.3 7.48-6 5.6-14.8-1.91-8.8-10.24-20.2-23.6-21.9-13.39-1.8-31.85 6.1-38.8 18.4-6.94 12.3-2.41 29 11.48 41.3 13.89 12.2 37.17 20 57.34 16.9 20.16-3.1 37.2-17.1 43.08-32.6s0.57-32.4-10.49-44.4c-8.18-8.9-19.52-15-29.19-19.5 12.33 2.6 25.05 5.8 37.17 9.5 20.76 6.3 39.68 14.1 56.54 21.3 11.2 4.8 21.5 9.3 31.3 13.7-0.3 0.5-0.7 1-1.1 1.6-3.1 5.1-6.2 14-5.6 24.1 0.7 10.2 5 21.5 11.9 29.8 6.8 8.2 16.2 13.4 26 17.3 9.3 3.6 19 6.1 21.9 6.2h0.5c2.1-0.2-4.2-3.3-7.6-10.4-3.4-7.2-3.9-18.4-6.7-26.6-2.9-8.3-8-13.7-13.6-18-5.5-4.4-11.6-7.8-14.3-7.9-2.7 0-1.9 3.4-0.5 8.1 1.4 4.9 3.6 11.1 7.3 17.8 3.7 6.6 8.9 13.6 8.1 14.4-0.7 0.8-7.3-4.7-12-11.5-4.6-6.8-7.2-15-8.8-22-1.7-7-2.3-12.9-1.7-17.5 0.2-1.2 0.5-2.3 0.8-3.4 3.3 1.5 6.7 3.1 10 4.6 14.1 6.4 27.5 12.9 42.3 18.6 28.6 11 53.1 16.4 78.1 15 25.7-1.4 52-10.2 83.8-27.7 10-5.5 13.5-9.1 25.2-10.7 7.4-1.1 13.6-1 19.5 1.6 5.8 2.5 11.2 7.6 12.3 14.8 1.2 7.2-2 16.5-6.9 22.3-4.9 5.7-11.6 7.9-17.1 7.1-5.5-0.9-9.8-4.7-9.8-8.9 0.1-4.2 4.5-8.6 8.5-9.6s7.5 1.6 8.8 0.7 0.3-5.3-4.1-8.5c-4.5-3.1-12.5-5-18.3-0.7-5.9 4.2-9.6 14.5-7.1 22.5 2.5 7.9 11.3 13.5 21.8 13.6s22.7-5.1 29.1-14c1-1.3 1.8-2.7 2.5-4.1 2.1 5.5 5.6 11.7 11 14.9 5.6 3.2 13.1 3.2 17.9 0.4 4.8-2.9 6.9-8.4 7.1-13.8 0.2-5.3-1.5-10.5-4.4-13.6s-6.9-4.2-10.3-4.2c-3.3-0.1-5.9 0.9-4.7 2s6.1 2.4 8.4 5.7 2 8.6-0.9 11.4c-2.8 2.9-8.2 3.4-11.9 2.7-3.8-0.6-5.9-2.3-8.2-6.1-0.7-1.2-1.5-2.6-2.2-4 2.1-7.3 1.5-15.3-1.5-21.5-4.3-8.9-13.5-14.3-23.2-15.7-5.2-0.7-10.4-0.4-15.2 0.4 8.1-4.8 16-9.6 24-13.7 16.4-8.7 33.1-15.3 48.1-18.2s28.4-2.3 38 1.4c9.6 3.6 15.3 10.3 16.4 18.5 1 8.3-2.7 18.2-8.6 24.3-5.9 6.2-14.1 8.5-20.7 8-6.6-0.6-11.7-4-16-7.5-4.3-3.4-7.9-6.8-9-6.6-1.1 0.1 0.3 3.8 2.7 8.2 2.4 4.3 5.9 9.4 10.2 13.1 4.3 3.8 9.5 6.2 16.4 6.7s14-0.9 22.3-5.6c11.4-6.8 22.9-20 23.5-34.7-0.1-5-0.8-11.2-3.5-16.1-4.9-9.2-14.4-17.4-26.4-21-12-3.7-26.4-2.7-38.1-0.6-11.7 2.2-20.9 5.7-22.2 3s5.1-11.6 12.7-19.1 16.4-13.5 27.3-18c10.9-4.4 23.9-7.2 33-6.2 9.4 0.8 21.4 13.9 21.4 10.5-0.1-0.6-0.3-1.5-0.7-2.4 0.9 0.4 1.8 0.7 2.4 0.7 3.4 0-9.7-12-10.5-21.4-1-9.1 1.8-22.1 6.2-33s10.5-19.7 18-27.3 16.4-14 19.1-12.7c2.7 1.4-0.8 10.5-3 22.2s-3.1 26.1 0.6 38.1c3.6 12 11.8 21.5 20.9 26.4 4.9 2.7 11.2 3.4 16.2 3.5 14.7-0.6 27.9-12.1 34.7-23.5 4.7-8.3 6.1-15.4 5.6-22.3s-2.9-12.1-6.7-16.4c-3.7-4.3-8.8-7.8-13.2-10.2-4.3-2.4-8-3.8-8.1-2.7-0.2 1.1 3.2 4.7 6.6 9 3.5 4.3 6.9 9.4 7.5 16 0.5 6.6-1.8 14.8-8 20.7-6.1 5.9-16 9.6-24.3 8.6-8.2-1.1-14.9-6.8-18.5-16.4-3.7-9.6-4.3-23-1.4-38s9.5-31.6 18.2-48.1c4.1-8 8.8-15.9 13.7-24-0.8 4.8-1.1 10.1-0.4 15.2 1.4 9.7 6.8 18.9 15.7 23.2 6.2 3 14.2 3.6 21.4 1.5 1.5 0.7 2.9 1.5 4.1 2.2 3.8 2.3 5.5 4.5 6.1 8.2s0.2 9.1-2.7 11.9c-2.9 2.9-8.1 3.2-11.4 0.9s-4.6-7.2-5.7-8.4-2.1 1.4-2.1 4.7c0.1 3.4 1.2 7.5 4.3 10.3 3.1 2.9 8.3 4.6 13.6 4.4 5.4-0.2 10.9-2.3 13.8-7.1 2.8-4.8 2.8-12.3-0.4-17.9-3.2-5.4-9.4-8.9-14.9-11 1.4-0.7 2.8-1.5 4.1-2.5 8.9-6.4 14.1-18.6 14-29.1-0.2-10.5-5.7-19.3-13.7-21.8-7.9-2.5-18.2 1.2-22.5 7.1-4.2 5.8-2.3 13.8 0.8 18.3s7.6 5.4 8.5 4.1-1.7-4.8-0.7-8.8c0.9-4 5.4-8.4 9.6-8.5 4.2 0 8 4.3 8.8 9.8 0.9 5.5-1.3 12.2-7 17.1-5.8 4.9-15.1 8.1-22.3 6.9-7.2-1.1-12.3-6.5-14.8-12.3-2.6-5.9-2.7-12.1-1.6-19.5 1.6-11.7 5.2-15.2 10.7-25.2 17.5-31.8 26.3-58.1 27.7-83.8 1.4-25-4-49.5-15-78.1-5.7-14.8-12.2-28.2-18.6-42.3-1.5-3.3-3.1-6.7-4.6-10 1-0.3 2.2-0.6 3.4-0.8 4.6-0.6 10.5 0 17.5 1.7 7 1.6 15.2 4.2 22 8.9 6.8 4.6 12.3 11.2 11.5 11.9-0.8 0.8-7.8-4.4-14.4-8.1-6.7-3.7-12.9-5.9-17.8-7.3-4.7-1.4-8.1-2.1-8.1 0.5 0.1 2.7 3.5 8.8 7.9 14.3 4.3 5.6 9.7 10.7 18 13.6 8.2 2.8 19.4 3.3 26.6 6.7 7.1 3.4 10.2 9.7 10.4 7.6v-0.5c-0.1-2.9-2.6-12.6-6.2-21.9-3.9-9.8-9.1-19.2-17.3-26-8.3-6.9-19.6-11.2-29.8-11.9-10.1-0.6-19 2.5-24.1 5.6-0.6 0.4-1.1 0.8-1.6 1.1-4.4-9.8-8.9-20.1-13.7-31.3-7.2-16.85-15-35.77-21.3-56.54-3.7-12.12-7-24.84-9.5-37.17 4.5 9.68 10.6 21.01 19.5 29.2 12 11.05 28.9 16.37 44.4 10.49s29.5-22.93 32.5-43.09c3.2-20.16-4.6-43.44-16.8-57.33-12.3-13.89-29-18.43-41.3-11.48-12.3 6.94-20.2 25.4-18.4 38.8 1.7 13.36 13.1 21.68 21.9 23.6 8.8 1.88 15.1-2.66 14.7-5.6-0.3-2.94-7.5-4.25-10.9-10.81-3.4-6.59-3.2-18.39 1.7-23.88 4.8-5.53 14.3-4.75 21.6 1.52 7.3 6.28 12.4 18.11 11.3 32.18-1.2 14.1-8.6 30.51-18.3 38.37-9.9 7.87-22.1 7.23-31.8 2.73s-17-12.83-23.4-23.85c-3.9-6.76-10.2-18.6-11.2-26.25-2.7-19.28-3.2-35.29-2.2-49.5 0.9-11.72 2.8-22.23 5.9-32.03 2.7 4.43 5.6 8.3 8.3 11.68 5 5.99 21.1 19.88 18.7 16.25l-2.1-3c-1.5-2.2-4-5.42-6.6-9.39-4.7-6.9-10.2-16-14.4-25.93 4.2-9.93 9.7-19.03 14.4-25.93 2.6-3.97 5.1-7.2 6.6-9.39l2.1-3c2.4-3.63-13.7 10.26-18.7 16.25-2.7 3.38-5.6 7.25-8.3 11.68-3.1-9.81-5-20.31-5.9-32.03-1-14.21-0.5-30.22 2.2-49.5 1-7.65 7.3-19.49 11.2-26.26 6.4-11.02 13.7-19.34 23.4-23.84s21.9-5.14 31.8 2.73c9.7 7.86 17.1 24.27 18.3 38.37 1.1 14.07-4 25.9-11.3 32.17-7.3 6.28-16.8 7.06-21.6 1.53-4.9-5.49-5.1-17.29-1.7-23.88 3.4-6.56 10.6-7.87 10.9-10.81 0.4-2.94-5.9-7.48-14.7-5.6-8.8 1.91-20.2 10.24-21.9 23.6-1.8 13.39 6.1 31.85 18.4 38.8 12.3 6.94 29 2.41 41.3-11.48 12.2-13.89 20-37.17 16.8-57.33-3-20.16-17-37.21-32.5-43.09s-32.4-0.57-44.4 10.49c-8.9 8.18-15 19.52-19.5 29.2 2.5-12.33 5.8-25.06 9.5-37.17 6.3-20.77 14.1-39.69 21.3-56.59 4.8-11.2 9.3-21.47 13.7-31.29 0.5 0.36 1 0.75 1.6 1.1 5.1 3.12 14 6.24 24.1 5.6 10.2-0.64 21.5-5 29.8-11.84 8.2-6.87 13.4-16.19 17.3-26.04 3.6-9.27 6.1-19 6.2-21.88v-0.48c-0.2-2.09-3.3 4.18-10.4 7.59-7.2 3.4-18.4 3.93-26.6 6.73-8.3 2.83-13.7 7.94-18 13.53-4.4 5.57-7.8 11.63-7.9 14.28 0 2.7 3.4 1.99 8.1 0.57 4.9-1.45 11.1-3.65 17.8-7.3 6.6-3.68 13.6-8.89 14.4-8.15 0.8 0.71-4.7 7.33-11.5 11.98-6.8 4.6-15 7.26-22 8.89-7 1.67-12.9 2.27-17.5 1.63-1.2-0.18-2.4-0.46-3.4-0.74 1.5-3.37 3.1-6.74 4.6-10.03 6.4-14.14 12.9-27.5 18.6-42.31 11-28.56 16.4-53.08 15-78.06-1.4-25.72-10.2-52.01-27.7-83.8-5.5-10.06-9.1-13.53-10.7-25.19-1.1-7.4-1-13.68 1.6-19.52 2.5-5.85 7.6-11.24 14.8-12.37s16.5 2.06 22.3 6.95c5.7 4.92 7.9 11.62 7 17.11-0.8 5.49-4.6 9.82-8.8 9.75-4.2-0.08-8.7-4.5-9.6-8.47-1-3.97 1.6-7.48 0.7-8.76-0.9-1.31-5.4-0.39-8.5 4.08-3.1 4.46-5 12.47-0.8 18.32 4.3 5.88 14.6 9.6 22.5 7.09 8-2.52 13.5-11.34 13.7-21.83 0.1-10.53-5.1-22.71-14-29.13-1.3-0.95-2.7-1.77-4.1-2.44 5.5-2.09 11.7-5.64 14.9-10.99 3.2-5.6 3.2-13.14 0.4-17.93-2.9-4.82-8.4-6.87-13.8-7.08-5.3-0.22-10.5 1.49-13.6 4.36s-4.2 6.94-4.3 10.27c0 3.37 1 5.95 2.1 4.75 1.1-1.17 2.4-6.13 5.7-8.43 3.3-2.27 8.5-1.95 11.4 0.92 2.9 2.83 3.3 8.18 2.7 11.94-0.6 3.72-2.3 5.84-6.1 8.15-1.2 0.74-2.6 1.52-4.1 2.23-7.2-2.09-15.2-1.52-21.4 1.49-8.9 4.29-14.3 13.5-15.7 23.24-0.7 5.1-0.4 10.38 0.4 15.17-4.9-8.08-9.6-16.02-13.7-23.99-8.7-16.48-15.3-33.1-18.2-48.12s-2.3-28.42 1.4-37.98c3.6-9.61 10.3-15.34 18.5-16.41 8.3-1.03 18.2 2.66 24.3 8.58 6.2 5.95 8.5 14.1 8 20.73-0.6 6.62-4 11.69-7.5 16.01-3.4 4.29-6.8 7.87-6.6 8.97 0.1 1.09 3.8-0.29 8.1-2.7 4.4-2.44 9.5-5.88 13.2-10.2 3.8-4.33 6.2-9.5 6.7-16.41s-0.9-14.02-5.6-22.31c-6.8-11.37-20-22.86-34.7-23.47-5 0.05-11.3 0.79-16.2 3.44-9.1 4.96-17.3 14.49-20.9 26.47-3.7 11.97-2.8 26.36-0.6 38.09s5.7 20.83 3 22.14c-2.7 1.35-11.6-5.1-19.1-12.68-7.5-7.62-13.6-16.37-18-27.25s-7.2-23.88-6.2-33.02c0.8-9.37 13.9-21.37 10.5-21.39-0.6 0.03-1.5 0.3-2.4 0.7 0.4-0.94 0.6-1.78 0.7-2.43 0-3.41-12 9.72-21.4 10.5-9.1 0.99-22.1-1.77-33-6.2s-19.7-10.53-27.3-18c-7.6-7.48-14-16.37-12.7-19.07 1.3-2.69 10.5 0.75 22.2 2.94 11.7 2.2 26.1 3.12 38.1-0.53 12-3.61 21.5-11.8 26.4-20.97 2.7-4.905 3.4-11.12 3.5-16.11-0.6-14.715-12.1-27.975-23.5-34.705-8.3-4.783-15.4-6.166-22.3-5.67-6.9 0.532-12.1 2.942-16.4 6.698-4.3 3.72-7.8 8.788-10.2 13.181-2.4 4.359-3.8 8.044-2.7 8.186s4.7-3.261 9-6.662c4.3-3.437 9.4-6.875 16-7.442 6.6-0.531 14.8 1.808 20.7 7.938s9.6 16.051 8.6 24.307c-1.1 8.259-6.8 14.879-16.4 18.529s-23 4.33-38 1.38c-15-2.9-31.7-9.46-48.1-18.138-8-4.181-15.9-8.894-24-13.713 4.8 0.744 10 1.099 15.2 0.391 9.7-1.382 18.9-6.804 23.2-15.698 3-6.236 3.6-14.208 1.5-21.472 0.7-1.417 1.5-2.834 2.2-4.074 2.3-3.756 4.4-5.492 8.2-6.094 3.7-0.638 9.1-0.179 11.9 2.691 2.9 2.87 3.2 8.15 0.9 11.446-2.3 3.295-7.2 4.536-8.4 5.67-1.2 1.133 1.4 2.09 4.7 2.054 3.4-0.071 7.4-1.169 10.3-4.287 2.9-3.083 4.6-8.22 4.4-13.57-0.2-5.351-2.3-10.914-7.1-13.748-4.8-2.835-12.3-2.871-17.9 0.388-5.4 3.154-8.9 9.356-11 14.883-0.7-1.417-1.5-2.8-2.5-4.111-6.4-8.858-18.6-14.138-29.1-13.996s-19.3 5.705-21.8 13.642 1.2 18.248 7.1 22.5c5.8 4.217 13.8 2.375 18.3-0.779 4.4-3.118 5.4-7.547 4.1-8.469-1.3-0.921-4.8 1.666-8.8 0.709-4-0.956-8.4-5.422-8.5-9.603 0-4.181 4.3-8.043 9.8-8.858 5.5-0.85 12.2 1.346 17.1 7.086 4.9 5.776 8.1 15.095 6.9 22.287-1.1 7.193-6.5 12.262-12.3 14.813-5.9 2.551-12.1 2.621-19.5 1.594-11.7-1.63-15.2-5.209-25.2-10.772-31.8-17.468-58.1-26.221-83.8-27.674-25-1.417-49.5 4.04-78.1 15.024-14.8 5.705-28.2 12.154-42.3 18.603-3.3 1.524-6.7 3.047-10 4.571-0.3-1.028-0.6-2.161-0.8-3.366-0.6-4.641 0-10.488 1.7-17.504 1.6-7.015 4.2-15.2 8.8-22.003 4.7-6.839 11.3-12.298 12-11.518 0.8 0.78-4.4 7.796-8.1 14.422-3.7 6.661-5.9 12.933-7.3 17.752-1.4 4.783-2.2 8.115 0.5 8.115 2.7-0.035 8.8-3.438 14.3-7.832 5.6-4.358 10.7-9.709 13.6-18 2.8-8.291 3.3-19.487 6.7-26.644 3.4-7.1225 9.7-10.17 7.6-10.418-0.2-0.013767-0.3-0.016278-0.5-0.008281-2.9 0.12314-12.6 2.6233-21.9 6.2442-9.8 3.8971-19.2 9.0701-26 17.326-6.9 8.256-11.2 19.595-11.9 29.729-0.6 10.133 2.5 19.063 5.6 24.13 0.4 0.603 0.8 1.133 1.1 1.629-9.8 4.394-20.1 8.895-31.3 13.678-16.86 7.193-35.78 14.952-56.54 21.292-12.12 3.72-24.84 6.95-37.17 9.53 9.67-4.57 21.01-10.66 29.19-19.52 11.06-11.976 16.37-28.949 10.49-44.433-5.88-15.449-22.92-29.444-43.08-32.527-20.17-3.118-43.45 4.643-57.34 16.867-13.89 12.26-18.42 28.984-11.48 41.279 6.95 12.296 25.41 20.194 38.8 18.424 13.36-1.73 21.69-13.109 23.6-21.931 1.88-8.823-2.66-15.13-5.6-14.741-2.94 0.39-4.25 7.512-10.8 10.95-6.59 3.437-18.39 3.223-23.88-1.667-5.53-4.854-4.75-14.386 1.52-21.685s18.11-12.402 32.17-11.232c14.1 1.133 30.51 8.54 38.38 18.32 7.86 9.815 7.22 22.039 2.72 31.748-4.5 9.748-12.82 17.038-23.84 23.418-6.77 3.9-18.6 10.17-26.26 11.23-19.27 2.7-35.29 3.16-49.5 2.13-11.72-0.85-22.22-2.75-32.03-5.87 4.43-2.72 8.3-5.56 11.68-8.34 5.99-4.96 19.88-21.065 16.25-18.609l-3 2.029c-2.19 1.56-5.42 4-9.38 6.66-6.9 4.69-16.01 10.15-25.94 14.41-9.92-4.26-19.03-9.72-25.93-14.41-3.97-2.66-7.19-5.1-9.39-6.66l-3-2.029c-3.63-2.456 10.27 13.649 16.25 18.609 3.39 2.78 7.25 5.62 11.69 8.34-9.81 3.12-20.31 5.02-32.04 5.87-14.2 1.03-30.22 0.57-49.5-2.13-7.65-1.06-19.48-7.33-26.25-11.23-11.02-6.38-19.35-13.67-23.85-23.418-4.5-9.709-5.13-21.933 2.73-31.748 7.87-9.78 24.27-17.187 38.37-18.32 14.07-1.17 25.91 3.933 32.18 11.232s7.05 16.831 1.52 21.685c-5.49 4.89-17.29 5.104-23.88 1.667-6.55-3.438-7.86-10.56-10.81-10.95-2.94-0.389-7.47 5.918-5.6 14.741 1.92 8.822 10.25 20.201 23.6 21.931 13.4 1.77 31.86-6.128 38.8-18.424 6.95-12.295 2.41-29.019-11.48-41.279-13.89-12.224-37.17-19.985-57.33-16.867-20.16 3.083-37.2 17.078-43.09 32.527-5.88 15.484-0.56 32.457 10.49 44.433 8.19 8.86 19.53 14.95 29.2 19.52-12.33-2.58-25.05-5.81-37.17-9.53-20.76-6.34-39.68-14.099-56.59-21.292-11.19-4.783-21.47-9.284-31.28-13.678 0.35-0.496 0.74-1.026 1.09-1.629 3.12-5.067 6.24-13.997 5.6-24.13-0.64-10.134-4.99-21.473-11.83-29.729-6.88-8.256-16.19-13.429-26.04-17.326-9.27-3.621-19.01-6.1212-21.88-6.2443zm-74.85 54.123c12.87-0.049 24.97 1.532 34.19 3.711 12.33 2.941 19.55 6.981 19.63 8.433 0.07 1.418-7.09 0.283-18.07-0.177-10.99-0.461-25.84-0.247-41.21 2.056-15.35 2.303-31.26 6.696-44.72 15.094-13.47 8.398-24.48 20.838-30.44 32.388-5.91 11.55-6.73 22.25-4.92 31.92 1.77 9.68 6.13 18.32 15.02 23.32 8.86 4.99 22.18 6.38 32.28 3.68 10.06-2.69 16.83-9.49 19.59-16.69 2.77-7.19 1.53-14.77-2.76-21.11-4.25-6.35-11.48-11.41-14.07-11.73-2.58-0.36-0.53 4 0.29 8.22 0.78 4.21 0.32 8.22-1.81 11.97-2.12 3.73-5.92 7.2-11.44 8.3-5.53 1.06-12.76-0.18-17.19-5.99s-6.06-16.2-1.84-26.65c4.18-10.49 14.21-21.081 28.52-28.876 14.35-7.831 32.99-12.897 53.93-14.811 20.94-1.878 44.19-0.638 69.98 5.35 25.76 5.988 54.07 16.69 84.97 27.677 2.76 0.99 5.56 1.98 8.36 2.97-7.69 1.14-17.82 3.94-30.4 9.78-15.06 7.02-37.7 24.77-49.78 28.1-4.5 1.24-10.42 1.35-17.58 0.6-7.19-0.7-15.62-2.3-22.96-6.06-7.37-3.72-13.64-9.56-12.93-10.38 0.67-0.81 8.29 3.44 15.34 6.24s13.57 4.18 18.5 4.99c4.96 0.82 8.36 1.07 8.01-1.55-0.39-2.66-4.5-8.22-9.57-13.22-5.03-4.96-10.99-9.39-19.6-11.13-8.57-1.73-19.77-0.81-27.24-3.29-7.52-2.45-11.34-8.29-11.31-6.2 0.04 2.09 3.94 12.08 9.04 21.36 5.1 9.32 11.41 17.9 20.48 23.64 9.03 5.74 20.83 8.64 30.97 8 3.22-0.21 6.27-0.77 9.07-1.59-3.58 3.4-6.8 6.66-10.17 9.96-7.58 7.4-16.02 15.02-25.23 20.76-9.25 5.74-19.31 9.67-21.33 10.03-2.02 0.32 4.04-2.91 10.66-7.09 6.67-4.22 13.93-9.39 19.88-14.42 5.99-5.03 10.7-9.92 9.14-11.91-1.59-1.98-9.46-1.06-17.22 1.14-7.72 2.23-15.34 5.74-21.26 11.16-5.91 5.39-10.17 12.72-13.32 20.44-3.12 7.73-5.14 15.91-5.77 22.26-0.64 6.37 0.1 10.91 1.13 10.41 1.06-0.46 2.37-5.98 10.63-10.45 8.26-4.46 23.46-7.86 34.55-14.99 11.12-7.15 18.14-18.03 22.64-26.11 4.53-8.08 6.55-13.36 13.96-20.3 7.44-6.95 20.27-15.52 33.66-21.97 13.43-6.41 27.39-10.74 40.04-13.57 12.61-2.8 23.88-4.15 33.63-4.72 0.6-0.03 1.24-0.07 1.87-0.1-8.32 3.75-15.37 11.05-18.53 21.36-4.5 14.81 2.59 24.95-1.49 34.98-2.12 5.31-4.32 7.83-8.36 9-4.04 1.16-9.96 0.99-13.39-2.7-3.4-3.68-4.32-10.84-2.13-15.48 2.2-4.64 7.51-6.77 8.68-8.4 1.21-1.63-1.77-2.73-5.42-2.41-3.65 0.36-8.04 2.2-10.88 6.66-2.83 4.43-4.18 11.55-3.4 18.82 0.75 7.23 3.62 14.67 9.18 18.11 5.56 3.43 13.85 2.9 19.63-2.02 5.56-4.72 8.86-13.43 10.56-21.12 0.92 1.91 1.95 3.72 3.12 5.38 7.93 11.55 21.89 17.75 33.41 16.69s20.62-9.35 22.61-20.37c1.98-10.99-3.16-24.7-10.03-29.98-6.87-5.24-15.49-2.09-20.06 2.52-4.6 4.64-5.17 10.73-3.65 11.87 1.53 1.17 5.11-2.66 9.57-1.67 4.47 0.96 9.78 6.7 10.28 12.37 0.49 5.67-3.87 11.27-9.82 12.83-5.95 1.59-13.53-0.86-19.52-8.26-5.99-7.44-10.38-19.84-9.89-29.69 0.5-9.89 5.96-17.23 12.09-21.16 12.08-7.76 42.02 4.93 56.97 7.51 31 5.35 59.57 4.79 81.04 0.04 9.18-2.02 17.07-4.8 23.88-7.98 6.82 3.18 14.7 5.96 23.89 7.98 21.47 4.75 50.03 5.31 81.04-0.04 14.95-2.58 44.89-15.27 56.97-7.51 6.13 3.93 11.59 11.27 12.08 21.16 0.5 9.85-3.89 22.25-9.88 29.69-5.99 7.4-13.57 9.85-19.53 8.26-5.95-1.56-10.31-7.16-9.81-12.83s5.81-11.41 10.28-12.37c4.46-0.99 8.04 2.84 9.56 1.67 1.53-1.14 0.96-7.23-3.65-11.87-4.57-4.61-13.18-7.76-20.05-2.52-6.88 5.28-12.01 18.99-10.03 29.98 1.98 11.02 11.09 19.31 22.61 20.37 11.51 1.06 25.47-5.14 33.41-16.69 1.17-1.66 2.2-3.47 3.12-5.38 1.7 7.69 4.99 16.4 10.56 21.12 5.77 4.92 14.07 5.45 19.67 2.02 5.5-3.44 8.4-10.88 9.1-18.11 0.8-7.27-0.5-14.39-3.4-18.82-2.8-4.46-7.2-6.3-10.8-6.66-3.7-0.32-6.67 0.78-5.47 2.41 1.17 1.63 6.47 3.76 8.67 8.4s1.3 11.8-2.1 15.48c-3.45 3.69-9.37 3.86-13.41 2.7-4.03-1.17-6.23-3.69-8.36-9-4.07-10.03 3.01-20.17-1.49-34.98-3.15-10.31-10.2-17.61-18.53-21.36 0.64 0.03 1.28 0.07 1.88 0.1 9.74 0.57 21.01 1.92 33.63 4.72 12.68 2.83 26.58 7.16 40.08 13.57 13.4 6.45 26.2 15.02 33.6 21.97 7.4 6.94 9.4 12.22 14 20.3 4.5 8.08 11.5 18.96 22.6 26.11 11.1 7.13 26.3 10.53 34.6 14.99 8.2 4.47 9.5 9.99 10.6 10.45 1 0.5 1.8-4.04 1.1-10.41-0.6-6.35-2.6-14.53-5.7-22.26-3.2-7.72-7.4-15.05-13.4-20.44-5.9-5.42-13.5-8.93-21.2-11.16-7.8-2.2-15.7-3.12-17.2-1.14-1.6 1.99 3.1 6.88 9.1 11.91 5.9 5.03 13.2 10.2 19.9 14.42 6.6 4.18 12.7 7.41 10.6 7.09-2-0.36-12-4.29-21.3-10.03-9.2-5.74-17.6-13.36-25.2-20.76-3.4-3.3-6.6-6.56-10.2-9.96 2.8 0.82 5.9 1.38 9.1 1.59 10.1 0.64 21.9-2.26 30.9-8 9.1-5.74 15.4-14.32 20.5-23.64 5.1-9.28 9-19.27 9.1-21.36 0-2.09-3.8 3.75-11.3 6.2-7.5 2.48-18.7 1.56-27.3 3.29-8.6 1.74-14.6 6.17-19.6 11.13-5 5-9.2 10.56-9.5 13.22-0.4 2.62 3 2.37 8 1.55 4.9-0.81 11.4-2.19 18.5-4.99 7-2.8 14.6-7.05 15.3-6.24 0.7 0.82-5.6 6.66-12.9 10.38-7.4 3.76-15.8 5.36-23 6.06-7.2 0.75-13.1 0.64-17.6-0.6-12.1-3.33-34.7-21.08-49.8-28.1-12.5-5.84-22.67-8.64-30.36-9.78 2.8-0.99 5.6-1.98 8.37-2.97 30.89-10.987 59.19-21.689 84.99-27.677s49-7.228 70-5.35c20.9 1.914 39.5 6.98 53.9 14.811 14.3 7.795 24.3 18.386 28.5 28.876 4.2 10.45 2.6 20.84-1.8 26.65-4.5 5.81-11.7 7.05-17.2 5.99-5.5-1.1-9.3-4.57-11.5-8.3-2.1-3.75-2.6-7.76-1.8-11.97 0.8-4.22 2.9-8.58 0.3-8.22-2.6 0.32-9.8 5.38-14.1 11.73-4.2 6.34-5.5 13.92-2.7 21.11 2.7 7.2 9.5 14 19.6 16.69 10.1 2.7 23.4 1.31 32.3-3.68 8.8-5 13.2-13.64 15-23.32 1.8-9.67 1-20.37-4.9-31.92-6-11.55-17-23.99-30.5-32.388-13.4-8.398-29.4-12.791-44.7-15.094-15.4-2.303-30.2-2.517-41.2-2.056-11 0.46-18.1 1.595-18.1 0.177 0.1-1.452 7.3-5.492 19.7-8.433 12.2-2.906 29.6-4.748 47.2-3.082 17.5 1.665 35.3 6.838 53.1 13.748 17.8 6.909 35.8 15.519 47.3 24.554 11.5 9.034 16.6 18.494 17.1 26.474 0.6 8-3.3 14.56-7.9 16.93-4.6 2.34-9.9 0.53-12.6-2.87-2.8-3.4-3-8.36-4.8-8.54-1.7-0.17-4.9 4.43-4.7 11.13 0.3 6.66 3.9 15.41 10.5 19.84 6.7 4.43 16.2 4.54 22.8 0.92 6.5-3.61 10.1-10.98 11.5-18.24 1.5-7.23 0.8-14.39-0.8-20.1-1.7-5.67-4.2-9.95-2.8-10.41 1.4-0.43 6.7 2.9 11.2 7.97 4.6 5.07 8.4 11.83 14.3 22.5 5.9 10.63 14 25.12 24.6 34.33 10.6 9.22 23.7 13.11 35.5 12.62 6-0.27 11.6-1.68 16.6-3.76-2.1 4.95-3.5 10.59-3.8 16.59-0.5 11.8 3.4 24.91 12.6 35.51 9.2 10.59 23.7 18.63 34.4 24.58 10.6 5.92 17.4 9.71 22.5 14.25 5 4.57 8.4 9.85 7.9 11.23-0.4 1.38-4.7-1.13-10.4-2.76-5.7-1.6-12.8-2.3-20.1-0.85-7.2 1.42-14.6 4.99-18.2 11.55-3.6 6.55-3.5 16.12 0.9 22.75 4.4 6.59 13.2 10.27 19.8 10.52 6.7 0.21 11.3-3.01 11.2-4.71-0.2-1.74-5.2-1.99-8.6-4.75-3.4-2.73-5.2-8.04-2.8-12.65 2.3-4.61 8.9-8.5 16.9-7.94 8 0.57 17.4 5.64 26.5 17.15 9 11.52 17.6 29.48 24.5 47.3 6.9 17.83 12.1 35.58 13.8 53.12 1.6 17.54-0.2 34.94-3.1 47.23-3 12.33-7 19.56-8.4 19.63-1.5 0.07-0.3-7.08 0.1-18.07 0.5-10.98 0.3-25.83-2-41.21-2.3-15.34-6.7-31.25-15.1-44.71-8.4-13.47-20.9-24.49-32.4-30.44-11.6-5.92-22.3-6.73-31.9-4.93-9.7 1.78-18.3 6.13-23.3 15.03-5 8.86-6.4 22.18-3.7 32.28 2.7 10.06 9.5 16.83 16.7 19.59s14.7 1.52 21.1-2.76c6.3-4.26 11.4-11.48 11.7-14.07 0.4-2.59-4-0.53-8.2 0.28-4.2 0.78-8.2 0.32-12-1.8-3.7-2.13-7.2-5.92-8.3-11.45-1-5.53 0.2-12.75 6-17.18s16.2-6.06 26.7-1.85c10.4 4.19 21 14.21 28.8 28.53 7.9 14.35 12.9 32.99 14.8 53.93s0.7 44.18-5.3 69.98c-6 25.76-16.7 54.07-27.7 84.97-1 2.76-2 5.56-3 8.36-1.1-7.69-3.9-17.82-9.7-30.4-7.1-15.06-24.8-37.7-28.1-49.79-1.3-4.5-1.4-10.41-0.6-17.57 0.7-7.19 2.3-15.63 6-22.96 3.7-7.37 9.6-13.64 10.4-12.93 0.8 0.67-3.4 8.29-6.2 15.34s-4.2 13.57-5 18.49c-0.8 4.96-1.1 8.37 1.5 8.01 2.7-0.39 8.2-4.5 13.2-9.57 5-5.03 9.4-10.98 11.2-19.59 1.7-8.58 0.8-19.77 3.3-27.25 2.4-7.51 8.3-11.34 6.2-11.3-2.1 0.03-12.1 3.93-21.4 9.03-9.3 5.11-17.9 11.41-23.6 20.48-5.8 9.04-8.7 20.84-8 30.97 0.2 3.23 0.7 6.27 1.6 9.07-3.4-3.58-6.7-6.8-10-10.16-7.4-7.59-15-16.02-20.8-25.23-5.7-9.25-9.6-19.32-10-21.34-0.3-2.02 2.9 4.04 7.1 10.67 4.2 6.66 9.4 13.93 14.4 19.88 5 5.99 9.9 10.7 11.9 9.14 2-1.59 1.1-9.46-1.1-17.22-2.2-7.72-5.8-15.34-11.2-21.26s-12.7-10.17-20.4-13.32c-7.7-3.12-15.9-5.14-22.3-5.78s-10.9 0.11-10.4 1.13c0.5 1.07 6 2.38 10.5 10.64 4.4 8.25 7.8 23.45 14.9 34.54 7.2 11.13 18.1 18.15 26.2 22.65 8 4.53 13.3 6.55 20.3 13.96 6.9 7.44 15.5 20.26 21.9 33.66 6.4 13.43 10.8 27.39 13.6 40.04 2.8 12.61 4.2 23.88 4.7 33.62 0.1 0.6 0.1 1.24 0.1 1.88-3.7-8.33-11-15.38-21.3-18.53-14.9-4.5-25 2.58-35-1.49-5.3-2.13-7.8-4.32-9-8.36s-1-9.96 2.7-13.4c3.7-3.4 10.8-4.32 15.5-2.12 4.6 2.2 6.7 7.51 8.4 8.68 1.6 1.2 2.7-1.77 2.4-5.42-0.4-3.65-2.2-8.05-6.7-10.88-4.4-2.84-11.5-4.18-18.8-3.4-7.2 0.74-14.7 3.61-18.1 9.18-3.4 5.56-2.9 13.85 2 19.63 4.7 5.56 13.4 8.85 21.1 10.55-1.9 0.93-3.7 1.95-5.4 3.12-11.5 7.94-17.7 21.9-16.6 33.42 1 11.51 9.3 20.62 20.3 22.6 11 1.99 24.7-3.15 30-10.02 5.2-6.88 2.1-15.49-2.5-20.06-4.7-4.61-10.8-5.17-11.9-3.65-1.2 1.52 2.7 5.1 1.7 9.57-1 4.46-6.7 9.78-12.4 10.27-5.7 0.5-11.3-3.86-12.8-9.81-1.6-5.95 0.8-13.54 8.2-19.53 7.5-5.98 19.9-10.38 29.7-9.88 9.9 0.49 17.3 5.95 21.2 12.08 7.8 12.08-4.9 42.02-7.5 56.98-5.4 31-4.8 59.56-0.1 81.03 2.1 9.19 4.8 17.07 8 23.89-3.2 6.82-5.9 14.7-8 23.89-4.7 21.47-5.3 50.03 0.1 81.03 2.6 14.95 15.3 44.89 7.5 56.98-3.9 6.13-11.3 11.58-21.2 12.08-9.8 0.5-22.2-3.9-29.7-9.89-7.4-5.98-9.8-13.57-8.2-19.52 1.5-5.95 7.1-10.31 12.8-9.81 5.7 0.49 11.4 5.81 12.4 10.27 1 4.47-2.9 8.04-1.7 9.57 1.1 1.52 7.2 0.96 11.9-3.65 4.6-4.57 7.7-13.18 2.5-20.06-5.3-6.87-19-12.01-30-10.02-11 1.98-19.3 11.09-20.3 22.6-1.1 11.52 5.1 25.48 16.6 33.42 1.7 1.16 3.5 2.19 5.4 3.11-7.7 1.71-16.4 5-21.1 10.56-4.9 5.78-5.4 14.07-2 19.67 3.4 5.5 10.9 8.4 18.1 9.1 7.3 0.8 14.4-0.5 18.8-3.4 4.5-2.8 6.3-7.2 6.7-10.8 0.3-3.69-0.8-6.66-2.4-5.46-1.7 1.17-3.8 6.46-8.4 8.66-4.7 2.2-11.8 1.3-15.5-2.1-3.7-3.44-3.9-9.36-2.7-13.4s3.7-6.23 9-8.36c10-4.08 20.1 3.01 35-1.49 10.3-3.15 17.6-10.2 21.3-18.53 0 0.64 0 1.27-0.1 1.88-0.5 9.74-1.9 21.01-4.7 33.62-2.8 12.68-7.2 26.58-13.6 40.08-6.4 13.4-15 26.2-21.9 33.6-7 7.4-12.3 9.4-20.3 14-8.1 4.5-19 11.5-26.2 22.6-7.1 11.1-10.5 26.3-14.9 34.6-4.5 8.2-10 9.5-10.5 10.6-0.5 1 4 1.8 10.4 1.1 6.4-0.6 14.6-2.6 22.3-5.7 7.7-3.2 15-7.4 20.4-13.4 5.4-5.9 9-13.5 11.2-21.2 2.2-7.8 3.1-15.6 1.1-17.2s-6.9 3.1-11.9 9.1-10.2 13.2-14.4 19.9c-4.2 6.6-7.4 12.7-7.1 10.6 0.4-2 4.3-12 10-21.3 5.8-9.2 13.4-17.6 20.8-25.2 3.3-3.4 6.6-6.6 10-10.2-0.9 2.8-1.4 5.9-1.6 9.1-0.7 10.1 2.2 21.9 8 31 5.7 9 14.3 15.3 23.6 20.4s19.3 9 21.4 9.1c2.1 0-3.8-3.8-6.2-11.3-2.5-7.5-1.6-18.7-3.3-27.3-1.8-8.6-6.2-14.5-11.2-19.6-5-5-10.5-9.2-13.2-9.5-2.6-0.4-2.3 3-1.5 8 0.8 4.9 2.2 11.4 5 18.5 2.8 7 7 14.6 6.2 15.3s-6.7-5.6-10.4-12.9c-3.7-7.4-5.3-15.8-6-23-0.8-7.1-0.7-13.1 0.6-17.6 3.3-12 21-34.7 28.1-49.7 5.8-12.6 8.6-22.76 9.7-30.45 1 2.8 2 5.6 3 8.36 11 30.89 21.7 59.19 27.7 84.99s7.2 49 5.3 70c-1.9 20.9-6.9 39.5-14.8 53.9-7.8 14.3-18.4 24.3-28.8 28.5-10.5 4.2-20.9 2.6-26.7-1.8-5.8-4.5-7-11.7-6-17.2 1.1-5.5 4.6-9.3 8.3-11.5 3.8-2.1 7.8-2.5 12-1.8 4.2 0.9 8.6 2.9 8.2 0.3-0.3-2.6-5.4-9.8-11.7-14-6.4-4.3-13.9-5.6-21.1-2.8s-14 9.5-16.7 19.6-1.3 23.4 3.7 32.3 13.6 13.2 23.3 15c9.6 1.8 20.3 1 31.9-4.9 11.5-6 24-17 32.4-30.5 8.4-13.4 12.8-29.4 15.1-44.7 2.3-15.4 2.5-30.2 2-41.2-0.4-11-1.6-18.1-0.1-18.1 1.4 0.1 5.4 7.3 8.4 19.7 2.9 12.3 4.7 29.6 3.1 47.2-1.7 17.5-6.9 35.3-13.8 53.1s-15.5 35.8-24.5 47.3c-9.1 11.5-18.5 16.6-26.5 17.2-8 0.5-14.6-3.4-16.9-8-2.4-4.6-0.6-9.9 2.8-12.6 3.4-2.8 8.4-3 8.6-4.8 0.1-1.7-4.5-4.9-11.2-4.7-6.6 0.3-15.4 3.9-19.8 10.5-4.4 6.7-4.5 16.2-0.9 22.8 3.6 6.5 11 10.1 18.2 11.5 7.3 1.5 14.4 0.8 20.1-0.8s10-4.2 10.4-2.8c0.5 1.4-2.9 6.7-7.9 11.2-5.1 4.6-11.9 8.4-22.5 14.3-10.7 5.9-25.2 14-34.4 24.6s-13.1 23.7-12.6 35.5c0.3 6 1.7 11.6 3.8 16.6-5-2.1-10.6-3.5-16.6-3.8-11.8-0.5-24.9 3.4-35.5 12.6s-18.7 23.7-24.6 34.4c-5.9 10.6-9.7 17.4-14.3 22.5-4.5 5-9.8 8.4-11.2 7.9-1.4-0.4 1.1-4.7 2.8-10.4 1.6-5.7 2.3-12.8 0.8-20.1-1.4-7.2-5-14.6-11.5-18.2-6.6-3.6-16.1-3.5-22.8 0.9-6.6 4.4-10.2 13.2-10.5 19.9-0.2 6.6 3 11.3 4.7 11.1 1.8-0.2 2-5.2 4.8-8.6 2.7-3.4 8-5.2 12.6-2.8 4.6 2.3 8.5 8.9 7.9 16.9-0.5 8-5.6 17.4-17.1 26.5-11.5 9-29.5 17.6-47.3 24.5s-35.6 12.1-53.1 13.8c-17.6 1.6-35-0.2-47.2-3.1-12.4-2.9-19.6-7-19.7-8.4 0-1.5 7.1-0.3 18.1 0.1 11 0.5 25.8 0.3 41.2-2 15.3-2.3 31.3-6.7 44.7-15.1 13.5-8.4 24.5-20.8 30.5-32.4 5.9-11.5 6.7-22.2 4.9-31.9s-6.2-18.3-15-23.3c-8.9-5-22.2-6.4-32.3-3.7s-16.9 9.5-19.6 16.7c-2.8 7.2-1.5 14.7 2.7 21.1 4.3 6.3 11.5 11.4 14.1 11.7 2.6 0.4 0.5-4-0.3-8.2s-0.3-8.2 1.8-12c2.2-3.7 6-7.2 11.5-8.3 5.5-1 12.7 0.2 17.2 6 4.4 5.8 6 16.2 1.8 26.7-4.2 10.4-14.2 21-28.5 28.8-14.4 7.9-33 12.9-53.9 14.8-21 1.9-44.2 0.7-70-5.3s-54.1-16.7-84.99-27.7c-2.77-1-5.57-2-8.37-3 7.69-1.1 17.86-3.9 30.36-9.7 15.1-7 37.7-24.8 49.8-28.1 4.5-1.3 10.4-1.4 17.6-0.6 7.2 0.7 15.6 2.3 23 6 7.3 3.7 13.6 9.6 12.9 10.4s-8.3-3.4-15.3-6.2c-7.1-2.8-13.6-4.2-18.5-5-5-0.8-8.4-1.1-8 1.5 0.3 2.7 4.5 8.3 9.5 13.3 5 4.9 11 9.3 19.6 11.1 8.6 1.7 19.8 0.8 27.3 3.3 7.5 2.4 11.3 8.3 11.3 6.2-0.1-2.1-4-12.1-9.1-21.4s-11.4-17.9-20.5-23.6c-9-5.8-20.8-8.7-30.9-8-3.2 0.2-6.3 0.7-9.1 1.6 3.6-3.4 6.8-6.7 10.2-10 7.6-7.4 16-15 25.2-20.8 9.3-5.7 19.3-9.6 21.3-10 2.1-0.3-4 2.9-10.6 7.1-6.7 4.2-14 9.4-19.9 14.4-6 5.1-10.7 9.9-9.1 11.9 1.5 2 9.4 1.1 17.2-1.1 7.7-2.2 15.3-5.7 21.2-11.2 6-5.4 10.2-12.7 13.4-20.4 3.1-7.7 5.1-15.9 5.7-22.3 0.7-6.3-0.1-10.9-1.1-10.4-1.1 0.5-2.4 6-10.6 10.5-8.3 4.4-23.5 7.8-34.6 15-11.1 7.1-18.1 18-22.6 26.1-4.6 8-6.6 13.3-14 20.3-7.4 6.9-20.2 15.5-33.6 21.9-13.5 6.5-27.4 10.8-40.08 13.6-12.62 2.8-23.89 4.2-33.63 4.7-0.6 0.1-1.24 0.1-1.88 0.1 8.33-3.7 15.38-11 18.53-21.3 4.5-14.8-2.58-25 1.49-35 2.13-5.3 4.33-7.8 8.36-9 4.04-1.2 9.96-1 13.41 2.7 3.4 3.7 4.3 10.8 2.1 15.5-2.2 4.6-7.5 6.7-8.67 8.4-1.2 1.6 1.77 2.7 5.47 2.4 3.6-0.4 8-2.2 10.8-6.7 2.9-4.4 4.2-11.5 3.4-18.8-0.7-7.2-3.6-14.7-9.1-18.1-5.6-3.4-13.9-2.9-19.67 2-5.57 4.7-8.86 13.4-10.56 21.1-0.92-1.9-1.95-3.7-3.12-5.4-7.94-11.5-21.9-17.7-33.41-16.6-11.52 1-20.63 9.3-22.61 20.3s3.15 24.7 10.03 30c6.87 5.3 15.48 2.1 20.05-2.5 4.61-4.6 5.18-10.7 3.65-11.9-1.52-1.1-5.1 2.7-9.56 1.7-4.47-1-9.78-6.7-10.28-12.4-0.5-5.6 3.86-11.2 9.81-12.8 5.96-1.6 13.54 0.8 19.53 8.3 5.99 7.4 10.38 19.8 9.88 29.6-0.49 9.9-5.95 17.3-12.08 21.2-12.08 7.8-42.02-4.9-56.97-7.5-31.01-5.4-59.57-4.8-81.04 0-9.19 2-17.07 4.8-23.89 7.9-6.81-3.1-14.7-5.9-23.88-7.9-21.47-4.8-50.04-5.4-81.04 0-14.95 2.6-44.89 15.3-56.97 7.5-6.13-3.9-11.59-11.3-12.09-21.2-0.49-9.8 3.9-22.2 9.89-29.6 5.99-7.5 13.57-9.9 19.52-8.3s10.31 7.2 9.82 12.8c-0.5 5.7-5.81 11.4-10.28 12.4-4.46 1-8.04-2.8-9.57-1.7-1.52 1.2-0.95 7.3 3.65 11.9 4.57 4.6 13.19 7.8 20.06 2.5s12.01-19 10.03-30c-1.99-11-11.09-19.3-22.61-20.3-11.52-1.1-25.48 5.1-33.41 16.6-1.17 1.7-2.2 3.5-3.12 5.4-1.7-7.7-5-16.4-10.56-21.1-5.78-4.9-14.07-5.4-19.63-2s-8.43 10.9-9.18 18.1c-0.78 7.3 0.57 14.4 3.4 18.8 2.84 4.5 7.23 6.3 10.88 6.7 3.65 0.3 6.63-0.8 5.42-2.4-1.17-1.7-6.48-3.8-8.68-8.4-2.19-4.7-1.27-11.8 2.13-15.5 3.43-3.7 9.35-3.9 13.39-2.7s6.24 3.7 8.36 9c4.08 10-3.01 20.2 1.49 35 3.16 10.3 10.21 17.6 18.53 21.3-0.63 0-1.27 0-1.87-0.1-9.75-0.5-21.02-1.9-33.63-4.7-12.65-2.8-26.61-7.1-40.04-13.6-13.39-6.4-26.22-15-33.66-21.9-7.41-7-9.43-12.3-13.96-20.3-4.5-8.1-11.52-19-22.64-26.1-11.09-7.2-26.29-10.6-34.55-15-8.26-4.5-9.57-10-10.63-10.5-1.03-0.5-1.77 4.1-1.13 10.4 0.63 6.4 2.65 14.6 5.77 22.3 3.15 7.7 7.41 15 13.32 20.4 5.92 5.5 13.54 9 21.26 11.2 7.76 2.2 15.63 3.1 17.22 1.1 1.56-2-3.15-6.8-9.14-11.9-5.95-5-13.21-10.2-19.88-14.4-6.62-4.2-12.68-7.4-10.66-7.1 2.02 0.4 12.08 4.3 21.33 10 9.21 5.8 17.65 13.4 25.23 20.8 3.37 3.3 6.59 6.6 10.17 10-2.8-0.9-5.85-1.4-9.07-1.6-10.14-0.7-21.94 2.2-30.97 8-9.07 5.7-15.38 14.3-20.48 23.6s-9 19.3-9.04 21.4c-0.03 2.1 3.79-3.8 11.31-6.2 7.47-2.5 18.67-1.6 27.24-3.3 8.61-1.8 14.57-6.2 19.6-11.1 5.07-5 9.18-10.6 9.57-13.3 0.35-2.6-3.05-2.3-8.01-1.5-4.93 0.8-11.45 2.2-18.5 5s-14.67 7-15.34 6.2c-0.71-0.8 5.56-6.7 12.93-10.4 7.34-3.7 15.77-5.3 22.96-6 7.16-0.8 13.08-0.7 17.58 0.6 12.08 3.3 34.72 21.1 49.78 28.1 12.58 5.8 22.71 8.6 30.4 9.7-2.8 1-5.6 2-8.36 3-30.9 11-59.21 21.7-84.97 27.7-25.79 6-49.04 7.2-69.98 5.3s-39.58-6.9-53.93-14.8c-14.31-7.8-24.34-18.4-28.52-28.8-4.22-10.5-2.59-20.9 1.84-26.7s11.66-7 17.19-6c5.52 1.1 9.32 4.6 11.44 8.3 2.13 3.8 2.59 7.8 1.81 12-0.82 4.2-2.87 8.6-0.29 8.2 2.59-0.3 9.82-5.4 14.07-11.7 4.29-6.4 5.53-13.9 2.76-21.1-2.76-7.2-9.53-14-19.59-16.7-10.1-2.7-23.42-1.3-32.28 3.7-8.89 5-13.25 13.6-15.02 23.3-1.81 9.7-0.99 20.4 4.92 31.9 5.96 11.6 16.97 24 30.44 32.4 13.46 8.4 29.37 12.8 44.72 15.1 15.37 2.3 30.22 2.5 41.21 2 10.98-0.4 18.14-1.6 18.07-0.1-0.08 1.4-7.3 5.5-19.63 8.4-12.3 2.9-29.7 4.7-47.24 3.1-17.54-1.7-35.29-6.9-53.11-13.8s-35.79-15.5-47.3-24.5c-11.52-9.1-16.59-18.5-17.15-26.5-0.57-8 3.33-14.6 7.93-16.9 4.61-2.4 9.93-0.6 12.65 2.8 2.77 3.4 3.02 8.4 4.75 8.6 1.7 0.2 4.93-4.5 4.71-11.1-0.24-6.7-3.93-15.5-10.52-19.9-6.62-4.4-16.19-4.5-22.75-0.9-6.55 3.6-10.13 11-11.55 18.2-1.45 7.3-0.74 14.4 0.85 20.1 1.63 5.7 4.15 10 2.77 10.4-1.39 0.5-6.67-2.9-11.24-7.9-4.53-5.1-8.32-11.9-14.24-22.5-5.95-10.7-14-25.2-24.59-34.4-10.6-9.2-23.71-13.1-35.5-12.6-6 0.3-11.64 1.7-16.59 3.8 2.07-5 3.48-10.6 3.75-16.6 0.5-11.8-3.4-24.9-12.61-35.5-9.22-10.6-23.71-18.7-34.34-24.6-10.66-5.9-17.43-9.7-22.5-14.3-5.06-4.5-8.4-9.8-7.97-11.2 0.46-1.4 4.75 1.2 10.42 2.8 5.7 1.6 12.86 2.3 20.09 0.8 7.26-1.4 14.63-5 18.25-11.5 3.61-6.6 3.5-16.1-0.93-22.8-4.43-6.6-13.18-10.2-19.84-10.5-6.7-0.2-11.3 3-11.13 4.7 0.18 1.8 5.14 2 8.54 4.8 3.41 2.7 5.21 8 2.87 12.6-2.37 4.6-8.92 8.5-16.93 8-7.98-0.6-17.44-5.7-26.471-17.2-9.036-11.5-17.646-29.5-24.555-47.3-6.91-17.8-12.083-35.6-13.748-53.1-1.665-17.6 0.176-34.9 3.082-47.2 2.941-12.4 6.981-19.6 8.433-19.7 1.418 0 0.283 7.1-0.177 18.1-0.461 11-0.247 25.8 2.056 41.2 2.304 15.3 6.697 31.3 15.094 44.7 8.398 13.5 20.836 24.5 32.386 30.5 11.55 5.9 22.25 6.7 31.92 4.9 9.68-1.8 18.32-6.1 23.32-15s6.38-22.2 3.68-32.3c-2.69-10.1-9.49-16.8-16.68-19.6-7.2-2.8-14.78-1.5-21.12 2.8-6.34 4.2-11.41 11.4-11.73 14-0.35 2.6 4 0.6 8.22-0.3 4.22-0.7 8.22-0.3 11.98 1.8 3.72 2.2 7.19 6 8.29 11.5 1.06 5.5-0.18 12.7-5.99 17.2-5.81 4.4-16.19 6-26.65 1.8-10.49-4.2-21.079-14.2-28.874-28.5-7.831-14.4-12.897-33-14.81-53.9-1.878-21-0.639-44.2 5.349-70s16.69-54.1 27.675-84.99c0.99-2.76 1.98-5.56 2.98-8.36 1.13 7.69 3.93 17.85 9.77 30.45 7.02 15 24.77 37.7 28.1 49.7 1.24 4.5 1.35 10.5 0.61 17.6-0.71 7.2-2.31 15.6-6.06 23-3.73 7.3-9.57 13.6-10.39 12.9-0.81-0.7 3.44-8.3 6.24-15.3 2.8-7.1 4.18-13.6 5-18.5 0.81-5 1.06-8.4-1.56-8-2.66 0.3-8.22 4.5-13.22 9.5-4.96 5.1-9.39 11-11.13 19.6-1.73 8.6-0.81 19.8-3.29 27.3-2.45 7.5-8.29 11.3-6.2 11.3 2.09-0.1 12.08-4 21.37-9.1 9.31-5.1 17.89-11.4 23.63-20.4 5.74-9.1 8.64-20.9 8.01-31-0.22-3.2-0.78-6.3-1.6-9.1 3.4 3.6 6.66 6.8 9.96 10.2 7.41 7.6 15.02 16 20.76 25.2 5.74 9.3 9.68 19.3 10.03 21.3 0.32 2.1-2.91-4-7.09-10.6-4.21-6.7-9.39-13.9-14.42-19.9s-9.92-10.7-11.9-9.1c-1.99 1.6-1.07 9.4 1.13 17.2 2.23 7.7 5.74 15.3 11.16 21.2 5.39 6 12.72 10.2 20.45 13.4 7.72 3.1 15.91 5.1 22.25 5.7 6.38 0.7 10.91-0.1 10.42-1.1-0.46-1.1-5.99-2.4-10.46-10.6-4.46-8.3-7.86-23.5-14.98-34.6-7.16-11.1-18.04-18.1-26.12-22.6-8.08-4.6-13.36-6.6-20.3-14-6.95-7.4-15.52-20.2-21.97-33.6-6.41-13.5-10.74-27.4-13.57-40.08-2.8-12.61-4.15-23.88-4.71-33.62-0.04-0.61-0.07-1.24-0.11-1.88 3.76 8.33 11.05 15.38 21.37 18.53 14.81 4.5 24.94-2.59 34.97 1.49 5.31 2.13 7.83 4.32 9 8.36s0.99 9.96-2.69 13.4c-3.69 3.4-10.85 4.3-15.49 2.1s-6.77-7.49-8.4-8.66c-1.63-1.2-2.73 1.77-2.41 5.46 0.36 3.6 2.2 8 6.67 10.8 4.42 2.9 11.55 4.2 18.81 3.4 7.23-0.7 14.67-3.6 18.11-9.1 3.43-5.6 2.9-13.89-2.02-19.67-4.71-5.56-13.43-8.86-21.12-10.56 1.91-0.92 3.72-1.95 5.39-3.11 11.55-7.94 17.75-21.9 16.68-33.42-1.06-11.51-9.35-20.62-20.37-22.6-10.98-1.99-24.7 3.15-29.98 10.02-5.24 6.88-2.09 15.49 2.52 20.06 4.64 4.61 10.74 5.17 11.87 3.65 1.17-1.53-2.66-5.1-1.67-9.57 0.96-4.46 6.7-9.78 12.37-10.27 5.67-0.5 11.27 3.86 12.83 9.81 1.59 5.95-0.85 13.54-8.26 19.52-7.44 5.99-19.84 10.39-29.69 9.89-9.89-0.5-17.22-5.95-21.16-12.08-7.76-12.09 4.93-42.03 7.52-56.98 5.35-31 4.78-59.56 0.03-81.03-2.02-9.19-4.8-17.07-7.98-23.89 3.18-6.82 5.96-14.7 7.98-23.89 4.75-21.47 5.32-50.03-0.03-81.03-2.59-14.96-15.28-44.9-7.52-56.98 3.94-6.13 11.27-11.59 21.16-12.08 9.85-0.5 22.25 3.9 29.69 9.88 7.41 5.99 9.85 13.58 8.26 19.53-1.56 5.95-7.16 10.31-12.83 9.81-5.67-0.49-11.41-5.81-12.37-10.27-0.99-4.47 2.84-8.05 1.67-9.57-1.13-1.52-7.23-0.96-11.87 3.65-4.61 4.57-7.76 13.18-2.52 20.06 5.28 6.87 19 12.01 29.98 10.02 11.02-1.98 19.31-11.09 20.37-22.6 1.07-11.52-5.13-25.48-16.68-33.42-1.67-1.17-3.48-2.19-5.39-3.12 7.69-1.7 16.41-4.99 21.12-10.55 4.92-5.78 5.45-14.07 2.02-19.63-3.44-5.57-10.88-8.44-18.11-9.18-7.26-0.78-14.39 0.56-18.81 3.4-4.47 2.83-6.31 7.23-6.67 10.88-0.32 3.65 0.78 6.62 2.41 5.42 1.63-1.17 3.76-6.48 8.4-8.68s11.8-1.28 15.49 2.12c3.68 3.44 3.86 9.36 2.69 13.4s-3.69 6.23-9 8.36c-10.03 4.07-20.16-3.01-34.97 1.49-10.32 3.15-17.61 10.2-21.37 18.53 0.04-0.64 0.07-1.28 0.11-1.88 0.56-9.74 1.91-21.01 4.71-33.62 2.83-12.65 7.16-26.61 13.57-40.04 6.45-13.4 15.02-26.22 21.97-33.66 6.94-7.41 12.22-9.43 20.3-13.96 8.08-4.5 18.96-11.52 26.12-22.65 7.12-11.09 10.52-26.29 14.98-34.54 4.47-8.26 10-9.57 10.46-10.64 0.49-1.02-4.04-1.77-10.42-1.13-6.34 0.64-14.53 2.66-22.25 5.78-7.73 3.15-15.06 7.4-20.45 13.32-5.42 5.92-8.93 13.54-11.16 21.26-2.2 7.76-3.12 15.63-1.13 17.22 1.98 1.56 6.87-3.15 11.9-9.14 5.03-5.95 10.21-13.22 14.42-19.88 4.18-6.63 7.41-12.69 7.09-10.67-0.35 2.02-4.29 12.09-10.03 21.34-5.74 9.21-13.35 17.64-20.76 25.23-3.3 3.36-6.56 6.58-9.96 10.16 0.82-2.8 1.38-5.84 1.6-9.07 0.63-10.13-2.27-21.93-8.01-30.97-5.74-9.07-14.32-15.37-23.63-20.48-9.29-5.1-19.28-9-21.37-9.03-2.09-0.04 3.75 3.79 6.2 11.3 2.48 7.48 1.56 18.67 3.29 27.25 1.74 8.61 6.17 14.56 11.13 19.59 5 5.07 10.56 9.18 13.22 9.57 2.62 0.36 2.37-3.05 1.56-8.01-0.82-4.92-2.2-11.44-5-18.49s-7.05-14.67-6.24-15.34c0.82-0.71 6.66 5.56 10.39 12.93 3.75 7.33 5.35 15.77 6.06 22.96 0.74 7.16 0.63 13.07-0.61 17.57-3.33 12.09-21.08 34.73-28.1 49.79-5.84 12.58-8.64 22.71-9.77 30.4-1-2.8-1.99-5.6-2.98-8.36-10.985-30.9-21.687-59.21-27.675-84.97-5.988-25.8-7.227-49.04-5.349-69.98 1.913-20.94 6.979-39.58 14.81-53.93 7.795-14.32 18.384-24.34 28.874-28.53 10.46-4.21 20.84-2.58 26.65 1.85s7.05 11.65 5.99 17.18c-1.1 5.53-4.57 9.32-8.29 11.45-3.76 2.12-7.76 2.58-11.98 1.8-4.22-0.81-8.57-2.87-8.22-0.28 0.32 2.59 5.39 9.81 11.73 14.07 6.34 4.28 13.92 5.52 21.12 2.76 7.19-2.76 13.99-9.53 16.68-19.59 2.7-10.1 1.32-23.42-3.68-32.28-5-8.9-13.64-13.25-23.32-15.03-9.67-1.8-20.37-0.99-31.92 4.93-11.55 5.95-23.988 16.97-32.386 30.44-8.397 13.46-12.79 29.37-15.094 44.71-2.303 15.38-2.517 30.23-2.056 41.21 0.46 10.99 1.595 18.14 0.177 18.07-1.452-0.07-5.492-7.3-8.433-19.63-2.906-12.29-4.747-29.69-3.082-47.23s6.838-35.29 13.748-53.12c6.909-17.82 15.519-35.78 24.555-47.3 9.031-11.51 18.491-16.58 26.471-17.15 8.01-0.56 14.56 3.33 16.93 7.94 2.34 4.61 0.54 9.92-2.87 12.65-3.4 2.76-8.36 3.01-8.54 4.75-0.17 1.7 4.43 4.92 11.13 4.71 6.66-0.25 15.41-3.93 19.84-10.52 4.43-6.63 4.54-16.2 0.93-22.75-3.62-6.56-10.99-10.13-18.25-11.55-7.23-1.45-14.39-0.75-20.09 0.85-5.67 1.63-9.96 4.14-10.42 2.76-0.43-1.38 2.91-6.66 7.97-11.23 5.07-4.54 11.84-8.33 22.5-14.25 10.63-5.95 25.12-13.99 34.34-24.58 9.21-10.6 13.11-23.71 12.61-35.51-0.27-5.99-1.68-11.64-3.75-16.58 4.95 2.07 10.59 3.48 16.59 3.75 11.79 0.49 24.9-3.4 35.5-12.62 10.59-9.21 18.64-23.7 24.59-34.33 5.92-10.67 9.71-17.43 14.24-22.5 4.57-5.07 9.85-8.4 11.24-7.97 1.38 0.46-1.14 4.74-2.77 10.41-1.59 5.71-2.3 12.87-0.85 20.1 1.42 7.26 5 14.63 11.55 18.24 6.56 3.62 16.13 3.51 22.75-0.92 6.59-4.43 10.28-13.18 10.52-19.84 0.22-6.7-3.01-11.3-4.71-11.13-1.73 0.18-1.98 5.14-4.75 8.54-2.72 3.4-8.04 5.21-12.65 2.87-4.6-2.37-8.5-8.93-7.93-16.93 0.56-7.98 5.63-17.44 17.15-26.474 11.51-9.035 29.48-17.645 47.3-24.554 17.82-6.91 35.57-12.083 53.11-13.748 4.39-0.417 8.77-0.613 13.05-0.629z" transform="matrix(28.222 0 0 28.222 0 -.23771)"/>
</svg>
